<svg xmlns="http://www.w3.org/2000/svg" viewBox="0 0 500 500"><g id="freepik--background-complete--inject-38"><polygon points="267.38 22.37 267 28.36 266.8 28.34 267.38 22.37" style="fill:#ebebeb"></polygon><polygon points="266.21 40.36 265.4 52.35 264.53 52.28 265.65 40.31 266.21 40.36" style="fill:#ebebeb"></polygon><polygon points="264.58 64.34 263.76 76.33 262.31 76.22 263.42 64.25 264.58 64.34" style="fill:#ebebeb"></polygon><polygon points="262.89 88.32 262.02 100.31 260.19 100.16 261.24 88.19 262.89 88.32" style="fill:#ebebeb"></polygon><polygon points="261.15 112.3 260.27 124.28 258.07 124.11 259.13 112.13 261.15 112.3" style="fill:#ebebeb"></polygon><polygon points="259.4 136.27 258.51 148.26 255.97 148.05 257.02 136.08 259.4 136.27" style="fill:#ebebeb"></polygon><polygon points="257.57 160.24 256.64 172.22 253.98 172.01 254.98 160.03 257.57 160.24" style="fill:#ebebeb"></polygon><polygon points="255.7 184.21 254.77 196.19 251.99 195.97 252.99 183.99 255.7 184.21" style="fill:#ebebeb"></polygon><polygon points="253.83 208.17 252.9 220.16 250 219.92 251 207.94 253.83 208.17" style="fill:#ebebeb"></polygon><polygon points="251.96 232.14 251.49 238.12 248.51 238.12 248.04 232.14 251 231.9 251.49 237.88 248.51 237.88 249 231.9 251.96 232.14" style="fill:#ebebeb"></polygon><polygon points="247.1 220.16 246.17 208.17 249.01 207.94 250 219.92 247.1 220.16" style="fill:#ebebeb"></polygon><polygon points="245.23 196.19 244.29 184.21 247.02 183.99 248.01 195.97 245.23 196.19" style="fill:#ebebeb"></polygon><polygon points="243.36 172.22 242.43 160.24 245.03 160.03 246.02 172.01 243.36 172.22" style="fill:#ebebeb"></polygon><polygon points="241.49 148.26 240.6 136.27 242.99 136.08 244.03 148.05 241.49 148.26" style="fill:#ebebeb"></polygon><polygon points="239.72 124.28 238.85 112.3 240.88 112.13 241.93 124.11 239.72 124.28" style="fill:#ebebeb"></polygon><polygon points="237.98 100.31 237.1 88.32 238.76 88.19 239.82 100.16 237.98 100.31" style="fill:#ebebeb"></polygon><polygon points="236.23 76.33 235.42 64.34 236.58 64.25 237.7 76.22 236.23 76.33" style="fill:#ebebeb"></polygon><polygon points="234.6 52.35 233.79 40.36 234.35 40.31 235.47 52.28 234.6 52.35" style="fill:#ebebeb"></polygon><polygon points="233 28.36 232.62 22.37 233.21 28.34 233 28.36" style="fill:#ebebeb"></polygon><polygon points="192.58 29.43 194.27 35.19 194.08 35.24 192.58 29.43" style="fill:#ebebeb"></polygon><polygon points="197.64 46.73 200.97 58.28 200.14 58.51 197.09 46.88 197.64 46.73" style="fill:#ebebeb"></polygon><polygon points="204.31 69.83 207.64 81.38 206.23 81.76 203.18 70.14 204.31 69.83" style="fill:#ebebeb"></polygon><polygon points="210.92 92.94 214.2 104.5 212.43 104.99 209.32 93.38 210.92 92.94" style="fill:#ebebeb"></polygon><polygon points="217.48 116.06 220.76 127.63 218.63 128.22 215.53 116.6 217.48 116.06" style="fill:#ebebeb"></polygon><polygon points="224.04 139.19 227.3 150.76 224.85 151.44 221.73 139.83 224.04 139.19" style="fill:#ebebeb"></polygon><polygon points="230.52 162.34 233.74 173.92 231.17 174.63 228.01 163.03 230.52 162.34" style="fill:#ebebeb"></polygon><polygon points="236.96 185.5 240.18 197.08 237.49 197.82 234.33 186.22 236.96 185.5" style="fill:#ebebeb"></polygon><polygon points="243.4 208.66 246.62 220.24 243.82 221.01 240.66 209.42 243.4 208.66" style="fill:#ebebeb"></polygon><polygon points="249.84 231.82 251.44 237.6 248.64 238.62 246.15 233.16 248.85 231.93 251.36 237.38 248.56 238.4 246.98 232.61 249.84 231.82" style="fill:#ebebeb"></polygon><polygon points="241.17 222.22 236.2 211.28 238.79 210.1 243.82 221.01 241.17 222.22" style="fill:#ebebeb"></polygon><polygon points="231.22 200.34 226.24 189.4 228.72 188.27 233.76 199.18 231.22 200.34" style="fill:#ebebeb"></polygon><polygon points="221.26 178.46 216.29 167.52 218.66 166.44 223.69 177.35 221.26 178.46" style="fill:#ebebeb"></polygon><polygon points="211.31 156.58 206.37 145.62 208.55 144.62 213.63 155.52 211.31 156.58" style="fill:#ebebeb"></polygon><polygon points="201.45 134.66 196.53 123.69 198.38 122.84 203.47 133.73 201.45 134.66" style="fill:#ebebeb"></polygon><polygon points="191.61 112.72 186.69 101.76 188.2 101.07 193.29 111.96 191.61 112.72" style="fill:#ebebeb"></polygon><polygon points="181.77 90.79 176.9 79.8 177.97 79.31 183.11 90.18 181.77 90.79" style="fill:#ebebeb"></polygon><polygon points="172.03 68.81 167.16 57.82 167.68 57.58 172.82 68.45 172.03 68.81" style="fill:#ebebeb"></polygon><polygon points="162.33 46.82 159.92 41.32 162.51 46.73 162.33 46.82" style="fill:#ebebeb"></polygon><polygon points="124.71 61.65 128.27 66.48 128.1 66.6 124.71 61.65" style="fill:#ebebeb"></polygon><polygon points="135.38 76.17 142.46 85.89 141.75 86.39 134.91 76.5 135.38 76.17" style="fill:#ebebeb"></polygon><polygon points="149.54 95.6 156.63 105.31 155.43 106.16 148.59 96.27 149.54 95.6" style="fill:#ebebeb"></polygon><polygon points="163.67 115.05 170.7 124.8 169.2 125.86 162.31 116.01 163.67 115.05" style="fill:#ebebeb"></polygon><polygon points="177.74 134.54 184.77 144.29 182.97 145.56 176.09 135.71 177.74 134.54" style="fill:#ebebeb"></polygon><polygon points="191.81 154.03 198.83 163.78 196.76 165.26 189.86 155.41 191.81 154.03" style="fill:#ebebeb"></polygon><polygon points="205.82 173.57 212.81 183.35 210.63 184.89 203.7 175.07 205.82 173.57" style="fill:#ebebeb"></polygon><polygon points="219.79 193.13 226.78 202.91 224.51 204.52 217.57 194.71 219.79 193.13" style="fill:#ebebeb"></polygon><polygon points="233.76 212.69 240.75 222.47 238.38 224.15 231.44 214.34 233.76 212.69" style="fill:#ebebeb"></polygon><polygon points="247.73 232.25 251.22 237.13 248.93 239.05 244.73 234.77 246.84 232.69 251.07 236.95 248.78 238.87 245.32 233.97 247.73 232.25" style="fill:#ebebeb"></polygon><polygon points="236.31 226.19 227.89 217.62 229.92 215.61 238.38 224.15 236.31 226.19" style="fill:#ebebeb"></polygon><polygon points="219.47 209.04 211.05 200.46 213 198.54 221.46 207.08 219.47 209.04" style="fill:#ebebeb"></polygon><polygon points="202.63 191.88 194.22 183.3 196.07 181.47 204.53 190.01 202.63 191.88" style="fill:#ebebeb"></polygon><polygon points="185.8 174.72 177.41 166.12 179.12 164.43 187.61 172.94 185.8 174.72" style="fill:#ebebeb"></polygon><polygon points="169.03 157.49 160.66 148.87 162.1 147.45 170.61 155.94 169.03 157.49" style="fill:#ebebeb"></polygon><polygon points="152.28 140.25 143.91 131.63 145.09 130.46 153.6 138.95 152.28 140.25" style="fill:#ebebeb"></polygon><polygon points="135.54 123 127.2 114.34 128.04 113.52 136.58 121.97 135.54 123" style="fill:#ebebeb"></polygon><polygon points="118.87 105.68 110.54 97.02 110.94 96.62 119.49 105.07 118.87 105.68" style="fill:#ebebeb"></polygon><polygon points="102.23 88.33 98.08 83.99 102.37 88.19 102.23 88.33" style="fill:#ebebeb"></polygon><polygon points="71.95 115.14 76.94 118.46 76.83 118.63 71.95 115.14" style="fill:#ebebeb"></polygon><polygon points="86.94 125.14 96.92 131.84 96.43 132.55 86.62 125.6 86.94 125.14" style="fill:#ebebeb"></polygon><polygon points="106.9 138.54 116.87 145.25 116.04 146.45 106.23 139.5 106.9 138.54" style="fill:#ebebeb"></polygon><polygon points="126.82 151.99 136.77 158.75 135.72 160.26 125.88 153.36 126.82 151.99" style="fill:#ebebeb"></polygon><polygon points="146.71 165.5 156.66 172.25 155.4 174.06 145.56 167.16 146.71 165.5" style="fill:#ebebeb"></polygon><polygon points="166.6 179 176.54 185.76 175.09 187.85 165.24 180.96 166.6 179" style="fill:#ebebeb"></polygon><polygon points="186.45 192.56 196.35 199.36 194.84 201.56 184.97 194.71 186.45 192.56" style="fill:#ebebeb"></polygon><polygon points="206.26 206.16 216.18 212.97 214.59 215.26 204.72 208.41 206.26 206.16" style="fill:#ebebeb"></polygon><polygon points="226.09 219.77 235.99 226.57 234.34 228.96 224.47 222.11 226.09 219.77" style="fill:#ebebeb"></polygon><polygon points="245.9 233.37 250.85 236.77 249.36 239.35 243.94 236.77 245.22 234.08 250.64 236.65 249.15 239.23 244.22 235.81 245.9 233.37" style="fill:#ebebeb"></polygon><polygon points="233.1 231.59 222.25 226.41 223.47 223.83 234.35 228.96 233.1 231.59" style="fill:#ebebeb"></polygon><polygon points="211.41 221.23 200.56 216.04 201.73 213.58 212.6 218.7 211.41 221.23" style="fill:#ebebeb"></polygon><polygon points="189.72 210.86 178.87 205.68 179.99 203.32 190.86 208.45 189.72 210.86" style="fill:#ebebeb"></polygon><polygon points="168.03 200.5 157.2 195.28 158.23 193.11 169.12 198.2 168.03 200.5" style="fill:#ebebeb"></polygon><polygon points="146.38 190.04 135.56 184.81 136.43 182.97 147.33 188.04 146.38 190.04" style="fill:#ebebeb"></polygon><polygon points="124.74 179.57 113.92 174.33 114.64 172.83 125.54 177.9 124.74 179.57" style="fill:#ebebeb"></polygon><polygon points="103.11 169.09 92.31 163.8 92.82 162.74 103.74 167.76 103.11 169.09" style="fill:#ebebeb"></polygon><polygon points="81.52 158.51 70.73 153.22 70.97 152.71 81.89 157.72 81.52 158.51" style="fill:#ebebeb"></polygon><polygon points="59.95 147.9 54.57 145.24 60.03 147.72 59.95 147.9" style="fill:#ebebeb"></polygon><polygon points="40.66 183.44 46.5 184.86 46.45 185.05 40.66 183.44" style="fill:#ebebeb"></polygon><polygon points="58.17 187.71 69.84 190.6 69.62 191.44 58.03 188.26 58.17 187.71" style="fill:#ebebeb"></polygon><polygon points="81.51 193.49 93.18 196.37 92.81 197.79 81.22 194.61 81.51 193.49" style="fill:#ebebeb"></polygon><polygon points="104.83 199.31 116.49 202.25 116.02 204.03 104.42 200.91 104.83 199.31" style="fill:#ebebeb"></polygon><polygon points="128.14 205.2 139.79 208.14 139.24 210.27 127.63 207.15 128.14 205.2" style="fill:#ebebeb"></polygon><polygon points="151.45 211.08 163.1 214.04 162.46 216.5 150.85 213.39 151.45 211.08" style="fill:#ebebeb"></polygon><polygon points="174.74 217.04 186.38 220.04 185.7 222.62 174.08 219.56 174.74 217.04" style="fill:#ebebeb"></polygon><polygon points="198.01 223.04 209.65 226.05 208.95 228.74 197.33 225.68 198.01 223.04" style="fill:#ebebeb"></polygon><polygon points="221.29 229.05 232.93 232.05 232.2 234.86 220.57 231.8 221.29 229.05" style="fill:#ebebeb"></polygon><polygon points="244.57 235.05 250.38 236.55 249.86 239.49 243.89 238.92 244.17 235.96 250.14 236.51 249.62 239.45 243.82 237.92 244.57 235.05" style="fill:#ebebeb"></polygon><polygon points="231.92 237.76 219.96 236.6 220.23 233.76 232.2 234.86 231.92 237.76" style="fill:#ebebeb"></polygon><polygon points="208 235.44 196.03 234.28 196.29 231.56 208.26 232.66 208 235.44" style="fill:#ebebeb"></polygon><polygon points="184.07 233.12 172.11 231.96 172.35 229.36 184.32 230.46 184.07 233.12" style="fill:#ebebeb"></polygon><polygon points="160.14 230.8 148.19 229.59 148.41 227.21 160.38 228.26 160.14 230.8" style="fill:#ebebeb"></polygon><polygon points="136.23 228.37 124.27 227.15 124.46 225.13 136.44 226.17 136.23 228.37" style="fill:#ebebeb"></polygon><polygon points="112.31 225.93 100.36 224.71 100.51 223.05 112.49 224.09 112.31 225.93" style="fill:#ebebeb"></polygon><polygon points="88.4 223.48 76.45 222.21 76.56 221.04 88.54 222.02 88.4 223.48" style="fill:#ebebeb"></polygon><polygon points="64.5 220.93 52.54 219.65 52.6 219.08 64.58 220.06 64.5 220.93" style="fill:#ebebeb"></polygon><polygon points="40.59 218.33 34.63 217.67 40.61 218.13 40.59 218.33" style="fill:#ebebeb"></polygon><polygon points="34.63 258.33 40.59 257.67 40.61 257.87 34.63 258.33" style="fill:#ebebeb"></polygon><polygon points="52.54 256.35 64.5 255.08 64.58 255.94 52.6 256.92 52.54 256.35" style="fill:#ebebeb"></polygon><polygon points="76.45 253.8 88.4 252.52 88.54 253.98 76.56 254.96 76.45 253.8" style="fill:#ebebeb"></polygon><polygon points="100.36 251.29 112.31 250.07 112.49 251.91 100.51 252.94 100.36 251.29" style="fill:#ebebeb"></polygon><polygon points="124.27 248.85 136.23 247.63 136.44 249.83 124.46 250.87 124.27 248.85" style="fill:#ebebeb"></polygon><polygon points="148.19 246.41 160.15 245.2 160.38 247.74 148.41 248.79 148.19 246.41" style="fill:#ebebeb"></polygon><polygon points="172.11 244.04 184.07 242.88 184.32 245.54 172.35 246.64 172.11 244.04" style="fill:#ebebeb"></polygon><polygon points="196.03 241.73 208 240.57 208.26 243.34 196.29 244.44 196.03 241.73" style="fill:#ebebeb"></polygon><polygon points="219.96 239.41 231.92 238.25 232.2 241.14 220.23 242.24 219.96 239.41" style="fill:#ebebeb"></polygon><polygon points="243.89 237.09 249.86 236.51 250.38 239.45 244.57 240.95 243.82 238.07 249.62 236.55 250.14 239.49 244.17 240.04 243.89 237.09" style="fill:#ebebeb"></polygon><polygon points="232.93 243.95 221.29 246.96 220.57 244.2 232.2 241.13 232.93 243.95" style="fill:#ebebeb"></polygon><polygon points="209.65 249.96 198.01 252.96 197.33 250.32 208.95 247.26 209.65 249.96" style="fill:#ebebeb"></polygon><polygon points="186.38 255.96 174.74 258.96 174.08 256.44 185.7 253.38 186.38 255.96" style="fill:#ebebeb"></polygon><polygon points="163.1 261.96 151.45 264.92 150.84 262.6 162.46 259.5 163.1 261.96" style="fill:#ebebeb"></polygon><polygon points="139.8 267.87 128.14 270.81 127.63 268.84 139.24 265.72 139.8 267.87" style="fill:#ebebeb"></polygon><polygon points="116.49 273.75 104.83 276.69 104.42 275.08 116.02 271.96 116.49 273.75" style="fill:#ebebeb"></polygon><polygon points="93.18 279.63 81.51 282.52 81.22 281.38 92.81 278.21 93.18 279.63" style="fill:#ebebeb"></polygon><polygon points="69.84 285.4 58.17 288.29 58.03 287.74 69.62 284.56 69.84 285.4" style="fill:#ebebeb"></polygon><polygon points="46.5 291.14 40.66 292.56 46.45 290.95 46.5 291.14" style="fill:#ebebeb"></polygon><polygon points="54.57 330.76 59.95 328.1 60.03 328.28 54.57 330.76" style="fill:#ebebeb"></polygon><polygon points="70.73 322.78 81.52 317.49 81.89 318.27 70.97 323.29 70.73 322.78" style="fill:#ebebeb"></polygon><polygon points="92.32 312.2 103.11 306.92 103.74 308.24 92.82 313.25 92.32 312.2" style="fill:#ebebeb"></polygon><polygon points="113.93 301.67 124.75 296.44 125.53 298.1 114.64 303.17 113.93 301.67" style="fill:#ebebeb"></polygon><polygon points="135.56 291.2 146.38 285.96 147.33 287.96 136.43 293.03 135.56 291.2" style="fill:#ebebeb"></polygon><polygon points="157.2 280.73 168.03 275.5 169.12 277.8 158.23 282.88 157.2 280.73" style="fill:#ebebeb"></polygon><polygon points="178.87 270.32 189.72 265.14 190.86 267.55 179.99 272.67 178.87 270.32" style="fill:#ebebeb"></polygon><polygon points="200.56 259.96 211.41 254.78 212.6 257.29 201.73 262.42 200.56 259.96" style="fill:#ebebeb"></polygon><polygon points="222.25 249.6 233.1 244.41 234.34 247.04 223.47 252.17 222.25 249.6" style="fill:#ebebeb"></polygon><polygon points="243.94 239.23 249.36 236.65 250.85 239.23 245.91 242.63 244.22 240.18 249.15 236.77 250.64 239.35 245.22 241.91 243.94 239.23" style="fill:#ebebeb"></polygon><polygon points="236 249.43 226.09 256.23 224.47 253.89 234.34 247.04 236 249.43" style="fill:#ebebeb"></polygon><polygon points="216.18 263.04 206.27 269.84 204.72 267.59 214.59 260.74 216.18 263.04" style="fill:#ebebeb"></polygon><polygon points="196.36 276.64 186.45 283.44 184.97 281.29 194.84 274.44 196.36 276.64" style="fill:#ebebeb"></polygon><polygon points="176.54 290.24 166.6 297.01 165.24 295.03 175.09 288.14 176.54 290.24" style="fill:#ebebeb"></polygon><polygon points="156.66 303.76 146.71 310.51 145.56 308.83 155.4 301.93 156.66 303.76" style="fill:#ebebeb"></polygon><polygon points="136.77 317.26 126.82 324.01 125.88 322.64 135.72 315.74 136.77 317.26" style="fill:#ebebeb"></polygon><polygon points="116.88 330.76 106.9 337.46 106.23 336.5 116.04 329.55 116.88 330.76" style="fill:#ebebeb"></polygon><polygon points="96.92 344.16 86.94 350.86 86.62 350.39 96.43 343.44 96.92 344.16" style="fill:#ebebeb"></polygon><polygon points="76.94 357.54 71.95 360.86 76.83 357.37 76.94 357.54" style="fill:#ebebeb"></polygon><polygon points="98.08 392.01 102.23 387.67 102.37 387.81 98.08 392.01" style="fill:#ebebeb"></polygon><polygon points="110.54 378.98 118.87 370.32 119.49 370.93 110.94 379.38 110.54 378.98" style="fill:#ebebeb"></polygon><polygon points="127.21 361.66 135.54 353 136.58 354.02 128.03 362.48 127.21 361.66" style="fill:#ebebeb"></polygon><polygon points="143.91 344.37 152.29 335.75 153.6 337.04 145.09 345.54 143.91 344.37" style="fill:#ebebeb"></polygon><polygon points="160.66 327.13 169.04 318.51 170.61 320.06 162.1 328.55 160.66 327.13" style="fill:#ebebeb"></polygon><polygon points="177.41 309.89 185.8 301.28 187.61 303.06 179.11 311.57 177.41 309.89" style="fill:#ebebeb"></polygon><polygon points="194.22 292.7 202.63 284.12 204.53 285.99 196.07 294.53 194.22 292.7" style="fill:#ebebeb"></polygon><polygon points="211.06 275.54 219.47 266.96 221.46 268.92 213 277.46 211.06 275.54" style="fill:#ebebeb"></polygon><polygon points="227.89 258.39 236.31 249.81 238.38 251.85 229.92 260.38 227.89 258.39" style="fill:#ebebeb"></polygon><polygon points="244.73 241.23 248.93 236.95 251.22 238.87 247.74 243.75 245.31 242.03 248.78 237.13 251.07 239.05 246.84 243.31 244.73 241.23" style="fill:#ebebeb"></polygon><polygon points="240.75 253.53 233.76 263.31 231.44 261.66 238.38 251.85 240.75 253.53" style="fill:#ebebeb"></polygon><polygon points="226.78 273.09 219.79 282.88 217.57 281.29 224.5 271.48 226.78 273.09" style="fill:#ebebeb"></polygon><polygon points="212.81 292.65 205.82 302.44 203.69 300.93 210.63 291.11 212.81 292.65" style="fill:#ebebeb"></polygon><polygon points="198.84 312.22 191.81 321.97 189.86 320.58 196.76 310.74 198.84 312.22" style="fill:#ebebeb"></polygon><polygon points="184.78 331.72 177.74 341.46 176.08 340.28 182.97 330.43 184.78 331.72" style="fill:#ebebeb"></polygon><polygon points="170.71 351.21 163.67 360.95 162.31 359.99 169.2 350.13 170.71 351.21" style="fill:#ebebeb"></polygon><polygon points="156.63 370.69 149.54 380.4 148.59 379.73 155.43 369.84 156.63 370.69" style="fill:#ebebeb"></polygon><polygon points="142.46 390.12 135.38 399.83 134.91 399.5 141.75 389.61 142.46 390.12" style="fill:#ebebeb"></polygon><polygon points="128.27 409.52 124.71 414.35 128.1 409.4 128.27 409.52" style="fill:#ebebeb"></polygon><polygon points="159.92 434.68 162.33 429.18 162.51 429.27 159.92 434.68" style="fill:#ebebeb"></polygon><polygon points="167.17 418.18 172.04 407.19 172.82 407.55 167.68 418.42 167.17 418.18" style="fill:#ebebeb"></polygon><polygon points="176.91 396.2 181.77 385.21 183.1 385.82 177.96 396.69 176.91 396.2" style="fill:#ebebeb"></polygon><polygon points="186.69 374.24 191.61 363.28 193.29 364.04 188.2 374.93 186.69 374.24" style="fill:#ebebeb"></polygon><polygon points="196.53 352.31 201.46 341.35 203.46 342.26 198.37 353.15 196.53 352.31" style="fill:#ebebeb"></polygon><polygon points="206.38 330.38 211.31 319.42 213.62 320.48 208.55 331.37 206.38 330.38" style="fill:#ebebeb"></polygon><polygon points="216.29 308.48 221.27 297.54 223.69 298.65 218.66 309.56 216.29 308.48" style="fill:#ebebeb"></polygon><polygon points="226.24 286.6 231.22 275.66 233.75 276.82 228.72 287.73 226.24 286.6" style="fill:#ebebeb"></polygon><polygon points="236.2 264.72 241.18 253.78 243.82 254.99 238.79 265.9 236.2 264.72" style="fill:#ebebeb"></polygon><polygon points="246.15 242.84 248.64 237.38 251.44 238.4 249.84 244.18 246.97 243.39 248.56 237.6 251.36 238.62 248.85 244.07 246.15 242.84" style="fill:#ebebeb"></polygon><polygon points="246.62 255.76 243.4 267.34 240.65 266.58 243.81 254.99 246.62 255.76" style="fill:#ebebeb"></polygon><polygon points="240.18 278.92 236.96 290.5 234.33 289.77 237.49 278.18 240.18 278.92" style="fill:#ebebeb"></polygon><polygon points="233.74 302.08 230.52 313.66 228.01 312.97 231.17 301.37 233.74 302.08" style="fill:#ebebeb"></polygon><polygon points="227.3 325.24 224.04 336.81 221.73 336.17 224.85 324.56 227.3 325.24" style="fill:#ebebeb"></polygon><polygon points="220.76 348.37 217.49 359.94 215.53 359.4 218.63 347.78 220.76 348.37" style="fill:#ebebeb"></polygon><polygon points="214.21 371.5 210.93 383.06 209.32 382.62 212.42 371.01 214.21 371.5" style="fill:#ebebeb"></polygon><polygon points="207.64 394.63 204.31 406.17 203.18 405.86 206.22 394.24 207.64 394.63" style="fill:#ebebeb"></polygon><polygon points="200.97 417.72 197.64 429.27 197.09 429.12 200.13 417.49 200.97 417.72" style="fill:#ebebeb"></polygon><polygon points="194.27 440.81 192.58 446.57 194.08 440.76 194.27 440.81" style="fill:#ebebeb"></polygon><polygon points="232.62 453.63 233 447.64 233.2 447.66 232.62 453.63" style="fill:#ebebeb"></polygon><polygon points="233.79 435.64 234.6 423.65 235.47 423.72 234.35 435.69 233.79 435.64" style="fill:#ebebeb"></polygon><polygon points="235.42 411.66 236.24 399.67 237.69 399.79 236.58 411.75 235.42 411.66" style="fill:#ebebeb"></polygon><polygon points="237.1 387.68 237.98 375.69 239.81 375.84 238.76 387.81 237.1 387.68" style="fill:#ebebeb"></polygon><polygon points="238.85 363.7 239.73 351.72 241.93 351.89 240.87 363.87 238.85 363.7" style="fill:#ebebeb"></polygon><polygon points="240.6 339.73 241.49 327.74 244.03 327.95 242.98 339.92 240.6 339.73" style="fill:#ebebeb"></polygon><polygon points="242.43 315.76 243.36 303.78 246.02 303.99 245.02 315.97 242.43 315.76" style="fill:#ebebeb"></polygon><polygon points="244.3 291.79 245.23 279.81 248.01 280.03 247.01 292.01 244.3 291.79" style="fill:#ebebeb"></polygon><polygon points="246.17 267.83 247.1 255.84 250 256.08 249 268.06 246.17 267.83" style="fill:#ebebeb"></polygon><polygon points="248.04 243.86 248.51 237.88 251.49 237.88 251.96 243.86 249 244.1 248.51 238.12 251.49 238.12 251 244.1 248.04 243.86" style="fill:#ebebeb"></polygon><polygon points="252.9 255.84 253.83 267.83 250.99 268.06 250 256.08 252.9 255.84" style="fill:#ebebeb"></polygon><polygon points="254.77 279.81 255.71 291.79 252.98 292.01 251.99 280.03 254.77 279.81" style="fill:#ebebeb"></polygon><polygon points="256.64 303.78 257.57 315.76 254.97 315.97 253.98 303.99 256.64 303.78" style="fill:#ebebeb"></polygon><polygon points="258.51 327.74 259.4 339.73 257.01 339.92 255.97 327.95 258.51 327.74" style="fill:#ebebeb"></polygon><polygon points="260.28 351.71 261.15 363.7 259.12 363.87 258.07 351.89 260.28 351.71" style="fill:#ebebeb"></polygon><polygon points="262.02 375.69 262.9 387.68 261.24 387.81 260.18 375.84 262.02 375.69" style="fill:#ebebeb"></polygon><polygon points="263.77 399.67 264.58 411.66 263.42 411.75 262.3 399.79 263.77 399.67" style="fill:#ebebeb"></polygon><polygon points="265.4 423.65 266.21 435.64 265.65 435.69 264.53 423.72 265.4 423.65" style="fill:#ebebeb"></polygon><polygon points="267 447.64 267.38 453.63 266.8 447.66 267 447.64" style="fill:#ebebeb"></polygon><polygon points="307.42 446.57 305.73 440.81 305.92 440.76 307.42 446.57" style="fill:#ebebeb"></polygon><polygon points="302.36 429.27 299.03 417.72 299.86 417.49 302.91 429.12 302.36 429.27" style="fill:#ebebeb"></polygon><polygon points="295.69 406.17 292.36 394.63 293.77 394.24 296.82 405.86 295.69 406.17" style="fill:#ebebeb"></polygon><polygon points="289.08 383.06 285.8 371.5 287.57 371.01 290.68 382.62 289.08 383.06" style="fill:#ebebeb"></polygon><polygon points="282.52 359.94 279.24 348.37 281.37 347.79 284.47 359.4 282.52 359.94" style="fill:#ebebeb"></polygon><polygon points="275.96 336.81 272.7 325.24 275.15 324.56 278.27 336.17 275.96 336.81" style="fill:#ebebeb"></polygon><polygon points="269.48 313.66 266.26 302.08 268.83 301.37 271.99 312.97 269.48 313.66" style="fill:#ebebeb"></polygon><polygon points="263.04 290.5 259.82 278.92 262.51 278.18 265.67 289.78 263.04 290.5" style="fill:#ebebeb"></polygon><polygon points="256.6 267.34 253.38 255.76 256.18 254.99 259.35 266.58 256.6 267.34" style="fill:#ebebeb"></polygon><polygon points="250.16 244.18 248.56 238.4 251.36 237.38 253.85 242.84 251.15 244.07 248.64 238.62 251.44 237.6 253.02 243.39 250.16 244.18" style="fill:#ebebeb"></polygon><polygon points="258.83 253.78 263.8 264.72 261.21 265.9 256.18 254.99 258.83 253.78" style="fill:#ebebeb"></polygon><polygon points="268.78 275.66 273.76 286.6 271.28 287.73 266.24 276.82 268.78 275.66" style="fill:#ebebeb"></polygon><polygon points="278.74 297.54 283.71 308.48 281.34 309.56 276.31 298.65 278.74 297.54" style="fill:#ebebeb"></polygon><polygon points="288.69 319.42 293.63 330.38 291.45 331.38 286.37 320.48 288.69 319.42" style="fill:#ebebeb"></polygon><polygon points="298.55 341.34 303.47 352.31 301.62 353.15 296.54 342.27 298.55 341.34" style="fill:#ebebeb"></polygon><polygon points="308.39 363.27 313.31 374.24 311.8 374.93 306.71 364.05 308.39 363.27" style="fill:#ebebeb"></polygon><polygon points="318.23 385.21 323.1 396.2 322.03 396.69 316.89 385.82 318.23 385.21" style="fill:#ebebeb"></polygon><polygon points="327.97 407.19 332.83 418.18 332.32 418.42 327.18 407.55 327.97 407.19" style="fill:#ebebeb"></polygon><polygon points="337.67 429.18 340.08 434.68 337.49 429.27 337.67 429.18" style="fill:#ebebeb"></polygon><polygon points="375.29 414.35 371.73 409.52 371.9 409.4 375.29 414.35" style="fill:#ebebeb"></polygon><polygon points="364.62 399.83 357.54 390.11 358.25 389.61 365.09 399.5 364.62 399.83" style="fill:#ebebeb"></polygon><polygon points="350.46 380.4 343.38 370.69 344.57 369.84 351.41 379.73 350.46 380.4" style="fill:#ebebeb"></polygon><polygon points="336.33 360.95 329.3 351.2 330.8 350.14 337.69 359.99 336.33 360.95" style="fill:#ebebeb"></polygon><polygon points="322.26 341.46 315.23 331.71 317.02 330.44 323.91 340.29 322.26 341.46" style="fill:#ebebeb"></polygon><polygon points="308.19 321.97 301.17 312.21 303.24 310.74 310.14 320.58 308.19 321.97" style="fill:#ebebeb"></polygon><polygon points="294.18 302.43 287.19 292.65 289.37 291.11 296.3 300.93 294.18 302.43" style="fill:#ebebeb"></polygon><polygon points="280.21 282.87 273.22 273.09 275.49 271.48 282.43 281.3 280.21 282.87" style="fill:#ebebeb"></polygon><polygon points="266.24 263.31 259.25 253.53 261.62 251.85 268.56 261.66 266.24 263.31" style="fill:#ebebeb"></polygon><polygon points="252.27 243.75 248.78 238.87 251.07 236.95 255.27 241.23 253.16 243.32 248.93 239.05 251.22 237.13 254.68 242.03 252.27 243.75" style="fill:#ebebeb"></polygon><polygon points="263.69 249.81 272.11 258.38 270.08 260.39 261.62 251.85 263.69 249.81" style="fill:#ebebeb"></polygon><polygon points="280.53 266.96 288.95 275.54 287 277.46 278.54 268.92 280.53 266.96" style="fill:#ebebeb"></polygon><polygon points="297.37 284.12 305.79 292.7 303.93 294.53 295.47 285.99 297.37 284.12" style="fill:#ebebeb"></polygon><polygon points="314.2 301.27 322.59 309.88 320.88 311.57 312.39 303.06 314.2 301.27" style="fill:#ebebeb"></polygon><polygon points="330.97 318.51 339.34 327.13 337.89 328.55 329.39 320.06 330.97 318.51" style="fill:#ebebeb"></polygon><polygon points="347.72 335.75 356.09 344.37 354.91 345.54 346.4 337.05 347.72 335.75" style="fill:#ebebeb"></polygon><polygon points="364.46 353 372.8 361.66 371.96 362.48 363.42 354.03 364.46 353" style="fill:#ebebeb"></polygon><polygon points="381.13 370.32 389.46 378.98 389.06 379.38 380.51 370.93 381.13 370.32" style="fill:#ebebeb"></polygon><polygon points="397.77 387.67 401.92 392.01 397.63 387.81 397.77 387.67" style="fill:#ebebeb"></polygon><polygon points="428.05 360.86 423.06 357.54 423.17 357.37 428.05 360.86" style="fill:#ebebeb"></polygon><polygon points="413.06 350.86 403.08 344.16 403.57 343.45 413.38 350.4 413.06 350.86" style="fill:#ebebeb"></polygon><polygon points="393.1 337.46 383.13 330.75 383.96 329.55 393.76 336.5 393.1 337.46" style="fill:#ebebeb"></polygon><polygon points="373.18 324.01 363.23 317.26 364.28 315.74 374.12 322.64 373.18 324.01" style="fill:#ebebeb"></polygon><polygon points="353.29 310.5 343.35 303.75 344.6 301.94 354.44 308.84 353.29 310.5" style="fill:#ebebeb"></polygon><polygon points="333.4 297 323.46 290.24 324.91 288.14 334.76 295.04 333.4 297" style="fill:#ebebeb"></polygon><polygon points="313.55 283.44 303.64 276.64 305.16 274.44 315.03 281.29 313.55 283.44" style="fill:#ebebeb"></polygon><polygon points="293.74 269.83 283.82 263.03 285.41 260.74 295.28 267.59 293.74 269.83" style="fill:#ebebeb"></polygon><polygon points="273.92 256.23 264.01 249.43 265.66 247.04 275.53 253.89 273.92 256.23" style="fill:#ebebeb"></polygon><polygon points="254.1 242.63 249.15 239.23 250.64 236.65 256.06 239.23 254.78 241.92 249.36 239.35 250.85 236.77 255.78 240.19 254.1 242.63" style="fill:#ebebeb"></polygon><polygon points="266.9 244.41 277.75 249.59 276.52 252.17 265.65 247.04 266.9 244.41" style="fill:#ebebeb"></polygon><polygon points="288.59 254.77 299.44 259.96 298.27 262.42 287.4 257.3 288.59 254.77" style="fill:#ebebeb"></polygon><polygon points="310.28 265.14 321.13 270.32 320.01 272.68 309.14 267.55 310.28 265.14" style="fill:#ebebeb"></polygon><polygon points="331.97 275.5 342.8 280.72 341.77 282.89 330.88 277.8 331.97 275.5" style="fill:#ebebeb"></polygon><polygon points="353.62 285.96 364.44 291.19 363.57 293.03 352.67 287.96 353.62 285.96" style="fill:#ebebeb"></polygon><polygon points="375.26 296.43 386.07 301.67 385.36 303.17 374.46 298.1 375.26 296.43" style="fill:#ebebeb"></polygon><polygon points="396.89 306.91 407.69 312.2 407.18 313.26 396.26 308.24 396.89 306.91" style="fill:#ebebeb"></polygon><polygon points="418.48 317.49 429.27 322.78 429.03 323.3 418.11 318.28 418.48 317.49" style="fill:#ebebeb"></polygon><polygon points="440.05 328.1 445.43 330.76 439.96 328.28 440.05 328.1" style="fill:#ebebeb"></polygon><polygon points="459.33 292.56 453.5 291.14 453.55 290.95 459.33 292.56" style="fill:#ebebeb"></polygon><polygon points="441.83 288.29 430.16 285.4 430.38 284.56 441.97 287.74 441.83 288.29" style="fill:#ebebeb"></polygon><polygon points="418.49 282.51 406.82 279.63 407.19 278.21 418.78 281.39 418.49 282.51" style="fill:#ebebeb"></polygon><polygon points="395.17 276.69 383.51 273.75 383.98 271.97 395.58 275.08 395.17 276.69" style="fill:#ebebeb"></polygon><polygon points="371.86 270.81 360.2 267.86 360.76 265.73 372.37 268.85 371.86 270.81" style="fill:#ebebeb"></polygon><polygon points="348.55 264.92 336.9 261.96 337.54 259.5 349.15 262.61 348.55 264.92" style="fill:#ebebeb"></polygon><polygon points="325.26 258.96 313.62 255.96 314.3 253.38 325.92 256.44 325.26 258.96" style="fill:#ebebeb"></polygon><polygon points="301.99 252.96 290.35 249.96 291.05 247.26 302.67 250.32 301.99 252.96" style="fill:#ebebeb"></polygon><polygon points="278.71 246.95 267.07 243.95 267.8 241.14 279.43 244.2 278.71 246.95" style="fill:#ebebeb"></polygon><polygon points="255.43 240.95 249.62 239.45 250.14 236.51 256.11 237.08 255.83 240.04 249.86 239.49 250.38 236.55 256.18 238.08 255.43 240.95" style="fill:#ebebeb"></polygon><polygon points="268.08 238.24 280.04 239.4 279.77 242.24 267.8 241.14 268.08 238.24" style="fill:#ebebeb"></polygon><polygon points="292 240.56 303.97 241.72 303.71 244.44 291.74 243.34 292 240.56" style="fill:#ebebeb"></polygon><polygon points="315.93 242.88 327.89 244.04 327.65 246.64 315.68 245.54 315.93 242.88" style="fill:#ebebeb"></polygon><polygon points="339.86 245.2 351.81 246.41 351.59 248.79 339.62 247.74 339.86 245.2" style="fill:#ebebeb"></polygon><polygon points="363.77 247.63 375.73 248.85 375.54 250.87 363.56 249.83 363.77 247.63" style="fill:#ebebeb"></polygon><polygon points="387.69 250.07 399.64 251.29 399.49 252.95 387.51 251.91 387.69 250.07" style="fill:#ebebeb"></polygon><polygon points="411.6 252.52 423.55 253.79 423.44 254.96 411.46 253.98 411.6 252.52" style="fill:#ebebeb"></polygon><polygon points="435.5 255.07 447.46 256.35 447.4 256.92 435.42 255.94 435.5 255.07" style="fill:#ebebeb"></polygon><polygon points="459.41 257.67 465.37 258.33 459.39 257.87 459.41 257.67" style="fill:#ebebeb"></polygon><polygon points="465.37 217.67 459.41 218.33 459.39 218.13 465.37 217.67" style="fill:#ebebeb"></polygon><polygon points="447.46 219.65 435.5 220.92 435.42 220.06 447.4 219.08 447.46 219.65" style="fill:#ebebeb"></polygon><polygon points="423.55 222.2 411.6 223.48 411.46 222.03 423.44 221.04 423.55 222.2" style="fill:#ebebeb"></polygon><polygon points="399.64 224.71 387.69 225.93 387.51 224.09 399.49 223.06 399.64 224.71" style="fill:#ebebeb"></polygon><polygon points="375.73 227.15 363.77 228.37 363.56 226.17 375.54 225.13 375.73 227.15" style="fill:#ebebeb"></polygon><polygon points="351.81 229.59 339.86 230.8 339.62 228.26 351.59 227.21 351.81 229.59" style="fill:#ebebeb"></polygon><polygon points="327.89 231.96 315.93 233.12 315.68 230.46 327.65 229.36 327.89 231.96" style="fill:#ebebeb"></polygon><polygon points="303.97 234.28 292 235.43 291.74 232.66 303.71 231.56 303.97 234.28" style="fill:#ebebeb"></polygon><polygon points="280.04 236.59 268.08 237.75 267.8 234.86 279.77 233.76 280.04 236.59" style="fill:#ebebeb"></polygon><polygon points="256.11 238.91 250.14 239.49 249.62 236.55 255.43 235.05 256.18 237.93 250.38 239.45 249.86 236.51 255.83 235.96 256.11 238.91" style="fill:#ebebeb"></polygon><polygon points="267.07 232.05 278.71 229.04 279.43 231.8 267.8 234.87 267.07 232.05" style="fill:#ebebeb"></polygon><polygon points="290.35 226.04 301.99 223.04 302.67 225.68 291.05 228.74 290.35 226.04" style="fill:#ebebeb"></polygon><polygon points="313.62 220.04 325.26 217.04 325.92 219.56 314.3 222.62 313.62 220.04" style="fill:#ebebeb"></polygon><polygon points="336.9 214.03 348.55 211.08 349.15 213.4 337.54 216.5 336.9 214.03" style="fill:#ebebeb"></polygon><polygon points="360.2 208.13 371.86 205.19 372.37 207.16 360.76 210.28 360.2 208.13" style="fill:#ebebeb"></polygon><polygon points="383.51 202.25 395.17 199.31 395.58 200.92 383.98 204.04 383.51 202.25" style="fill:#ebebeb"></polygon><polygon points="406.82 196.37 418.49 193.48 418.78 194.62 407.19 197.79 406.82 196.37" style="fill:#ebebeb"></polygon><polygon points="430.16 190.6 441.83 187.71 441.97 188.26 430.38 191.44 430.16 190.6" style="fill:#ebebeb"></polygon><polygon points="453.5 184.86 459.33 183.44 453.55 185.05 453.5 184.86" style="fill:#ebebeb"></polygon><polygon points="445.43 145.24 440.05 147.9 439.96 147.72 445.43 145.24" style="fill:#ebebeb"></polygon><polygon points="429.27 153.22 418.48 158.51 418.11 157.73 429.03 152.71 429.27 153.22" style="fill:#ebebeb"></polygon><polygon points="407.68 163.8 396.89 169.09 396.26 167.76 407.18 162.75 407.68 163.8" style="fill:#ebebeb"></polygon><polygon points="386.07 174.33 375.25 179.56 374.46 177.9 385.36 172.83 386.07 174.33" style="fill:#ebebeb"></polygon><polygon points="364.44 184.8 353.62 190.04 352.67 188.04 363.57 182.97 364.44 184.8" style="fill:#ebebeb"></polygon><polygon points="342.8 195.27 331.97 200.5 330.88 198.2 341.77 193.12 342.8 195.27" style="fill:#ebebeb"></polygon><polygon points="321.13 205.68 310.28 210.86 309.14 208.45 320.01 203.33 321.13 205.68" style="fill:#ebebeb"></polygon><polygon points="299.44 216.04 288.59 221.22 287.4 218.71 298.27 213.58 299.44 216.04" style="fill:#ebebeb"></polygon><polygon points="277.75 226.41 266.9 231.59 265.65 228.96 276.53 223.83 277.75 226.41" style="fill:#ebebeb"></polygon><polygon points="256.06 236.77 250.64 239.35 249.15 236.77 254.09 233.37 255.78 235.82 250.85 239.23 249.36 236.65 254.78 234.09 256.06 236.77" style="fill:#ebebeb"></polygon><polygon points="264 226.57 273.91 219.77 275.53 222.11 265.66 228.97 264 226.57" style="fill:#ebebeb"></polygon><polygon points="283.82 212.97 293.73 206.16 295.28 208.41 285.41 215.26 283.82 212.97" style="fill:#ebebeb"></polygon><polygon points="303.64 199.36 313.55 192.56 315.04 194.71 305.16 201.56 303.64 199.36" style="fill:#ebebeb"></polygon><polygon points="323.46 185.76 333.4 178.99 334.76 180.97 324.91 187.86 323.46 185.76" style="fill:#ebebeb"></polygon><polygon points="343.34 172.24 353.29 165.49 354.44 167.16 344.6 174.07 343.34 172.24" style="fill:#ebebeb"></polygon><polygon points="363.23 158.74 373.18 151.99 374.12 153.36 364.28 160.26 363.23 158.74" style="fill:#ebebeb"></polygon><polygon points="383.12 145.24 393.1 138.54 393.77 139.5 383.96 146.46 383.12 145.24" style="fill:#ebebeb"></polygon><polygon points="403.08 131.84 413.06 125.14 413.38 125.61 403.57 132.56 403.08 131.84" style="fill:#ebebeb"></polygon><polygon points="423.06 118.46 428.05 115.14 423.17 118.63 423.06 118.46" style="fill:#ebebeb"></polygon><polygon points="401.92 83.99 397.77 88.33 397.63 88.19 401.92 83.99" style="fill:#ebebeb"></polygon><polygon points="389.46 97.02 381.13 105.68 380.51 105.07 389.06 96.62 389.46 97.02" style="fill:#ebebeb"></polygon><polygon points="372.79 114.34 364.46 123 363.42 121.97 371.97 113.52 372.79 114.34" style="fill:#ebebeb"></polygon><polygon points="356.09 131.63 347.71 140.25 346.4 138.96 354.91 130.46 356.09 131.63" style="fill:#ebebeb"></polygon><polygon points="339.34 148.87 330.96 157.49 329.39 155.94 337.9 147.45 339.34 148.87" style="fill:#ebebeb"></polygon><polygon points="322.59 166.11 314.2 174.72 312.39 172.94 320.89 164.44 322.59 166.11" style="fill:#ebebeb"></polygon><polygon points="305.78 183.3 297.37 191.88 295.47 190.01 303.93 181.47 305.78 183.3" style="fill:#ebebeb"></polygon><polygon points="288.94 200.46 280.53 209.04 278.54 207.08 287 198.54 288.94 200.46" style="fill:#ebebeb"></polygon><polygon points="272.11 217.61 263.69 226.19 261.62 224.15 270.08 215.62 272.11 217.61" style="fill:#ebebeb"></polygon><polygon points="255.27 234.77 251.07 239.05 248.78 237.13 252.26 232.25 254.69 233.97 251.22 238.87 248.93 236.95 253.16 232.69 255.27 234.77" style="fill:#ebebeb"></polygon><polygon points="259.25 222.47 266.24 212.69 268.56 214.34 261.62 224.15 259.25 222.47" style="fill:#ebebeb"></polygon><polygon points="273.22 202.91 280.21 193.13 282.43 194.71 275.5 204.52 273.22 202.91" style="fill:#ebebeb"></polygon><polygon points="287.19 183.34 294.18 173.56 296.31 175.08 289.37 184.89 287.19 183.34" style="fill:#ebebeb"></polygon><polygon points="301.17 163.78 308.19 154.03 310.14 155.42 303.24 165.26 301.17 163.78" style="fill:#ebebeb"></polygon><polygon points="315.22 144.28 322.26 134.54 323.92 135.72 317.03 145.57 315.22 144.28" style="fill:#ebebeb"></polygon><polygon points="329.3 124.79 336.33 115.05 337.69 116.01 330.8 125.86 329.3 124.79" style="fill:#ebebeb"></polygon><polygon points="343.37 105.31 350.45 95.6 351.41 96.27 344.57 106.16 343.37 105.31" style="fill:#ebebeb"></polygon><polygon points="357.54 85.89 364.62 76.17 365.09 76.5 358.25 86.39 357.54 85.89" style="fill:#ebebeb"></polygon><polygon points="371.73 66.48 375.29 61.65 371.9 66.6 371.73 66.48" style="fill:#ebebeb"></polygon><polygon points="340.08 41.32 337.67 46.82 337.49 46.73 340.08 41.32" style="fill:#ebebeb"></polygon><polygon points="332.83 57.82 327.96 68.81 327.18 68.45 332.32 57.58 332.83 57.82" style="fill:#ebebeb"></polygon><polygon points="323.1 79.8 318.23 90.79 316.9 90.18 322.04 79.31 323.1 79.8" style="fill:#ebebeb"></polygon><polygon points="313.31 101.76 308.39 112.72 306.71 111.96 311.8 101.07 313.31 101.76" style="fill:#ebebeb"></polygon><polygon points="303.47 123.69 298.55 134.66 296.54 133.74 301.63 122.85 303.47 123.69" style="fill:#ebebeb"></polygon><polygon points="293.62 145.62 288.69 156.58 286.38 155.52 291.45 144.63 293.62 145.62" style="fill:#ebebeb"></polygon><polygon points="283.71 167.52 278.73 178.46 276.31 177.35 281.34 166.44 283.71 167.52" style="fill:#ebebeb"></polygon><polygon points="273.76 189.4 268.78 200.34 266.25 199.18 271.28 188.27 273.76 189.4" style="fill:#ebebeb"></polygon><polygon points="263.8 211.28 258.82 222.22 256.18 221.01 261.21 210.1 263.8 211.28" style="fill:#ebebeb"></polygon><polygon points="253.85 233.16 251.36 238.62 248.56 237.6 250.16 231.82 253.03 232.61 251.44 238.4 248.64 237.38 251.15 231.93 253.85 233.16" style="fill:#ebebeb"></polygon><polygon points="253.38 220.24 256.6 208.66 259.35 209.42 256.19 221.01 253.38 220.24" style="fill:#ebebeb"></polygon><polygon points="259.82 197.08 263.04 185.5 265.67 186.22 262.51 197.82 259.82 197.08" style="fill:#ebebeb"></polygon><polygon points="266.26 173.92 269.48 162.34 271.99 163.03 268.83 174.63 266.26 173.92" style="fill:#ebebeb"></polygon><polygon points="272.7 150.76 275.96 139.19 278.27 139.83 275.15 151.44 272.7 150.76" style="fill:#ebebeb"></polygon><polygon points="279.24 127.63 282.51 116.06 284.48 116.6 281.37 128.22 279.24 127.63" style="fill:#ebebeb"></polygon><polygon points="285.79 104.5 289.07 92.94 290.68 93.38 287.58 104.99 285.79 104.5" style="fill:#ebebeb"></polygon><polygon points="292.36 81.37 295.69 69.83 296.82 70.14 293.77 81.77 292.36 81.37" style="fill:#ebebeb"></polygon><polygon points="299.03 58.28 302.36 46.73 302.91 46.88 299.87 58.51 299.03 58.28" style="fill:#ebebeb"></polygon><polygon points="305.73 35.19 307.42 29.43 305.92 35.24 305.73 35.19" style="fill:#ebebeb"></polygon></g><g id="freepik--Floor--inject-38"><path d="M42.64,416c132.85-.61,281.87-.62,414.72,0-132.85.61-281.87.61-414.72,0Z" style="fill:#263238"></path></g><g id="freepik--Plants--inject-38"><path d="M410.57,348.6c-3.22-4.46-6.89-9.38-6.47-15.14.4-5.32,2.39-11.16,7.37-13.83,1.43-.76,2.45-1,2.84.8.59,2.76-.69,6.05-1.36,8.69a55.87,55.87,0,0,0-1.77,10.35c-.15,2.46-.06,4.93-.15,7.4,0,.3,0,.61,0,.93,0,.11,0,.23,0,.35l.09.13a.3.3,0,0,1,0,.26.22.22,0,0,1-.05.08A.29.29,0,0,1,410.57,348.6Z" style="fill:#92E3A9"></path><path d="M411,348.62c-2.62-4.06-5.7-8.27-5.13-13.3a22.57,22.57,0,0,1,2-6.76c.45-1,1.77-3.87,3.05-3.89,2.32,0-1.09,9.16-1.28,10.25A23.63,23.63,0,0,0,411,346.87c0,.3,0,.61,0,.93a26.59,26.59,0,0,1-1.9-8.37c-.21-4,1.24-7.26,2.09-11.05.19-.83.92-3.42-.51-3.26-.94.11-2.24,2.93-2.52,3.54a22.14,22.14,0,0,0-1.94,6.4c-.66,5.07,2.33,9.32,4.87,13.48A.22.22,0,0,1,411,348.62Z" style="fill:#fff"></path><path d="M409.47,353l-.6.25h0a.16.16,0,0,1-.15,0,.22.22,0,0,1-.07-.3.24.24,0,0,1,.11-.08l.08,0,.19-.05s0,0,0,0l0-.05c2.48-2.83,5.41-5.25,7.86-8.13s4.49-5.65,7.05-8.21c1.6-1.61,10-9.14,11.64-4.26.71,2.16-1.09,5.17-2.2,6.92a23.29,23.29,0,0,1-5.68,6C422.25,349.11,415.68,350.49,409.47,353Z" style="fill:#92E3A9"></path><path d="M422,346.53a27,27,0,0,0,5.88-4.89c.59-.67,3.41-3.85,2.55-5-.55-.71-2.11.15-2.64.41-2.25,1.13-3.92,3.22-5.67,5a102.94,102.94,0,0,1-11.43,9.84c-.28.14-.58.27-.86.42l-.72.36-.24.12-.19.1a.22.22,0,0,0,.07.3l.55-.27-.4.29h0l.49-.2.12,0,.68-.48A113.42,113.42,0,0,0,422,346.53Zm-10.34,4.91q3.56-2.62,6.83-5.59c1.77-1.58,3.45-3.24,5.1-4.94a24.62,24.62,0,0,1,2.95-2.74c.83-.6,4.05-2.58,3.19.34-.64,2.12-3.45,4.41-5.09,5.72a38.66,38.66,0,0,1-5.86,3.76C416.4,349.23,414,350.32,411.61,351.44Z" style="fill:#fff"></path><path d="M398.59,363.83h0l-.14-.16c-2.58-4.31-6.7-9.61-6.26-14.93.32-3.93,2.66-9.15,6.63-10.63,4.47-1.66,3.33,6.64,3.14,8.77a156.09,156.09,0,0,1-3.1,16.89.49.49,0,0,0,0,.11h0C398.77,364,398.67,363.91,398.59,363.83Z" style="fill:#92E3A9"></path><path d="M398.81,363.89c0-.34,0-.68,0-1q-.16-5.85.2-11.71c.06-1,1.1-8.48-.87-8.19-1.19.19-2,3-2.28,3.88a15.32,15.32,0,0,0-.71,5.07c.13,3.94,2,7.57,3.29,11.27a4.72,4.72,0,0,1,.18.53.41.41,0,0,0,0,.11h0C398.67,363.91,398.77,364,398.81,363.89ZM395.65,354a15.57,15.57,0,0,1,0-5.23c.2-1.15,1-5.29,2.51-5.32.78,0,.68.47.8,1.35a8.47,8.47,0,0,1,.08,1.23c0,1-.09,2-.17,3-.16,1.76-.26,3.51-.33,5.28-.12,2.89-.11,5.77,0,8.66C397.64,360,396.17,357.15,395.65,354Z" style="fill:#fff"></path><path d="M412.29,365.7A29.73,29.73,0,0,1,395,366.91a.16.16,0,0,1-.1-.05.22.22,0,0,1-.06-.26.21.21,0,0,1,.25-.14l.35.07c6.14-3.11,12.29-6.13,18.38-9.36,1.43-.76,10.67-5.43,11-1.87.22,2.19-3.2,4.64-4.68,5.83A30,30,0,0,1,412.29,365.7Z" style="fill:#92E3A9"></path><path d="M418.89,359.09c.38-.46.7-1,0-1.35-1.32-.59-5.6,1.7-6.83,2.27-5,2.37-10.17,4.23-15.39,6.13l-1.32.49-.52,0a.23.23,0,0,0,.07.26l.14,0c.22,0,.46,0,.68,0h0a35.11,35.11,0,0,0,10.82-1.26,33.61,33.61,0,0,0,6.43-2.54C414.88,362.07,417.52,360.77,418.89,359.09ZM396,366.63h-.34l.56-.17A98.78,98.78,0,0,0,408.39,362c2-.9,3.92-1.91,5.95-2.74.85-.34,3.24-1.41,4-1s-.08.93-.52,1.32-.95.7-1.27.92A34.64,34.64,0,0,1,396,366.63Z" style="fill:#fff"></path><path d="M383.23,375.8l-.56-.83,2.17-1.53q4.35-3.12,8.63-6.35c1.63-1.23,3.22-2.48,4.77-3.77l.16-.13.37-.32.41-.35a43.07,43.07,0,0,0,9-10.17c.8-1.3,1.54-2.63,2.25-4l.2-.39a.54.54,0,0,0,0-.11c.08-.13.14-.27.21-.41l.15-.3c2.11-4.21,3.87-8.59,5.74-12.88.53-1.23,1.07-2.46,1.62-3.68a1,1,0,0,1,.1-.21,2.33,2.33,0,0,1,.11-.28c2.39-5.41,4.85-10.81,7.09-16.27.08-.21.38-.05.3.15-1.47,3.66-2.85,7.35-4.25,11-.19.49-.38,1-.56,1.47-.37,1-.74,1.94-1.12,2.91-.75,1.94-1.51,3.87-2.31,5.78a143.32,143.32,0,0,1-7.28,16l-.67,1.13c-.14.24-.28.47-.43.7s-.32.53-.49.8a46.3,46.3,0,0,1-11.27,11.62l-.91.69-.42.32a1.84,1.84,0,0,0-.22.17l-.3.22h0l-.22.16-.79.58c-2.88,2.11-5.8,4.17-8.71,6.22C385.08,374.46,384.16,375.13,383.23,375.8Z" style="fill:#92E3A9"></path><path d="M420.26,314.91c1.54-4.35,5.92-11.52,11.47-10.36a4.3,4.3,0,0,1,3.55,4.53c-.09,2.65-2,5.07-3.62,7-4.34,5.14-9.13,9.84-13.11,15.29a6,6,0,0,1-.43.59c-.08.11-.24,0-.16-.14l.38-.54C418.55,325.87,418.43,320.06,420.26,314.91Z" style="fill:#92E3A9"></path><path d="M418.56,331.41s0-.08.05-.12a44.93,44.93,0,0,1,2.55-4.8,91.75,91.75,0,0,1,6.6-9.18c.91-1.14,5.46-6.56,1.85-7.07-1.51-.22-3.11,1-4.18,1.94a17.19,17.19,0,0,0-4.12,5.3c-2.05,4-2.63,8.47-2.84,12.9,0,.2,0,.4,0,.6l-.08.18a1.34,1.34,0,0,0-.06.12.11.11,0,0,0,0,.08.14.14,0,0,0,.19.12A.13.13,0,0,0,418.56,331.41Zm0-1.31a36.43,36.43,0,0,1,2.15-10.75,19.21,19.21,0,0,1,2.87-5,14.65,14.65,0,0,1,1.77-1.84,10.71,10.71,0,0,1,1.52-1.16c1.19-.74,2.78-1.11,3.36-.5s.41,1.36-.19,2.57a10.75,10.75,0,0,1-.68,1.19,34.14,34.14,0,0,1-2,2.74c-1.18,1.47-2.34,2.95-3.45,4.47-.76,1-1.49,2.09-2.17,3.16a46.25,46.25,0,0,0-3.19,5.77C418.54,330.56,418.56,330.33,418.58,330.1Z" style="fill:#fff"></path><path d="M77.47,340.69c2.72,2.5,5.26,5.18,7.77,7.89,1.43,1.53,2.84,3.08,4.27,4.61,1.58,1.69,3.06,3.58,5.27,4.41h0a1.48,1.48,0,0,1,.28.17v0a.28.28,0,0,1-.34.34l-.15-.06h-.06a9.12,9.12,0,0,1-2-.46,48.13,48.13,0,0,1-5.38-1.6,45.58,45.58,0,0,1-10.23-5.13,38.46,38.46,0,0,1-7.67-6.79c-1.79-2.08-4.48-5.15-5-7.94-.45-2.54,2.82-2,4.34-1.6C72.05,335.59,74.9,338.32,77.47,340.69Z" style="fill:#92E3A9"></path><path d="M69.23,338.83c-.78,1.09,2.17,4.39,3.41,5.86a37,37,0,0,0,6.65,6.16,48.15,48.15,0,0,0,14.61,7c.21.07.42.14.63.19h.06l.15.05a.27.27,0,0,0,.34-.34c-.41-.19-.81-.39-1.21-.61s-.71-.4-1.05-.61c-3.78-2.25-7.07-5.37-10.29-8.36C78.75,344.72,70.27,337.39,69.23,338.83Zm24.14,18.44c.53.29,1.06.56,1.6.81l-1.28-.42a53.1,53.1,0,0,1-12.93-6.15,37.82,37.82,0,0,1-6.21-5.16,35.45,35.45,0,0,1-2.83-3.3c-.36-.49-2.73-3.38-2.11-3.95.44-.39,3.17,1.39,3.23,1.42.55.35,1.08.73,1.61,1.12,1.08.8,2.12,1.65,3.15,2.52,2.21,1.9,4.32,3.92,6.48,5.89A49.9,49.9,0,0,0,93.37,357.27Z" style="fill:#fff"></path><path d="M98,329.45c2.47,4.78,3,10.27,3.12,15.58,0,2.84-.06,5.68-.09,8.51a38.25,38.25,0,0,0,.27,7.61c0,.1,0,.22.07.33a10,10,0,0,0,.68,2,.14.14,0,0,1,0,.13c0,.07.09.13.12.19s0,.11-.07.07l-.17-.16,0,0a.16.16,0,0,1-.16-.09l0-.08-.18-.16c-4.14-3.83-6.47-10.3-8-15.5s-2.3-10.74-.93-16c.35-1.33.93-4.5,2.54-5S97.43,328.43,98,329.45Z" style="fill:#92E3A9"></path><path d="M95.76,332.55c-1.62.27-1.28,4.73-1.23,5.82a56.72,56.72,0,0,0,1.49,9.8,50.85,50.85,0,0,0,5.4,15h0a1.21,1.21,0,0,0,0,.18,1.41,1.41,0,0,0,.18.17l0,.08a.15.15,0,0,0,.17.09,1.83,1.83,0,0,1-.06-.25c-.19-.65-.34-1.32-.48-2,0-.11,0-.23-.07-.33a110.24,110.24,0,0,1-1.45-14.1,52.69,52.69,0,0,0-1.48-9.75C98.11,336.49,97.13,332.32,95.76,332.55Zm1.47,2.36c2.22,5.15,2.16,11.27,2.53,16.77a58.37,58.37,0,0,0,1.54,11A54.29,54.29,0,0,1,96.58,349a70.53,70.53,0,0,1-1.48-8.14,30.51,30.51,0,0,1-.24-4.48,11.55,11.55,0,0,1,.33-2.67C95.75,332.14,96.84,334,97.23,334.91Z" style="fill:#fff"></path><path d="M110.82,370.76a.3.3,0,0,1,0,.29h.11a.08.08,0,0,1,.08.08.07.07,0,0,1-.07.09c-6.39,1-13.5,1.31-19.79-.41a25.53,25.53,0,0,1-7.49-3.37c-1.56-1.05-4.7-3.18-4.88-5.28-.36-4.25,10.88.15,12.57.82,3.09,1.22,6.06,2.7,9.12,4,3.35,1.4,6.79,2.55,10.23,3.7A.25.25,0,0,1,110.82,370.76Z" style="fill:#92E3A9"></path><path d="M110.82,370.76c-.35,0-.69-.06-1-.11a54.33,54.33,0,0,1-16.19-4.39,51.2,51.2,0,0,0-7.92-3c-.68-.16-3.18-.95-2.77.65.21.84,4.32,3.21,5.44,3.74a34.7,34.7,0,0,0,8.07,2.53,56.82,56.82,0,0,0,14.15,1l.41,0s0-.09-.08-.08h-.11A.34.34,0,0,0,110.82,370.76Zm-12-.49a40.06,40.06,0,0,1-8.16-2,27,27,0,0,1-3.07-1.35,18.8,18.8,0,0,1-2.25-1.34c-1.73-1.26-2.09-1.72-1.94-2.05s.46-.32,1.87-.09a13.53,13.53,0,0,1,2.64.77c1.22.46,2.42,1,3.62,1.48,2.39,1,4.78,2.1,7.24,2.95a42.56,42.56,0,0,0,10.94,2.29A66.28,66.28,0,0,1,98.81,370.27Z" style="fill:#fff"></path><path d="M110.15,352.4a16.08,16.08,0,0,1,3.31,6c1.46,4.35,2,8.95,3.12,13.39.17.66.35,1.32.56,2,0,.07.46.79.41.75L117,374h0c-1.73-1.82-6.88-7.41-8.86-11.19a32.92,32.92,0,0,1-3-7.4c-.28-1.23-.8-4,.42-4.95S109.33,351.52,110.15,352.4Z" style="fill:#92E3A9"></path><path d="M107.53,353.47c-1.71.71,1.83,8.24,2.28,9.23a46,46,0,0,0,6.3,10.2c.28.36.57.7.87,1.05s.55.58.57.59-.38-.68-.41-.76-.07-.22-.11-.33c-.16-.55-.31-1.1-.45-1.64-1.12-3-2.2-6-3.38-8.92a42.85,42.85,0,0,0-3-6.17C109.93,356.27,108.28,353.16,107.53,353.47Zm1.41,1.56c3.83,5.49,5.21,12.11,7.74,18.21l.12.29-.31-.4a52.89,52.89,0,0,1-5.35-8.38,49.73,49.73,0,0,1-2.41-5.55,27.16,27.16,0,0,1-1.07-3.15c-.1-.48-.33-1.78,0-1.94S108.68,354.67,108.94,355Z" style="fill:#fff"></path><path d="M77,309.23c6,10.06,3,23,8.29,33.34l0,.05c.16.31.33.63.51.94a.21.21,0,0,1-.16.32.14.14,0,0,1-.15-.09,2.53,2.53,0,0,1-.13-.22c-4.78-4.44-8.65-10.47-11.49-16.3-2.47-5.08-4.1-10.77-3.26-16.44.2-1.4.52-4.19,2.21-4.71S76.23,308,77,309.23Z" style="fill:#92E3A9"></path><path d="M74.9,312.93c-.71.23-.79,1.27-.88,1.84a18.75,18.75,0,0,0-.09,4.3,29.69,29.69,0,0,0,2.19,8.53,60.91,60.91,0,0,0,7.13,13.3c.67.92,1.37,1.81,2.12,2.67.09.1.19.2.28.31a.22.22,0,0,0,.17-.32c-.19-.3-.34-.6-.51-.91l0-.08a36.06,36.06,0,0,1-3-6.28,83,83,0,0,1-2.68-10.54C79.23,324.36,77.33,312.13,74.9,312.93ZM76.49,315c1.23,2.62,1.62,5.62,2.25,8.43s1.24,5.69,1.92,8.52a39.71,39.71,0,0,0,2.17,6.59,32,32,0,0,0,2.72,5.1A45.76,45.76,0,0,1,82.23,339a.14.14,0,0,1,0-.06,79.87,79.87,0,0,1-4.72-9l-.06-.11a37.54,37.54,0,0,1-2.87-8.42,21.12,21.12,0,0,1-.4-4.82c.08-1.84.34-3.31,1-3.33C75.55,313.3,76.13,314.21,76.49,315Z" style="fill:#fff"></path><path d="M77.72,329.87c1.65,2.9,3.37,5.79,5.11,8.66.81,1.36,1.62,2.7,2.44,4l0,.08c.3.49.59,1,.89,1.46,2.66,4.4,5.29,9,8.64,12.93a43.83,43.83,0,0,0,5.92,5.62l.66.52h0l.37.27a1.56,1.56,0,0,0,.2.16c1.87,1.44,3.81,2.79,5.71,4.09,2.65,1.82,5.4,3.45,8.16,5.05l.24.14.38.23.19.11a4.05,4.05,0,0,1,.35.21L119.7,375l-.57.79a62.39,62.39,0,0,1-8.39-4.54l-.17-.11-.78-.5c-.33-.2-.65-.4-1-.62-.77-.51-1.53-1-2.27-1.53a66.94,66.94,0,0,1-12.25-10.14L94,358l-.12-.14-.21-.23-.32-.39c-.19-.23-.37-.46-.55-.7l-.17-.21a102,102,0,0,1-7.47-12c-.43-.74-.84-1.48-1.25-2.22-.23-.42-.46-.83-.68-1.25l-1-1.89a.14.14,0,0,1,0-.06c-1.59-3-3.12-6-4.72-9C77.42,329.86,77.65,329.73,77.72,329.87Z" style="fill:#92E3A9"></path></g><g id="freepik--Gift--inject-38"><polygon points="101.69 201.79 241.56 226.54 398.31 201.28 247.32 182.74 101.69 201.79" style="fill:#92E3A9"></polygon><polygon points="101.69 201.79 241.56 226.54 398.31 201.28 247.32 182.74 101.69 201.79" style="opacity:0.30000000000000004"></polygon><polygon points="119.77 415.01 101.69 201.79 241.56 226.54 245.94 439.87 119.77 415.01" style="fill:#92E3A9"></polygon><polygon points="119.77 415.01 101.69 201.79 241.56 226.54 245.94 439.87 119.77 415.01" style="opacity:0.1"></polygon><polygon points="160.96 423.13 194.14 429.66 186.24 216.75 147.56 209.91 160.96 423.13" style="fill:#455a64"></polygon><polygon points="241.56 226.54 245.94 439.87 387.12 416.01 398.31 201.28 241.56 226.54" style="fill:#92E3A9"></polygon><polygon points="301.82 430.42 340.08 423.96 344.75 209.91 301.53 216.88 301.82 430.42" style="fill:#455a64"></polygon><polygon points="77.42 162.15 223.22 174.53 215.36 122.89 66.51 116.48 77.42 162.15" style="fill:#92E3A9"></polygon><polygon points="77.42 162.15 223.22 174.53 215.36 122.89 66.51 116.48 77.42 162.15" style="opacity:0.2"></polygon><polygon points="125.71 166.25 168.99 169.92 159.25 120.47 115.26 118.55 125.71 166.25" style="fill:#455a64"></polygon><polygon points="397.49 129.58 395.95 80.47 215.36 122.89 223.22 174.53 397.49 129.58" style="fill:#92E3A9"></polygon><polygon points="397.49 129.58 395.95 80.47 215.36 122.89 223.22 174.53 397.49 129.58" style="opacity:0.1"></polygon><polygon points="285.86 158.37 336.32 145.36 333.81 95.07 280.64 107.56 285.86 158.37" style="fill:#455a64"></polygon><polygon points="66.51 116.48 215.36 122.89 395.95 80.47 231.09 86 66.51 116.48" style="fill:#92E3A9"></polygon><polygon points="115.26 118.55 284.04 84.22 320.31 83.01 159.25 120.47 115.26 118.55" style="fill:#455a64"></polygon><polygon points="280.64 107.56 333.81 95.07 175.83 96.23 133.21 104.13 280.64 107.56" style="fill:#455a64"></polygon><path d="M166,102.47s-35.23,2.47-50.28,23.5S99.41,168.92,93.9,175.83s-30.31,14-30.31,14l36.22,38.15s15.65-.1,24.49-23.45,6.37-50.7,18-67.19,33.2-25.81,33.2-25.81Z" style="fill:#455a64"></path><path d="M135.89,151.28a96.35,96.35,0,0,1-17.12-29v0C135.06,104.65,166,102.47,166,102.47l9.49,9s-21.56,9.32-33.19,25.81A47.2,47.2,0,0,0,135.89,151.28Z" style="fill:#37474f"></path><path d="M256.26,95.49s30.43-14.9,54.7-6,37.75,23.41,46.2,26S390.07,110,390.07,110l-8.47,51.92s-13,8.73-33.44-5.59-33.8-38.32-52.7-45.4-41.91-2.88-41.91-2.88Z" style="fill:#455a64"></path><path d="M329.2,139.34c-11.25-11.73-21.29-23.74-33.73-28.4-18.9-7.08-41.92-2.87-41.92-2.87l2.71-12.58s30.43-14.89,54.7-6a113.88,113.88,0,0,1,14.1,6.31C328,107.35,330.79,123.42,329.2,139.34Z" style="fill:#37474f"></path><path d="M329.2,139.34c8.13,7.92,16.42,16,26.47,21.45-10.38-4.85-18.83-13.07-26.47-21.45Z" style="fill:#263238"></path><path d="M335.28,101.77c7.09,3.9,13.2,9.46,20.48,13,4.49,1.85,9.62,1.1,14.3.39-4.68,1-9.89,1.9-14.48,0-7.32-3.45-13.48-9.15-20.3-13.42Z" style="fill:#263238"></path><path d="M138.69,118.45c-.43-9.36,41.76-26.49,71.65-20.08,0,0-18.57,23.38-39.89,27.56S138.88,122.52,138.69,118.45Z" style="fill:#263238"></path><path d="M210.34,98.38l.47,3.12.55,3.64.21,1.35c-12,34.31-40.41,52.49-42.74,52.83s-16.16-7.93-22.92-17.34-8-26.47-7.22-23.52,10.61,9.59,27.05,6.46S207.27,103.24,210.34,98.38Z" style="fill:#455a64"></path><path d="M210.81,101.5l.55,3.64A50.54,50.54,0,0,1,199.43,122a.15.15,0,0,1-.22-.21c2.33-3.34,4.49-6.74,6.52-10.22-6,6.4-13.18,11.82-20.15,16.69-.3.21-.67-.23-.36-.45C195.3,120.46,202.76,110.82,210.81,101.5Z" style="fill:#263238"></path><path d="M146.73,46.46c8.36-7.23,46.59,16.13,62.44,48.5,0,0-26.91,3.51-46.34-13.21S143.1,49.6,146.73,46.46Z" style="fill:#263238"></path><path d="M209.17,95l1.67,10.73c-40.57,13.87-78.14.83-80.15-1.08s-4.44-20.76-.64-33.88S148.71,44,146.59,46.87s-1.16,16.83,13.73,29.79S202.41,95.67,209.17,95Z" style="fill:#455a64"></path><path d="M209.78,98.88l.39,2.53c-13.14,1.92-27.15-.2-39.56-4.17-.37-.12-.21-.76.17-.67a116.13,116.13,0,0,0,21.64,3A130,130,0,0,0,209.78,98.88Z" style="fill:#263238"></path><path d="M134.65,60.87a63.63,63.63,0,0,0-5.33,12.77c.47-4.64,2.66-9,5.33-12.77Z" style="fill:#263238"></path><path d="M301.27,93.14c-2.44-9-47.85-12.54-74.36,2.65,0,0,24.79,16.63,46.37,14.12S302.32,97.07,301.27,93.14Z" style="fill:#263238"></path><path d="M301.54,117.75c-3.57,11-14.23,23.1-16.56,23.49s-34.88-8.31-56.78-37.34l-.29-1.78-.68-4.31-.32-2c4.4,3.69,34,13.75,50.56,11.73s23.9-11.34,23.8-14.39S305.11,106.74,301.54,117.75Z" style="fill:#455a64"></path><path d="M261.8,121.68a88.14,88.14,0,0,1-23.37-11.51,114.31,114.31,0,0,1-10.52-8l-.68-4.31a105.44,105.44,0,0,0,12,10.17,129.55,129.55,0,0,0,23,12.65A.57.57,0,0,1,261.8,121.68Z" style="fill:#263238"></path><path d="M271.85,27C261.69,22.69,232.24,56.53,227,92.19c0,0,26.71-4.84,40.13-26.67S276.27,28.92,271.85,27Z" style="fill:#263238"></path><path d="M304.68,77.51c-1.34,2.44-33.16,26.28-76,25.4L227,92.19c6.65-1.38,30.72-15.43,41-32.29s6.93-30.43,4-32.56S287.39,33.7,295,45,306,75.07,304.68,77.51Z" style="fill:#455a64"></path><path d="M267.22,75.07C263,82.19,256.69,86.72,249.4,90.5A95,95,0,0,1,233,97.15a97.07,97.07,0,0,0,10.82-1.74c6.52-1.56,12.28-4.23,18.27-7.11.42-.19.67.39.37.65-8.53,7.51-22.67,10.16-34.3,10.49L227.58,96a130.6,130.6,0,0,0,18.21-6.27c7.42-3.4,16.18-8.07,20.88-15C266.88,74.45,267.4,74.76,267.22,75.07Z" style="fill:#263238"></path><path d="M233.71,100.5c.28,2.19.83,10.3-2,12s-8.37.66-9.77.87h0c-1.39.23-6.36,2.93-9.57,2.13s-5.15-8.67-5.55-10.85-1.53-10.7,1.12-12.12,9.52-.6,10.64-.78,7.41-3,10.38-2.49S233.43,98.31,233.71,100.5Z" style="fill:#455a64"></path><path d="M284.09,141.18a5.92,5.92,0,0,0,1-.13,13.13,13.13,0,0,0,2.37-2c7-6.86,11.72-15.51,14.92-24.7a35.09,35.09,0,0,1-14.29,25.47,10.82,10.82,0,0,1-2.9,1.51,4.08,4.08,0,0,1-1.1-.18Z" style="fill:#263238"></path><path d="M166.8,158.81c-10.88-4-21.75-12.67-24.75-24.27,5.67,10.43,15.12,17.71,24.75,24.27Z" style="fill:#263238"></path></g><g id="freepik--Tag--inject-38"><path d="M319.55,97.16l-.94,0c-1.26,0-30.78.27-35.95-10.67-1.65-3.47-1.37-6.35.79-8.13,4.17-3.43,13.88-1.75,21.2,3.67A77.31,77.31,0,0,1,319,96.4Zm-31.26-19.5a7.87,7.87,0,0,0-4.23,1.48c-1.8,1.48-2,3.89-.53,7,4.41,9.3,28.85,10.05,34.08,10.1a76,76,0,0,0-13.54-13.37C298.7,78.85,292.59,77.27,288.29,77.66Z" style="fill:#263238"></path><path d="M445,84.31a3.14,3.14,0,0,0-2.55-3.63L340.55,62.89a3.18,3.18,0,0,0-2.65.78L315.09,84.38l-.33.29-.58.55-.27.24-8.63,7.84a3.12,3.12,0,0,0-.67,3.79l5.53,10.4.5.94L325.28,136a3.15,3.15,0,0,0,2.24,1.64L429.45,155.4a3.14,3.14,0,0,0,3.65-2.55Z" style="fill:#fff"></path><path d="M445,84.31a3.13,3.13,0,0,0-.87-2.74,3.09,3.09,0,0,0-1.27-.77c-.48-.14-1-.19-1.47-.29l-5.92-1-11.84-2L400,73.39l-47.35-8.14-11.84-2a2.94,2.94,0,0,0-2.6.58l-2.21,2-4.44,4-17.74,16.2-4.44,4-2.22,2-1.11,1-.54.51a2.58,2.58,0,0,0-.43.5,2.72,2.72,0,0,0-.22,2.51c.4.82.92,1.75,1.38,2.62l2.83,5.29,11.33,21.19,2.81,5.31,1.4,2.66.7,1.32.35.67a3.7,3.7,0,0,0,.35.55,2.74,2.74,0,0,0,1,.75,2.47,2.47,0,0,0,.62.18l.74.13,2.95.52,5.92,1,23.66,4.19,47.31,8.38,11.83,2.09,5.91,1,3,.52a4.4,4.4,0,0,0,1.43.12,2.94,2.94,0,0,0,1.31-.49,3,3,0,0,0,.94-1,4.17,4.17,0,0,0,.4-1.38l.52-3,1.05-5.91,2.09-11.83Zm0,0-8.13,47.36-2,11.84-1,5.92-.51,3a4.28,4.28,0,0,1-.42,1.49,3.47,3.47,0,0,1-1.05,1.17,3.4,3.4,0,0,1-1.47.57,5.28,5.28,0,0,1-1.55-.12l-3-.51L420,154l-11.83-2-47.36-8.14-23.68-4.07-5.92-1-3-.51-.74-.13a3.52,3.52,0,0,1-.81-.23,3.63,3.63,0,0,1-1.38-1,3.59,3.59,0,0,1-.46-.71l-.36-.66-.7-1.32-1.42-2.65-2.83-5.3L308.31,105l-2.8-5.31c-.47-.91-.94-1.73-1.41-2.7a3.54,3.54,0,0,1,.31-3.24,3.44,3.44,0,0,1,.55-.65l.56-.51,1.12-1,2.23-2,4.45-4L331.14,69.4l4.46-4,2.24-2a3.55,3.55,0,0,1,3.05-.68l11.83,2.1L400,73.15l23.66,4.19,11.83,2.1,5.91,1c.49.1,1,.15,1.48.3A3.14,3.14,0,0,1,445,84.31Z" style="fill:#ebebeb"></path><path d="M320.3,93.83a4.07,4.07,0,0,1,1.1,0s.06,0,.1,0h0a4.16,4.16,0,1,1-1.43,8.19l-.09,0a3.69,3.69,0,0,1-.74-.21,2.17,2.17,0,0,1-.41-.19,4.16,4.16,0,0,1,1.46-7.79Z" style="fill:#fff"></path><path d="M320.3,93.83a4.5,4.5,0,0,1,1.1,0h0l.11,0h0a4.51,4.51,0,0,1,2.78,1.65,4.39,4.39,0,0,1-.86,6.22,4.44,4.44,0,0,1-3.44.79h0l-.43-.12-.46-.15h0a4.29,4.29,0,0,1-2.18-2,4.4,4.4,0,0,1,3.38-6.4Zm0,0a4,4,0,0,0-2.39,1.22,3.92,3.92,0,0,0-.4,4.83,3.93,3.93,0,0,0,1.89,1.5h0l.37.09.39.11h0a3.91,3.91,0,0,0,2.76-.6,3.9,3.9,0,0,0,1.17-5.34,3.86,3.86,0,0,0-2.58-1.76h0s-.08,0-.1,0h0A4.42,4.42,0,0,0,320.3,93.83Z" style="fill:#ebebeb"></path><path d="M436.82,84.08,343.06,67.72a3.22,3.22,0,0,0-2.66.73L318.08,87.81l-.72.62-6.73,5.85A2.93,2.93,0,0,0,310,98l19.26,34.39a3.22,3.22,0,0,0,2.26,1.58l93.76,16.36a3.13,3.13,0,0,0,3.65-2.46l10.5-60.21A3.12,3.12,0,0,0,436.82,84.08Zm2.06,3.44-10.5,60.22a2.56,2.56,0,0,1-3,2L331.6,133.38a2.68,2.68,0,0,1-1.87-1.3L310.47,97.69a2.42,2.42,0,0,1-.28-1.59,2.38,2.38,0,0,1,.8-1.41l6.71-5.82.74-.64,22.32-19.36a2.64,2.64,0,0,1,2.2-.6l93.76,16.36A2.55,2.55,0,0,1,438.88,87.52Z" style="fill:#263238"></path><path d="M332.57,108a2.1,2.1,0,0,1,2.84.19,10.36,10.36,0,0,0,6.29,4,9.23,9.23,0,0,0,5.17-.59,4.5,4.5,0,0,0,2.59-2.37,2,2,0,0,0,.09-1.22,2.88,2.88,0,0,0-.79-1.29,12.84,12.84,0,0,0-4.6-2.64h-.08a19.09,19.09,0,0,1-4.35-2.24,6.46,6.46,0,0,1-2.54-3.46,5.42,5.42,0,0,1,.19-3.12,8.81,8.81,0,0,1,5-4.86,12.9,12.9,0,0,1,7.22-.89c3.66.61,5.7,2.78,7.21,4.31a1.85,1.85,0,0,1-.37,2.7,2.07,2.07,0,0,1-2.85.09c-1.51-1.53-3-3-5.29-3.31a8.15,8.15,0,0,0-4.72.5,4,4,0,0,0-2.27,2.1,1.59,1.59,0,0,0,0,1.07,2.48,2.48,0,0,0,.65,1.11,11.39,11.39,0,0,0,4.2,2.41h.08a18.51,18.51,0,0,1,4.72,2.42,7,7,0,0,1,2.68,3.64,5.61,5.61,0,0,1-.23,3.32,9.43,9.43,0,0,1-5.21,5.18,14.12,14.12,0,0,1-7.75.92,13.58,13.58,0,0,1-8.44-5.31A2,2,0,0,1,332.57,108Z" style="fill:#92E3A9"></path><path d="M358.1,117.46a2.69,2.69,0,0,1-2.49,1,2.18,2.18,0,0,1-.72-.24,1.94,1.94,0,0,1-.27-2.92l16.43-20.83a2.64,2.64,0,0,1,2.52-1,1.77,1.77,0,0,1,1.6,1.7l.77,23.67a2.6,2.6,0,0,1-2.21,2.51,2.38,2.38,0,0,1-.8,0,1.75,1.75,0,0,1-1.52-1.69l-.18-5.18-9.5-1.57Zm13-7.42-.29-8.64-6,7.61Z" style="fill:#92E3A9"></path><path d="M380.14,120.21,388,98a2.65,2.65,0,0,1,2.88-1.72,1.75,1.75,0,0,1,1.4,2.43l-7.09,20.17,10.54,1.74a1.79,1.79,0,0,1,1.44,2.44,2.77,2.77,0,0,1-2.93,1.76l-12.61-2.09s0,0,0,0a0,0,0,0,1,0,0A1.77,1.77,0,0,1,380.14,120.21Z" style="fill:#92E3A9"></path><path d="M400.88,123.84l7.84-22.29a2.68,2.68,0,0,1,2.88-1.73h.08l12.6,2.08a1.78,1.78,0,0,1,1.44,2.43,2.75,2.75,0,0,1-2.89,1.76l-10.54-1.74-2.47,6.95,9.11,1.51a1.74,1.74,0,0,1,1.39,2.42,2.64,2.64,0,0,1-2.88,1.73l-9.07-1.5-2.46,7,10.54,1.74a1.8,1.8,0,0,1,1.43,2.47,2.76,2.76,0,0,1-2.88,1.73l-12.65-2.09h0A1.78,1.78,0,0,1,400.88,123.84Z" style="fill:#92E3A9"></path><path d="M319.55,97.16l-.94,0h-2.06a108.83,108.83,0,0,1-11.8-.84c-.15,0-.28,0-.43-.06l-.41,0a2.91,2.91,0,0,1,0-1l.38,0,.42,0a114.2,114.2,0,0,0,12.23.9.48.48,0,0,1,.12,0,.65.65,0,0,1,.14,0h.44c-.09-.1-.18-.22-.28-.35a3.76,3.76,0,0,1,.58-.81h0c.68.85,1.05,1.35,1.07,1.37Z" style="fill:#263238"></path></g><g id="freepik--Text--inject-38"><path d="M120.5,404.56a16.62,16.62,0,0,1-16.75-16.84V323c-.48.08-1,.14-1.46.18s-1,.07-1.52.07A17.22,17.22,0,0,1,84.13,303a18.43,18.43,0,0,1,7.85-12l19.49-13.27.26-.2,1.43-1.56,1.26-.11,1-.56,1-.09a8.42,8.42,0,0,1,.93-.28,11.91,11.91,0,0,1,2.78-.53l5.56-.49,1,.88.47.12,1.78-.15,2,1.84.33.14.58.53a9.8,9.8,0,0,1,2.29,1.94c.22.23.46.49.71.79l1.1,1,1.45,2.78,1.22,1.12v1.45l.48.44v99.3a18.61,18.61,0,0,1-17,18.33C121.56,404.53,121,404.56,120.5,404.56Z" style="fill:#263238"></path><path d="M156.59,401.4a16.51,16.51,0,0,1-12.14-5.08c-6.52-6.73-6.31-17.51.53-24.63l.15-.15,47.65-47.31a13.4,13.4,0,0,0,4.18-9.86,10.51,10.51,0,0,0-2.9-7.52,9.67,9.67,0,0,0-7.19-2.8c-.39,0-.79,0-1.19.06a14.41,14.41,0,0,0-8.67,4.08l-4.95,4.91a18.13,18.13,0,0,1-12.83,5.42,16.88,16.88,0,0,1-12.06-5l-.16-.17c-6.5-6.9-6.14-17.78.83-24.75l5-4.93a50,50,0,0,1,31.34-14.78c1.35-.12,2.72-.18,4.08-.18a43.75,43.75,0,0,1,31.5,12.91c8.08,8,12.53,19.06,12.53,31.21a51.12,51.12,0,0,1-15.3,36L203.66,362l10.28-.9c.52-.05,1-.07,1.56-.07a16.7,16.7,0,0,1,16.77,17,18.52,18.52,0,0,1-16.81,18.32l-57.31,5C157.63,401.38,157.1,401.4,156.59,401.4Z" style="fill:#263238"></path><path d="M259.36,393.53a19.4,19.4,0,0,1-19.58-19.64,22,22,0,0,1,19.88-21.8c.59,0,1.2-.08,1.79-.08a19.56,19.56,0,0,1,19.76,19.78,22,22,0,0,1-20,21.66C260.57,393.5,260,393.53,259.36,393.53Z" style="fill:#263238"></path><path d="M298.39,389a16.61,16.61,0,0,1-16.75-16.83V307.4a14.05,14.05,0,0,1-1.47.19c-.5,0-1,.07-1.51.07A17.22,17.22,0,0,1,262,287.48a18.49,18.49,0,0,1,7.86-12l19.49-13.27.28-.2,1.43-1.55,1.23-.11,1-.57,1-.08c.28-.1.57-.19.88-.27a12.31,12.31,0,0,1,2.8-.54l5.57-.49,1,.87.51.13,1.75-.15,2,1.83.33.13.58.54a9.56,9.56,0,0,1,2.29,1.94,10.16,10.16,0,0,1,.72.8l1.1,1,1.44,2.76,1.23,1.12v1.44l.48.44V370.6a18.61,18.61,0,0,1-17,18.32C299.45,389,298.91,389,298.39,389Z" style="fill:#263238"></path><path d="M334.47,385.84a16.48,16.48,0,0,1-12.13-5.08c-6.52-6.73-6.31-17.51.53-24.63l47.8-47.46a13.42,13.42,0,0,0,4.18-9.86,10.55,10.55,0,0,0-2.9-7.52,9.65,9.65,0,0,0-7.19-2.8q-.58,0-1.2.06a14.44,14.44,0,0,0-8.67,4.08l-4.95,4.9A18.08,18.08,0,0,1,337.12,303a16.83,16.83,0,0,1-12.06-5l-.16-.16c-6.51-6.91-6.14-17.78.83-24.75l5-4.93A50.1,50.1,0,0,1,362,253.3c1.36-.12,2.73-.18,4.08-.18A43.77,43.77,0,0,1,397.63,266c8.08,8,12.53,19.06,12.53,31.2a51.12,51.12,0,0,1-15.3,36l-13.31,13.21,10.28-.9c.51,0,1-.06,1.55-.06a16.7,16.7,0,0,1,16.78,17,18.53,18.53,0,0,1-16.81,18.32l-57.31,5C335.52,385.82,335,385.84,334.47,385.84Z" style="fill:#263238"></path><path d="M130.34,291.18v95a10,10,0,0,1-9,9.64,7.88,7.88,0,0,1-8.86-8.08v-79.2L106,312.79a8.73,8.73,0,0,1-4.51,1.68A7.79,7.79,0,0,1,94,310.62c-2.74-3.78-1.29-9.54,2.9-12.32l19.8-13.49c.16-.17.48-.2.64-.38.33,0,.49-.36.81-.55.32,0,.64-.22,1-.25a1,1,0,0,1,.64-.21,2.86,2.86,0,0,1,1.13-.26l.48,0,.16,0,1.13-.1c.16.15.48.12.64.11a1.68,1.68,0,0,1,1,.23c.16,0,.48,0,.64.11.48.28.64.43,1,.4a2,2,0,0,0,.64.43c.16.14.48.27.64.42.33.13.49.44.65.59a2,2,0,0,1,.48.6l.65.59.16.31c0,.16.16.3.16.47.16.3.32.45.32.77.16.31.16.63.32.78a6.68,6.68,0,0,0,.16.79c0,.48,0,.8.32,1.1Z" style="fill:#263238"></path><path d="M223.55,378a9.7,9.7,0,0,1-8.85,9.63l-57,5h-.16l-.16,0a8,8,0,0,1-6.6-2.32c-3.38-3.41-3.06-8.91.48-12.6l47.65-47.31a22.07,22.07,0,0,0,6.76-16.05,19.18,19.18,0,0,0-5.31-13.54,18.8,18.8,0,0,0-15.45-5.41,23.2,23.2,0,0,0-14,6.54l-5,4.94c-3.7,3.71-9.18,3.86-12.56.46-3.22-3.42-3.06-8.91.65-12.62l5-4.94a41.66,41.66,0,0,1,25.92-12.25,35.61,35.61,0,0,1,28.65,10.21c6.76,6.66,10,15.87,10,25.05a42.4,42.4,0,0,1-12.71,29.76l-30.43,30.19,34.29-3A8,8,0,0,1,223.55,378Z" style="fill:#263238"></path><path d="M260.42,360.77a11,11,0,0,1,12.07,11,13.39,13.39,0,0,1-12.07,13,10.72,10.72,0,0,1-11.92-10.87A13.4,13.4,0,0,1,260.42,360.77Z" style="fill:#263238"></path><path d="M308.23,275.62v95a10,10,0,0,1-9,9.64,7.87,7.87,0,0,1-8.85-8.08V293l-6.44,4.26a8.56,8.56,0,0,1-4.51,1.68,7.77,7.77,0,0,1-7.56-3.84c-2.74-3.79-1.29-9.55,2.9-12.33l19.8-13.48c.16-.18.48-.2.64-.38.32,0,.48-.36.81-.55.32,0,.64-.22,1-.25a1.11,1.11,0,0,1,.65-.22,2.84,2.84,0,0,1,1.12-.25l.48-.05h.17l1.12-.1c.16.15.49.12.65.11a1.56,1.56,0,0,1,1,.23c.16,0,.49,0,.65.11.48.28.64.42,1,.4a2.08,2.08,0,0,0,.65.42c.16.15.48.28.64.43.32.13.48.44.64.59a1.73,1.73,0,0,1,.49.6l.64.59.16.3c0,.16.16.31.16.47.16.31.33.46.33.78.16.31.16.63.32.77a6.5,6.5,0,0,0,.16.8c0,.48,0,.8.32,1.1Z" style="fill:#263238"></path><path d="M401.44,362.44a9.71,9.71,0,0,1-8.86,9.63l-57,5h-.33a8,8,0,0,1-6.6-2.32c-3.38-3.4-3.05-8.91.49-12.6l47.65-47.31a22.05,22.05,0,0,0,6.76-16,19.17,19.17,0,0,0-5.31-13.54,18.82,18.82,0,0,0-15.46-5.41,23,23,0,0,0-14,6.54l-5,4.94c-3.71,3.71-9.18,3.86-12.56.45-3.22-3.42-3.06-8.9.64-12.61l5-4.94A41.61,41.61,0,0,1,362.8,262a35.6,35.6,0,0,1,28.66,10.21c6.76,6.65,10,15.87,10,25A42.43,42.43,0,0,1,388.72,327L358.29,357.2l34.29-3A8,8,0,0,1,401.44,362.44Z" style="fill:#263238"></path><path d="M130.34,291.18v95a10,10,0,0,1-9,9.64,7.88,7.88,0,0,1-8.86-8.08v-79.2L106,312.79a8.73,8.73,0,0,1-4.51,1.68A7.79,7.79,0,0,1,94,310.62c-2.74-3.78-1.29-9.54,2.9-12.32l19.8-13.49c.16-.17.48-.2.64-.38.33,0,.49-.36.81-.55.32,0,.64-.22,1-.25a1,1,0,0,1,.64-.21,2.86,2.86,0,0,1,1.13-.26l.48,0,.16,0,1.13-.1c.16.15.48.12.64.11a1.68,1.68,0,0,1,1,.23c.16,0,.48,0,.64.11.48.28.64.43,1,.4a2,2,0,0,0,.64.43c.16.14.48.27.64.42.33.13.49.44.65.59a2,2,0,0,1,.48.6l.65.59.16.31c0,.16.16.3.16.47.16.3.32.45.32.77.16.31.16.63.32.78a6.68,6.68,0,0,0,.16.79c0,.48,0,.8.32,1.1Z" style="fill:#fff"></path><path d="M223.55,378a9.7,9.7,0,0,1-8.85,9.63l-57,5h-.16l-.16,0a8,8,0,0,1-6.6-2.32c-3.38-3.41-3.06-8.91.48-12.6l47.65-47.31a22.07,22.07,0,0,0,6.76-16.05,19.18,19.18,0,0,0-5.31-13.54,18.8,18.8,0,0,0-15.45-5.41,23.2,23.2,0,0,0-14,6.54l-5,4.94c-3.7,3.71-9.18,3.86-12.56.46-3.22-3.42-3.06-8.91.65-12.62l5-4.94a41.66,41.66,0,0,1,25.92-12.25,35.61,35.61,0,0,1,28.65,10.21c6.76,6.66,10,15.87,10,25.05a42.4,42.4,0,0,1-12.71,29.76l-30.43,30.19,34.29-3A8,8,0,0,1,223.55,378Z" style="fill:#fff"></path><path d="M260.42,360.77a11,11,0,0,1,12.07,11,13.39,13.39,0,0,1-12.07,13,10.72,10.72,0,0,1-11.92-10.87A13.4,13.4,0,0,1,260.42,360.77Z" style="fill:#fff"></path><path d="M308.23,275.62v95a10,10,0,0,1-9,9.64,7.87,7.87,0,0,1-8.85-8.08V293l-6.44,4.26a8.56,8.56,0,0,1-4.51,1.68,7.77,7.77,0,0,1-7.56-3.84c-2.74-3.79-1.29-9.55,2.9-12.33l19.8-13.48c.16-.18.48-.2.64-.38.32,0,.48-.36.81-.55.32,0,.64-.22,1-.25a1.11,1.11,0,0,1,.65-.22,2.84,2.84,0,0,1,1.12-.25l.48-.05h.17l1.12-.1c.16.15.49.12.65.11a1.56,1.56,0,0,1,1,.23c.16,0,.49,0,.65.11.48.28.64.42,1,.4a2.08,2.08,0,0,0,.65.42c.16.15.48.28.64.43.32.13.48.44.64.59a1.73,1.73,0,0,1,.49.6l.64.59.16.3c0,.16.16.31.16.47.16.31.33.46.33.78.16.31.16.63.32.77a6.5,6.5,0,0,0,.16.8c0,.48,0,.8.32,1.1Z" style="fill:#fff"></path><path d="M401.44,362.44a9.71,9.71,0,0,1-8.86,9.63l-57,5h-.33a8,8,0,0,1-6.6-2.32c-3.38-3.4-3.05-8.91.49-12.6l47.65-47.31a22.05,22.05,0,0,0,6.76-16,19.17,19.17,0,0,0-5.31-13.54,18.82,18.82,0,0,0-15.46-5.41,23,23,0,0,0-14,6.54l-5,4.94c-3.71,3.71-9.18,3.86-12.56.45-3.22-3.42-3.06-8.9.64-12.61l5-4.94A41.61,41.61,0,0,1,362.8,262a35.6,35.6,0,0,1,28.66,10.21c6.76,6.65,10,15.87,10,25A42.43,42.43,0,0,1,388.72,327L358.29,357.2l34.29-3A8,8,0,0,1,401.44,362.44Z" style="fill:#fff"></path><polygon points="396.57 441.16 427.74 462.07 422.64 406.19 395.88 382.01 396.57 441.16" style="fill:#263238"></polygon><polygon points="396.57 441.17 441.66 423.58 441.41 367.88 395.88 382.01 396.57 441.17" style="fill:#37474f"></polygon><polygon points="103.17 383.83 72 362.92 77.1 415.8 103.18 440.16 103.17 383.83" style="fill:#263238"></polygon><polygon points="103.17 383.83 58.07 401.41 58.92 457.06 103.18 440.15 103.17 383.83" style="fill:#37474f"></polygon><polygon points="58.07 401.41 441.93 367.83 441.67 423.58 58.92 457.06 58.07 401.41" style="fill:#263238"></polygon><path d="M99,432.86a2.23,2.23,0,0,1,3-.56c1.84,1.34,5,2.82,8,2.52a9.84,9.84,0,0,0,5.21-2,4.19,4.19,0,0,0,1.8-3.16,2.25,2.25,0,0,0-.38-1.31,3.44,3.44,0,0,0-1.25-1.14,15.57,15.57,0,0,0-5.72-1.46h-.08a21.15,21.15,0,0,1-5.38-1.16,7.89,7.89,0,0,1-3.88-2.91,6.05,6.05,0,0,1-1-3.34,8.54,8.54,0,0,1,3.34-6.38,13.37,13.37,0,0,1,7.22-2.85c4-.35,7,1.36,9.09,2.55a2.06,2.06,0,0,1,.58,2.91,2.21,2.21,0,0,1-3,.88c-2.13-1.23-4.17-2.3-6.71-2.08a8.73,8.73,0,0,0-4.68,1.83,3.69,3.69,0,0,0-1.58,2.76,1.91,1.91,0,0,0,.29,1.15,3.58,3.58,0,0,0,1.13,1,13.42,13.42,0,0,0,5.21,1.37h.08a23.3,23.3,0,0,1,5.76,1.24,8.64,8.64,0,0,1,4.17,3.1,6.31,6.31,0,0,1,1,3.46,8.94,8.94,0,0,1-3.58,6.78,14.18,14.18,0,0,1-7.72,3.05,16.66,16.66,0,0,1-10.68-3.23A2.17,2.17,0,0,1,99,432.86Z" style="fill:#fff"></path><path d="M127.77,435.31V410.7a2.51,2.51,0,0,1,2.3-2.5,2.07,2.07,0,0,1,2.33,2.09v10l10.81-.94v-10a2.51,2.51,0,0,1,2.29-2.5,2.08,2.08,0,0,1,2.34,2.09v24.61a2.56,2.56,0,0,1-2.34,2.5,2,2,0,0,1-2.29-2.09V424l-10.81.94v10a2.55,2.55,0,0,1-2.33,2.5A2,2,0,0,1,127.77,435.31Z" style="fill:#fff"></path><path d="M179.14,407.54a14,14,0,0,1,4.21,10.18,16.56,16.56,0,0,1-4.21,10.92,15.08,15.08,0,0,1-10,5.34A12.93,12.93,0,0,1,159,430.41a13.89,13.89,0,0,1-4.13-10.19A16.59,16.59,0,0,1,159,409.3a15.37,15.37,0,0,1,10.22-5.36A12.41,12.41,0,0,1,179.14,407.54Zm-.54,10.6a9.9,9.9,0,0,0-2.84-7.05,8.23,8.23,0,0,0-6.59-2.39,10,10,0,0,0-6.76,3.56,11.53,11.53,0,0,0-2.84,7.54,9.57,9.57,0,0,0,2.84,7,8.37,8.37,0,0,0,6.76,2.41,10,10,0,0,0,6.59-3.57A11.6,11.6,0,0,0,178.6,418.14Z" style="fill:#fff"></path><path d="M201.35,419.82l-5.13.45v9.05a2.59,2.59,0,0,1-2.34,2.5,2.08,2.08,0,0,1-2.29-2.09V405.11a2.54,2.54,0,0,1,2.29-2.49h.05l7.42-.65a8.08,8.08,0,0,1,9,8.19A10,10,0,0,1,201.35,419.82Zm-5.13-4.18,5.13-.45a4.81,4.81,0,0,0,4.34-4.64,3.91,3.91,0,0,0-4.34-4l-5.13.45Z" style="fill:#fff"></path><path d="M225.68,417.69l-5.13.45v9.05a2.58,2.58,0,0,1-2.33,2.5,2.09,2.09,0,0,1-2.3-2.09V403a2.55,2.55,0,0,1,2.3-2.49h0l7.42-.65a8.08,8.08,0,0,1,9,8.19A10,10,0,0,1,225.68,417.69Zm-5.13-4.18,5.13-.45a4.81,4.81,0,0,0,4.34-4.63,3.92,3.92,0,0,0-4.34-4l-5.13.45Z" style="fill:#fff"></path><path d="M240.55,400.83a2.53,2.53,0,0,1,2.29-2.5,2.1,2.1,0,0,1,2.34,2.1V425a2.58,2.58,0,0,1-2.34,2.49,2,2,0,0,1-2.29-2.09Z" style="fill:#fff"></path><path d="M257.58,424a2.57,2.57,0,0,1-2.26,2.49,2.06,2.06,0,0,1-2.29-2.09V400.07a2.49,2.49,0,0,1,.91-2,2.26,2.26,0,0,1,3.18.22l13.47,17.47V398.58a2.53,2.53,0,0,1,2.25-2.45,2.08,2.08,0,0,1,2.3,2.05v24.24a2.58,2.58,0,0,1-2.3,2.49,2,2,0,0,1-1.71-.69,1.12,1.12,0,0,1-.21-.23l-13.34-17.35Z" style="fill:#fff"></path><path d="M281.79,409.15c0-8.38,6.92-15.66,15.39-16.41a14.39,14.39,0,0,1,9.51,2.43,2.34,2.34,0,0,1,.46,3.34,2.51,2.51,0,0,1-3.38.67,10.1,10.1,0,0,0-6.59-1.68,11.4,11.4,0,0,0-7.51,3.7,10.91,10.91,0,0,0-3.13,7.54,9.05,9.05,0,0,0,3.13,6.9,9.58,9.58,0,0,0,7.51,2.39,12.41,12.41,0,0,0,5.71-2.09v-5.71l-6,.52a2.17,2.17,0,0,1-2.38-2.17,2.62,2.62,0,0,1,2.38-2.55l8.22-.72h.08a2.12,2.12,0,0,1,2.42,2.12v9.22a3.84,3.84,0,0,1-.13.72c0,.09,0,.13-.08.22v0a2.28,2.28,0,0,1-.79,1.07,16.81,16.81,0,0,1-9.47,4.08C288.71,423.52,281.79,417.49,281.79,409.15Z" style="fill:#fff"></path><path d="M329.57,417.65V393a2.54,2.54,0,0,1,2.3-2.5l4.92-.43a13.15,13.15,0,0,1,14.56,13.29,16.25,16.25,0,0,1-14.56,15.92l-4.92.43A2.08,2.08,0,0,1,329.57,417.65Zm4.63-2.74,2.59-.22a11.11,11.11,0,0,0,9.93-10.89,9,9,0,0,0-9.93-9.06l-2.59.23Z" style="fill:#fff"></path><path d="M371.76,409.37l-10.13.89-2.05,5.6a2.61,2.61,0,0,1-2.17,1.65,2.05,2.05,0,0,1-.79-.06,2.18,2.18,0,0,1-1.38-2.88l9.22-25.38a2.62,2.62,0,0,1,2.21-1.65,2.07,2.07,0,0,1,2.21,1.27l9.22,23.76a2.49,2.49,0,0,1-2.16,3.32,2,2,0,0,1-2.13-1.27Zm-1.71-4.44-3.38-8.67-3.37,9.27Z" style="fill:#fff"></path><path d="M401,388.42l-8.55,12.47v11.26a2.51,2.51,0,0,1-2.3,2.49,2.08,2.08,0,0,1-2.29-2.09V401.29l-8.47-11a2.26,2.26,0,0,1,.46-3.21,2.16,2.16,0,0,1,3.17.22l7.13,9.14,7.14-10.39a2.38,2.38,0,0,1,3.21-.78A2.24,2.24,0,0,1,401,388.42Z" style="fill:#fff"></path></g><g id="freepik--Sparkles--inject-38"><path d="M180.83,203.62l1.44,6a.8.8,0,0,0,.59.59l6,1.44-6,1.44a.78.78,0,0,0-.6.67l-1.49,12.77-1.5-12.77a.78.78,0,0,0-.6-.67l-6-1.44,6-1.44a.8.8,0,0,0,.59-.59Z" style="fill:#92E3A9"></path><path d="M89.88,410.49l1.44,6.05a.78.78,0,0,0,.59.58l6,1.45L92,420a.78.78,0,0,0-.6.67l-1.49,12.77-1.5-12.77a.78.78,0,0,0-.6-.67l-6-1.44,6-1.45a.78.78,0,0,0,.59-.58Z" style="fill:#92E3A9"></path><path d="M302.28,84.24l1.45,6.06a.78.78,0,0,0,.58.58l6.06,1.45-6,1.43a.8.8,0,0,0-.6.68l-1.49,12.77-1.5-12.77a.8.8,0,0,0-.6-.68l-6-1.43,6.05-1.45a.79.79,0,0,0,.59-.58Z" style="fill:#92E3A9"></path><path d="M232.27,316.9l1.45,6.06a.79.79,0,0,0,.59.58l6.05,1.45-6,1.43a.8.8,0,0,0-.6.68l-1.5,12.77-1.5-12.77a.78.78,0,0,0-.6-.68l-6-1.43,6.06-1.45a.78.78,0,0,0,.58-.58Z" style="fill:#92E3A9"></path><path d="M122.82,289.92l.94,3.95a.54.54,0,0,0,.39.38l3.94.94-3.9.94a.5.5,0,0,0-.39.44l-1,4.12-1-4.12a.5.5,0,0,0-.39-.44l-3.9-.94,3.94-.94a.54.54,0,0,0,.39-.38Z" style="fill:#92E3A9"></path><path d="M397,206.5l.94,3.95a.52.52,0,0,0,.38.38l4,.95-3.9.93a.51.51,0,0,0-.39.44l-1,4.12-1-4.12a.51.51,0,0,0-.39-.44l-3.9-.93,3.94-.95a.49.49,0,0,0,.38-.38Z" style="fill:#92E3A9"></path><path d="M337.86,303.25l.94,3.95a.51.51,0,0,0,.38.38l3.95.95-3.91.93a.52.52,0,0,0-.39.44l-1,4.13-1-4.13a.52.52,0,0,0-.39-.44l-3.91-.93,3.95-.95a.49.49,0,0,0,.38-.38Z" style="fill:#92E3A9"></path><path d="M270.45,348.68l.94,3.95a.55.55,0,0,0,.39.38l3.94.94-3.9.93a.51.51,0,0,0-.39.45l-1,4.12-1-4.12a.51.51,0,0,0-.39-.45l-3.9-.93,3.94-.94a.55.55,0,0,0,.39-.38Z" style="fill:#92E3A9"></path><path d="M232.62,254.1l.95,4a.49.49,0,0,0,.38.38l3.94.95-3.9.93a.51.51,0,0,0-.39.44l-1,4.12-1-4.12a.54.54,0,0,0-.39-.44l-3.91-.93,4-.95a.51.51,0,0,0,.38-.38Z" style="fill:#92E3A9"></path><path d="M313.66,107.62l.95,3.95a.52.52,0,0,0,.38.38l3.95.94-3.91.94a.5.5,0,0,0-.39.44l-1,4.12-1-4.12a.51.51,0,0,0-.39-.44l-3.91-.94,3.95-.94a.54.54,0,0,0,.38-.38Z" style="fill:#92E3A9"></path><path d="M103,135.94l.95,3.95a.49.49,0,0,0,.38.38l3.94.95-3.9.93a.51.51,0,0,0-.39.44l-1,4.13-1-4.13a.51.51,0,0,0-.39-.44l-3.9-.93,4-.95a.52.52,0,0,0,.38-.38Z" style="fill:#92E3A9"></path><path d="M392.4,382.32l1,3.95a.52.52,0,0,0,.38.38l3.94.94-3.9.94a.5.5,0,0,0-.39.44l-1,4.12-1-4.12a.5.5,0,0,0-.39-.44l-3.9-.94,3.95-.94a.56.56,0,0,0,.38-.38Z" style="fill:#92E3A9"></path><path d="M230.57,120.23l1,4a.51.51,0,0,0,.38.38l3.95.94-3.91.94a.5.5,0,0,0-.39.44l-1,4.12-1-4.12a.51.51,0,0,0-.39-.44l-3.91-.94,3.95-.94a.52.52,0,0,0,.38-.38Z" style="fill:#92E3A9"></path><path d="M180.72,390.45l.94,3.95a.51.51,0,0,0,.38.38l4,.94-3.91.94a.52.52,0,0,0-.39.44l-1,4.12-1-4.12a.52.52,0,0,0-.39-.44l-3.91-.94,3.95-.94a.49.49,0,0,0,.38-.38Z" style="fill:#92E3A9"></path><g style="opacity:0.8"><path d="M180.83,203.62l1.44,6a.8.8,0,0,0,.59.59l6,1.44-6,1.44a.78.78,0,0,0-.6.67l-1.49,12.77-1.5-12.77a.78.78,0,0,0-.6-.67l-6-1.44,6-1.44a.8.8,0,0,0,.59-.59Z" style="fill:#fff"></path><path d="M89.88,410.49l1.44,6.05a.78.78,0,0,0,.59.58l6,1.45L92,420a.78.78,0,0,0-.6.67l-1.49,12.77-1.5-12.77a.78.78,0,0,0-.6-.67l-6-1.44,6-1.45a.78.78,0,0,0,.59-.58Z" style="fill:#fff"></path><path d="M302.28,84.24l1.45,6.06a.78.78,0,0,0,.58.58l6.06,1.45-6,1.43a.8.8,0,0,0-.6.68l-1.49,12.77-1.5-12.77a.8.8,0,0,0-.6-.68l-6-1.43,6.05-1.45a.79.79,0,0,0,.59-.58Z" style="fill:#fff"></path><path d="M232.27,316.9l1.45,6.06a.79.79,0,0,0,.59.58l6.05,1.45-6,1.43a.8.8,0,0,0-.6.68l-1.5,12.77-1.5-12.77a.78.78,0,0,0-.6-.68l-6-1.43,6.06-1.45a.78.78,0,0,0,.58-.58Z" style="fill:#fff"></path><path d="M122.82,289.92l.94,3.95a.54.54,0,0,0,.39.38l3.94.94-3.9.94a.5.5,0,0,0-.39.44l-1,4.12-1-4.12a.5.5,0,0,0-.39-.44l-3.9-.94,3.94-.94a.54.54,0,0,0,.39-.38Z" style="fill:#fff"></path><path d="M397,206.5l.94,3.95a.52.52,0,0,0,.38.38l4,.95-3.9.93a.51.51,0,0,0-.39.44l-1,4.12-1-4.12a.51.51,0,0,0-.39-.44l-3.9-.93,3.94-.95a.49.49,0,0,0,.38-.38Z" style="fill:#fff"></path><path d="M337.86,303.25l.94,3.95a.51.51,0,0,0,.38.38l3.95.95-3.91.93a.52.52,0,0,0-.39.44l-1,4.13-1-4.13a.52.52,0,0,0-.39-.44l-3.91-.93,3.95-.95a.49.49,0,0,0,.38-.38Z" style="fill:#fff"></path><path d="M270.45,348.68l.94,3.95a.55.55,0,0,0,.39.38l3.94.94-3.9.93a.51.51,0,0,0-.39.45l-1,4.12-1-4.12a.51.51,0,0,0-.39-.45l-3.9-.93,3.94-.94a.55.55,0,0,0,.39-.38Z" style="fill:#fff"></path><path d="M232.62,254.1l.95,4a.49.49,0,0,0,.38.38l3.94.95-3.9.93a.51.51,0,0,0-.39.44l-1,4.12-1-4.12a.54.54,0,0,0-.39-.44l-3.91-.93,4-.95a.51.51,0,0,0,.38-.38Z" style="fill:#fff"></path><path d="M313.66,107.62l.95,3.95a.52.52,0,0,0,.38.38l3.95.94-3.91.94a.5.5,0,0,0-.39.44l-1,4.12-1-4.12a.51.51,0,0,0-.39-.44l-3.91-.94,3.95-.94a.54.54,0,0,0,.38-.38Z" style="fill:#fff"></path><path d="M103,135.94l.95,3.95a.49.49,0,0,0,.38.38l3.94.95-3.9.93a.51.51,0,0,0-.39.44l-1,4.13-1-4.13a.51.51,0,0,0-.39-.44l-3.9-.93,4-.95a.52.52,0,0,0,.38-.38Z" style="fill:#fff"></path><path d="M392.4,382.32l1,3.95a.52.52,0,0,0,.38.38l3.94.94-3.9.94a.5.5,0,0,0-.39.44l-1,4.12-1-4.12a.5.5,0,0,0-.39-.44l-3.9-.94,3.95-.94a.56.56,0,0,0,.38-.38Z" style="fill:#fff"></path><path d="M230.57,120.23l1,4a.51.51,0,0,0,.38.38l3.95.94-3.91.94a.5.5,0,0,0-.39.44l-1,4.12-1-4.12a.51.51,0,0,0-.39-.44l-3.91-.94,3.95-.94a.52.52,0,0,0,.38-.38Z" style="fill:#fff"></path><path d="M180.72,390.45l.94,3.95a.51.51,0,0,0,.38.38l4,.94-3.91.94a.52.52,0,0,0-.39.44l-1,4.12-1-4.12a.52.52,0,0,0-.39-.44l-3.91-.94,3.95-.94a.49.49,0,0,0,.38-.38Z" style="fill:#fff"></path></g></g><g id="freepik--Confetti--inject-38"><path d="M151.24,171.51a4.56,4.56,0,1,1-5.12-3.92A4.56,4.56,0,0,1,151.24,171.51Z" style="fill:#263238"></path><path d="M99,265.36a4.55,4.55,0,1,1-5.11-3.92A4.56,4.56,0,0,1,99,265.36Z" style="fill:#455a64"></path><path d="M383.7,182.88a2.27,2.27,0,1,1-2.56-1.95A2.28,2.28,0,0,1,383.7,182.88Z" style="fill:#dbdbdb"></path><path d="M194.66,209.31a2.28,2.28,0,1,1-2.56-1.95A2.28,2.28,0,0,1,194.66,209.31Z" style="fill:#dbdbdb"></path><path d="M284.49,185.16a2.28,2.28,0,1,1-2.56-2A2.28,2.28,0,0,1,284.49,185.16Z" style="fill:#455a64"></path><path d="M416.37,155.3a2.27,2.27,0,1,1-2.55-2A2.28,2.28,0,0,1,416.37,155.3Z" style="fill:#263238"></path><path d="M177.06,233.44a2.27,2.27,0,1,1-2.56-2A2.28,2.28,0,0,1,177.06,233.44Z" style="fill:#455a64"></path><path d="M316.58,167.8a2.28,2.28,0,1,1-2.56-2A2.27,2.27,0,0,1,316.58,167.8Z" style="fill:#263238"></path><path d="M44.88,204.09a2.27,2.27,0,1,1-2.55-2A2.28,2.28,0,0,1,44.88,204.09Z" style="fill:#dbdbdb"></path><path d="M266.3,208.83a2.27,2.27,0,1,1-2.56-2A2.27,2.27,0,0,1,266.3,208.83Z" style="fill:#dbdbdb"></path><path d="M241.5,190.05a2.27,2.27,0,1,1-2.55-2A2.28,2.28,0,0,1,241.5,190.05Z" style="fill:#455a64"></path><path d="M88.26,304.45a2.27,2.27,0,1,1-2.56-2A2.28,2.28,0,0,1,88.26,304.45Z" style="fill:#dbdbdb"></path><path d="M246.62,217.62a4.56,4.56,0,1,1-5.12-3.92A4.56,4.56,0,0,1,246.62,217.62Z" style="fill:#455a64"></path><path d="M196,189.87l1.1-6.71s-4.06,2.83-10.3-.46-5.9-9.92-12.77-10.59l-1.64,7.26s6.14,0,9.72,4.75C184.87,187.69,188.33,191.46,196,189.87Z" style="fill:#455a64"></path><path d="M226.87,239.34,220.51,237s2,4.53-2.47,10-10.89,3.83-12.9,10.43l6.8,3s1.24-6,6.56-8.6C222.54,249.86,226.92,247.21,226.87,239.34Z" style="fill:#dbdbdb"></path><path d="M275.29,210.05l5.06,4.55s-.2-4.95,5.94-8.43,11.54.39,15.81-5l-5.23-5.3s-3.34,5.15-9.24,5.63C283.15,201.83,278.11,202.7,275.29,210.05Z" style="fill:#dbdbdb"></path><path d="M61,248.19l6.13,2.95s-1.57-4.7,3.35-9.75,11.19-2.85,13.77-9.25l-6.5-3.63s-1.77,5.88-7.3,8C66.25,238.09,61.65,240.34,61,248.19Z" style="fill:#455a64"></path><path d="M422.31,248.53l-7.64,2.87s2.82,10.11,10.73,7.72C425.4,259.12,420.16,256.49,422.31,248.53Z" style="fill:#37474f"></path><path d="M433.58,266l2.82-7.54s-4.6-4.56-11,.7C425.4,259.12,433.18,259.09,433.58,266Z" style="fill:#37474f"></path><path d="M147.06,204.13l-7.68,2.74S142,217,150,214.77C150,214.77,144.78,212.05,147.06,204.13Z" style="fill:#dbdbdb"></path><path d="M158,221.74l2.94-7.49s-4.52-4.64-11,.52C150,214.77,157.75,214.86,158,221.74Z" style="fill:#dbdbdb"></path><path d="M331.4,159.44l-1.95,7.92s9.93,3.41,12.43-4.46C341.88,162.9,336.75,165.72,331.4,159.44Z" style="fill:#455a64"></path><path d="M352.15,160l-4.62-6.59s-6.36,1.21-5.65,9.47C341.88,162.9,346.26,156.46,352.15,160Z" style="fill:#455a64"></path><path d="M216.54,206l.68,8.13s10.5,0,10.35-8.21C227.57,205.9,223.62,210.22,216.54,206Z" style="fill:#37474f"></path><path d="M236.38,199.88l-6.49-4.76s-5.64,3.19-2.32,10.78C227.57,205.9,229.66,198.4,236.38,199.88Z" style="fill:#37474f"></path><path d="M270.88,169.3a4.55,4.55,0,1,1,5.11,3.92A4.56,4.56,0,0,1,270.88,169.3Z" style="fill:#dbdbdb"></path><path d="M422.57,302.77a2.27,2.27,0,1,1,2.55,2A2.27,2.27,0,0,1,422.57,302.77Z" style="fill:#dbdbdb"></path><path d="M450.57,186.92a4.56,4.56,0,1,1,5.12,3.92A4.56,4.56,0,0,1,450.57,186.92Z" style="fill:#dbdbdb"></path><path d="M374.45,229.78a4.56,4.56,0,1,1,5.12,3.92A4.56,4.56,0,0,1,374.45,229.78Z" style="fill:#455a64"></path><path d="M395.07,194.57l.42,6.79s3.33-3.67,10.15-1.85,7.95,8.37,14.79,7.5v-7.45s-6,1.33-10.54-2.47C406.44,194.21,402.23,191.3,395.07,194.57Z" style="fill:#455a64"></path><path d="M326.43,226.1l-10.87,3.08s-5.17-13.57,5.59-17.41C321.15,211.77,317.49,219,326.43,226.1Z" style="fill:#263238"></path><path d="M324.65,197.43l9.33,6.08s-1.38,8.86-12.83,8.26C321.15,211.77,329.85,205.41,324.65,197.43Z" style="fill:#263238"></path><path d="M107.82,199.79l-6.33-9.35s11.26-9.17,18.28-.15C119.77,190.29,111.76,189.07,107.82,199.79Z" style="fill:#263238"></path><path d="M134.48,189.1l-2.84,10.77s-8.85,1.47-11.87-9.58C119.77,190.29,128.54,196.55,134.48,189.1Z" style="fill:#263238"></path></g></svg>