<svg xmlns="http://www.w3.org/2000/svg" viewBox="0 0 500 500"><g id="freepik--background-complete--inject-34"><path d="M417.55,215.13s16.74-1.21,19.69,7l2-3,.49,3,2.89.23s1.08-3.59,1-3a15,15,0,0,0,1.06,3.09s6.95-7.06,18.7-1.89c0,0-7.75-1.75-9.29,4.67,0,0-5.3-2.62-6.3,2.87a4.91,4.91,0,0,0-4.3,4.44,30.1,30.1,0,0,0-2.72-2.93c-.26-.14-3.48,2.55-3.48,2.55s.79-5.12-3.89-5.41c0,0,1.5-5.66-6.05-4.49C427.36,222.33,429.86,217.41,417.55,215.13Z" style="fill:#e0e0e0"></path><path d="M318,252.66l-121.61-1.17-36.85-.18-10,0-2.61,0a7.44,7.44,0,0,0-.88,0,5,5,0,0,0,.88.06l2.61.06,10,.13,36.85.2,121.61.08c47.46,0,90.44.06,121.56.29,15.56.11,28.15.26,36.85.42,4.35.09,7.73.18,10,.26a17.64,17.64,0,0,1,3.49.27,19.41,19.41,0,0,1-3.5.23c-2.29.06-5.67.12-10,.16-8.7.07-21.29.09-36.85.05C408.46,253.53,365.48,253.15,318,252.66Z" style="fill:#ebebeb"></path><path d="M317.07,263.38,197.13,243.3l-36.38-5.9-9.9-1.53-2.58-.37a4.86,4.86,0,0,0-.89-.09,4.78,4.78,0,0,0,.87.2l2.56.47,9.88,1.68,36.37,5.93,120.13,19c46.88,7.37,89.33,14.11,120,19.17,15.35,2.53,27.77,4.64,36.34,6.16,4.28.76,7.61,1.37,9.86,1.82a18.53,18.53,0,0,1,3.4.8,17.53,17.53,0,0,1-3.49-.31c-2.27-.29-5.62-.76-9.92-1.4-8.61-1.27-21.05-3.21-36.41-5.68C406.27,278.31,363.88,271.25,317.07,263.38Z" style="fill:#ebebeb"></path><path d="M314.46,273.82,199.17,235.09l-35-11.56-9.54-3.07-2.49-.77a6.84,6.84,0,0,0-.86-.23,5.08,5.08,0,0,0,.82.34l2.46.86,9.49,3.22,35,11.59,115.63,37.66c45.15,14.66,86,28,115.53,37.85,14.76,4.91,26.69,8.95,34.91,11.8,4.11,1.43,7.3,2.56,9.45,3.35a18.21,18.21,0,0,1,3.23,1.34,18.08,18.08,0,0,1-3.39-.86c-2.2-.64-5.43-1.63-9.58-2.94-8.31-2.61-20.29-6.49-35.07-11.34C400.2,302.62,359.44,289,314.46,273.82Z" style="fill:#ebebeb"></path><path d="M310.24,283.7,202.47,227.32l-32.74-16.93-8.93-4.53-2.34-1.16a7.53,7.53,0,0,0-.81-.36,4.29,4.29,0,0,0,.76.46L160.7,206l8.87,4.68,32.72,16.95,108.27,55.4c42.28,21.59,80.53,41.2,108.13,55.57,13.81,7.18,24.95,13,32.63,17.15,3.83,2,6.8,3.67,8.8,4.79a17.59,17.59,0,0,1,3,1.83,17.59,17.59,0,0,1-3.22-1.39c-2.07-1-5.1-2.47-9-4.41-7.78-3.89-19-9.61-32.84-16.73C390.38,325.64,352.28,305.74,310.24,283.7Z" style="fill:#ebebeb"></path><path d="M304.52,292.81c-38.13-28.33-72.63-54-97.63-72.55L177.2,198.42l-8.12-5.87L167,191a4.84,4.84,0,0,0-.75-.48,5.62,5.62,0,0,0,.69.57l2.06,1.59,8,6,29.68,21.86,98.28,71.65c38.38,27.94,73.1,53.29,98.12,71.8,12.51,9.25,22.61,16.78,29.54,22,3.47,2.63,6.15,4.69,7.95,6.11a17.18,17.18,0,0,1,2.66,2.27,17.75,17.75,0,0,1-3-1.87c-1.89-1.29-4.65-3.24-8.19-5.77-7.09-5.06-17.28-12.45-29.83-21.65C377.12,346.77,342.6,321.15,304.52,292.81Z" style="fill:#ebebeb"></path><path d="M297.45,300.91C264.19,267,234.1,236.3,212.29,214.06l-25.94-26.2-7.1-7.07c-.81-.78-1.43-1.38-1.87-1.82a5.53,5.53,0,0,0-.67-.59,6.69,6.69,0,0,0,.59.67l1.8,1.89,7,7.18L212,214.33,298,300.41c33.57,33.57,63.92,64,85.76,86.19,10.93,11.08,19.72,20.09,25.76,26.37,3,3.14,5.34,5.59,6.9,7.27a19.31,19.31,0,0,1,2.28,2.66,18,18,0,0,1-2.64-2.31c-1.66-1.57-4.09-3.92-7.2-7-6.21-6.1-15.12-15-26.09-26C360.79,365.51,330.66,334.84,297.45,300.91Z" style="fill:#ebebeb"></path><path d="M289.21,307.81l-70.62-99.05L197,178.85l-5.92-8.09-1.56-2.09A4.16,4.16,0,0,0,189,168a7.23,7.23,0,0,0,.48.75l1.48,2.14,5.79,8.18L218.27,209l71.52,98.4c27.95,38.39,53.2,73.19,71.32,98.49,9.07,12.65,16.36,22.92,21.35,30.06,2.49,3.57,4.41,6.35,5.68,8.26a18.15,18.15,0,0,1,1.84,3,17.83,17.83,0,0,1-2.24-2.69c-1.41-1.81-3.44-4.51-6-8-5.19-7-12.62-17.17-21.73-29.78C341.73,381.48,316.74,346.49,289.21,307.81Z" style="fill:#ebebeb"></path><path d="M280,313.35c-21.2-42.52-40.37-81-54.28-108.89-7-13.88-12.67-25.11-16.61-32.91-2-3.85-3.51-6.85-4.58-8.92l-1.22-2.3a4.67,4.67,0,0,0-.45-.77,7.86,7.86,0,0,0,.35.82c.27.56.65,1.34,1.13,2.35l4.45,9,16.58,32.93L280.64,313c21.6,42.29,41.1,80.61,55.05,108.44,7,13.91,12.58,25.19,16.39,33,1.9,3.92,3.36,7,4.32,9a18.39,18.39,0,0,1,1.35,3.23,17.29,17.29,0,0,1-1.8-3c-1.1-2-2.69-5-4.7-8.86-4-7.72-9.78-18.93-16.81-32.81C320.36,394.33,301.15,355.86,280,313.35Z" style="fill:#ebebeb"></path><path d="M270,317.36,233.56,201.29c-4.74-14.81-8.57-26.79-11.23-35.12-1.35-4.11-2.4-7.31-3.13-9.52l-.84-2.47a5.16,5.16,0,0,0-.32-.83,5.27,5.27,0,0,0,.22.86c.17.6.42,1.43.74,2.5.69,2.22,1.69,5.44,3,9.58,2.66,8.32,6.48,20.31,11.21,35.12,9.61,29.65,22.88,70.54,37.53,115.74S298.63,403.22,308,432.89c4.7,14.84,8.45,26.87,11,35.2,1.26,4.17,2.22,7.41,2.84,9.61a18,18,0,0,1,.83,3.41,18,18,0,0,1-1.3-3.25c-.78-2.16-1.87-5.36-3.26-9.49-2.76-8.25-6.68-20.23-11.44-35.05C297.15,403.69,284.23,362.68,270,317.36Z" style="fill:#ebebeb"></path><path d="M259.55,319.76c-6.94-47-13.22-89.53-17.77-120.37-2.34-15.36-4.24-27.81-5.56-36.44-.69-4.28-1.22-7.61-1.59-9.9-.19-1.11-.34-2-.44-2.57a5.22,5.22,0,0,0-.19-.87,5.29,5.29,0,0,0,.08.88c.08.62.2,1.48.34,2.59.34,2.3.82,5.64,1.44,9.92,1.31,8.64,3.2,21.08,5.53,36.45,4.84,30.79,11.5,73.27,18.87,120.2s14,89.4,18.65,120.19c2.31,15.39,4.13,27.86,5.31,36.48.6,4.32,1,7.67,1.3,9.95a17.52,17.52,0,0,1,.28,3.49,18.71,18.71,0,0,1-.77-3.42c-.42-2.25-1-5.58-1.72-9.88-1.43-8.59-3.41-21-5.79-36.41C272.76,409.28,266.45,366.75,259.55,319.76Z" style="fill:#ebebeb"></path><path d="M248.82,320.49c.43-47.51.82-90.5,1.1-121.67.07-15.54.12-28.13.16-36.87,0-4.33,0-7.7,0-10,0-1.13,0-2,0-2.61a6,6,0,0,0,0-.89,5.06,5.06,0,0,0-.06.89l-.06,2.61c0,2.32-.07,5.69-.12,10,0,8.74-.1,21.33-.17,36.87,0,31.17,0,74.16,0,121.67s0,90.5-.21,121.63c-.1,15.56-.24,28.16-.41,36.87-.08,4.35-.16,7.73-.25,10a19.63,19.63,0,0,1-.26,3.5,17.51,17.51,0,0,1-.23-3.5c-.07-2.29-.13-5.67-.17-10-.08-8.71-.11-21.3-.07-36.87C248,411,248.36,368,248.82,320.49Z" style="fill:#ebebeb"></path><path d="M238.11,319.55c7.8-46.86,14.87-89.28,20-120,2.47-15.34,4.48-27.77,5.87-36.4.66-4.28,1.17-7.61,1.53-9.91.16-1.11.28-2,.36-2.58a4.86,4.86,0,0,0,.09-.88,5.73,5.73,0,0,0-.2.87c-.11.61-.26,1.46-.46,2.56-.39,2.29-1,5.62-1.68,9.88-1.4,8.63-3.41,21.05-5.9,36.4-4.84,30.79-11.52,73.26-18.89,120.2s-14,89.39-19.09,120.11c-2.52,15.36-4.61,27.78-6.13,36.36-.76,4.29-1.37,7.61-1.81,9.86a17,17,0,0,1-.81,3.41,19.33,19.33,0,0,1,.32-3.49c.28-2.27.75-5.62,1.39-9.93,1.26-8.61,3.19-21.06,5.65-36.44C223.24,408.81,230.27,366.39,238.11,319.55Z" style="fill:#ebebeb"></path><path d="M227.67,316.94l38.64-115.37,11.53-35L280.9,157l.77-2.49a7.42,7.42,0,0,0,.23-.86,4.13,4.13,0,0,0-.34.82c-.2.59-.49,1.4-.86,2.46-.75,2.2-1.83,5.4-3.22,9.5-2.74,8.29-6.68,20.25-11.56,35L228.36,317.17c-14.63,45.18-27.94,86.07-37.75,115.61-4.91,14.77-8.93,26.71-11.78,34.94-1.42,4.11-2.55,7.3-3.34,9.45a17.66,17.66,0,0,1-1.34,3.24A17.84,17.84,0,0,1,175,477c.64-2.2,1.63-5.43,2.93-9.59,2.61-8.31,6.47-20.3,11.32-35.09C198.94,402.75,212.56,362,227.67,316.94Z" style="fill:#ebebeb"></path><path d="M217.79,312.73l56.29-107.86L291,172.1l4.53-8.94c.5-1,.88-1.78,1.15-2.34A4.42,4.42,0,0,0,297,160a5.21,5.21,0,0,0-.46.76c-.29.55-.7,1.31-1.24,2.29l-4.66,8.88-16.92,32.75L218.42,313.05c-21.55,42.31-41.13,80.6-55.47,108.23-7.17,13.81-13,25-17.12,32.65-2.05,3.84-3.66,6.81-4.79,8.81a18.08,18.08,0,0,1-1.82,3,17.88,17.88,0,0,1,1.38-3.22c1-2.07,2.47-5.11,4.41-9,3.89-7.79,9.59-19,16.7-32.87C175.92,392.94,195.79,354.8,217.79,312.73Z" style="fill:#ebebeb"></path><path d="M208.68,307l72.45-97.73,21.81-29.72,5.87-8.12,1.5-2.13a4.45,4.45,0,0,0,.48-.75,7.57,7.57,0,0,0-.57.68c-.37.5-.9,1.18-1.58,2.07l-6,8-21.83,29.7-71.56,98.38c-27.9,38.42-53.21,73.17-71.69,98.22-9.24,12.53-16.76,22.63-22,29.57-2.62,3.47-4.68,6.15-6.1,7.95a17,17,0,0,1-2.27,2.67,17.75,17.75,0,0,1,1.87-3c1.29-1.89,3.23-4.66,5.76-8.21,5-7.09,12.44-17.29,21.62-29.85C154.8,379.69,180.38,345.13,208.68,307Z" style="fill:#ebebeb"></path><path d="M200.58,299.94l86.76-85.26,26.16-26,7.07-7.12,1.81-1.87a4.14,4.14,0,0,0,.59-.66,5.32,5.32,0,0,0-.67.59l-1.88,1.8c-1.67,1.62-4.08,4-7.17,7l-26.18,25.95-86,86c-33.53,33.61-64,64-86.09,85.87-11.08,10.93-20.08,19.74-26.35,25.78-3.13,3-5.58,5.35-7.26,6.91a17,17,0,0,1-2.66,2.28A18.48,18.48,0,0,1,81,418.66c1.57-1.67,3.92-4.1,7-7.21,6.09-6.22,15-15.15,26-26.13C136.06,363.35,166.7,333.2,200.58,299.94Z" style="fill:#ebebeb"></path><path d="M193.68,291.71,292.63,221l29.89-21.58,8.08-5.92,2.08-1.57a6.43,6.43,0,0,0,.69-.56,4.7,4.7,0,0,0-.75.47l-2.14,1.49-8.18,5.8-29.89,21.56L194.1,292.29c-38.35,28-73.12,53.27-98.39,71.42-12.64,9.08-22.9,16.38-30,21.37-3.57,2.5-6.35,4.42-8.25,5.69a18.83,18.83,0,0,1-3,1.85,17.57,17.57,0,0,1,2.68-2.25c1.82-1.41,4.51-3.44,8-6,7-5.19,17.15-12.63,29.75-21.76C120.08,344.3,155,319.28,193.68,291.71Z" style="fill:#ebebeb"></path><path d="M188.14,282.49l108.8-54.37,32.88-16.64,8.91-4.59,2.3-1.22a4.67,4.67,0,0,0,.77-.45,4.56,4.56,0,0,0-.82.35l-2.35,1.13-9,4.45-32.9,16.62L188.47,283.13c-42.25,21.64-80.54,41.18-108.34,55.16-13.9,7-25.18,12.59-33,16.41-3.92,1.9-7,3.36-9,4.33a17.9,17.9,0,0,1-3.24,1.35,18.29,18.29,0,0,1,3-1.8c2-1.1,5-2.69,8.85-4.71,7.71-4,18.91-9.8,32.78-16.84C107.23,322.93,145.67,303.68,188.14,282.49Z" style="fill:#ebebeb"></path><path d="M184.12,272.52l116-36.57L335.2,224.7l9.52-3.13,2.47-.85a4.31,4.31,0,0,0,.82-.32,4.58,4.58,0,0,0-.86.22l-2.5.74-9.56,3L300,235.57,184.34,273.2c-45.12,14.73-86,28-115.66,37.42-14.83,4.71-26.85,8.48-35.17,11-4.17,1.27-7.41,2.23-9.61,2.85a18,18,0,0,1-3.41.83,18.91,18.91,0,0,1,3.25-1.3c2.16-.78,5.36-1.88,9.48-3.27,8.25-2.77,20.22-6.69,35-11.47C97.86,299.71,138.84,286.76,184.12,272.52Z" style="fill:#ebebeb"></path><path d="M181.72,262,302,244.18l36.43-5.59,9.89-1.59,2.57-.44a5.59,5.59,0,0,0,.87-.19,5.3,5.3,0,0,0-.89.08l-2.58.34-9.92,1.44L302,243.79l-120.12,19c-46.88,7.43-89.34,14.1-120.11,18.74-15.38,2.32-27.84,4.14-36.46,5.33-4.32.6-7.67,1-9.94,1.31a17.55,17.55,0,0,1-3.49.28,17.78,17.78,0,0,1,3.41-.78c2.25-.42,5.58-1,9.88-1.72,8.58-1.44,21-3.43,36.39-5.82C92.25,275.31,134.76,269,181.72,262Z" style="fill:#ebebeb"></path><path d="M181,251.31l121.61,1,36.85.13,10,0,2.6,0a7.54,7.54,0,0,0,.89,0,5.06,5.06,0,0,0-.89-.06l-2.6-.06-10-.11L302.59,252,181,252c-47.46.07-90.44.06-121.56-.13-15.56-.09-28.15-.23-36.85-.38-4.35-.08-7.73-.17-10-.25A19.43,19.43,0,0,1,9.06,251a17.57,17.57,0,0,1,3.49-.24c2.29-.06,5.67-.12,10-.17,8.71-.09,21.3-.12,36.86-.09C90.54,250.55,133.52,250.87,181,251.31Z" style="fill:#ebebeb"></path><path d="M181.91,240.59l120,19.92,36.39,5.85,9.9,1.52,2.58.37a5.3,5.3,0,0,0,.89.08,5.59,5.59,0,0,0-.87-.19l-2.56-.47L338.33,266,302,260.12,181.8,241.29c-46.9-7.31-89.36-14-120.06-19-15.36-2.51-27.77-4.6-36.35-6.11-4.28-.75-7.6-1.36-9.85-1.8a17,17,0,0,1-3.41-.81,19.74,19.74,0,0,1,3.49.31c2.27.29,5.62.76,9.92,1.39,8.61,1.26,21.06,3.18,36.42,5.63C92.69,225.77,135.1,232.77,181.91,240.59Z" style="fill:#ebebeb"></path><path d="M184.52,230.14l115.33,38.58,35,11.52,9.54,3.06,2.49.76a5.13,5.13,0,0,0,.86.23,4.67,4.67,0,0,0-.82-.33l-2.46-.87-9.5-3.21-35-11.54L184.29,230.83c-45.16-14.61-86-27.9-115.57-37.7C54,188.23,42,184.21,33.79,181.37c-4.11-1.42-7.3-2.55-9.45-3.34a18.23,18.23,0,0,1-3.24-1.33,17.19,17.19,0,0,1,3.4.85c2.2.64,5.43,1.63,9.58,2.93,8.31,2.6,20.29,6.46,35.08,11.3C98.74,201.45,139.51,215.05,184.52,230.14Z" style="fill:#ebebeb"></path><path d="M188.72,220.25,296.56,276.5l32.76,16.88,8.94,4.53,2.34,1.15a7.53,7.53,0,0,0,.81.36,5.21,5.21,0,0,0-.76-.46l-2.29-1.24-8.87-4.66-32.75-16.91L188.4,220.88c-42.3-21.54-80.58-41.1-108.2-55.43-13.82-7.16-25-13-32.65-17.11-3.84-2.05-6.81-3.66-8.81-4.78a19,19,0,0,1-3-1.82A17.88,17.88,0,0,1,39,143.12c2.07,1,5.11,2.47,9,4.41,7.8,3.87,19,9.57,32.87,16.68C108.53,178.41,146.65,198.26,188.72,220.25Z" style="fill:#ebebeb"></path><path d="M194.43,211.14l97.72,72.42,29.72,21.8,8.12,5.87,2.14,1.5a5.17,5.17,0,0,0,.74.48,5.89,5.89,0,0,0-.68-.57l-2.07-1.58-8-6-29.71-21.82L194,211.71C155.59,183.83,120.84,158.52,95.8,140c-12.53-9.23-22.63-16.75-29.57-22-3.47-2.63-6.15-4.69-8-6.1a17.18,17.18,0,0,1-2.66-2.27,18,18,0,0,1,3,1.86c1.89,1.3,4.66,3.24,8.2,5.76,7.09,5,17.3,12.44,29.86,21.62C121.76,157.27,156.31,182.84,194.43,211.14Z" style="fill:#ebebeb"></path><path d="M201.49,203l85.27,86.74,26,26.17,7.11,7.06,1.87,1.81a3.88,3.88,0,0,0,.67.59,7.65,7.65,0,0,0-.59-.66l-1.8-1.89-7-7.17L287,289.5l-86.06-86c-33.61-33.53-64-63.94-85.87-86.08-10.94-11.07-19.75-20.07-25.79-26.34-3-3.13-5.35-5.58-6.91-7.27a17.31,17.31,0,0,1-2.28-2.65,18.54,18.54,0,0,1,2.63,2.3c1.67,1.58,4.1,3.92,7.21,7,6.22,6.09,15.15,15,26.13,26C138.07,138.51,168.23,169.14,201.49,203Z" style="fill:#ebebeb"></path><path d="M209.72,196.11c27.62,38.65,52.62,73.62,70.75,99L302.05,325,308,333l1.57,2.09a6.23,6.23,0,0,0,.56.69,4.86,4.86,0,0,0-.47-.76l-1.49-2.14-5.8-8.17-21.57-29.9-71.64-98.32c-28-38.35-53.29-73.12-71.45-98.39-9.08-12.64-16.39-22.91-21.38-30-2.5-3.56-4.42-6.34-5.69-8.25a18.29,18.29,0,0,1-1.85-3A18.1,18.1,0,0,1,111,59.56c1.4,1.81,3.44,4.51,6,8,5.19,7,12.63,17.15,21.77,29.75C157.1,122.51,182.14,157.47,209.72,196.11Z" style="fill:#ebebeb"></path><path d="M218.92,190.57l54.42,108.81L290,332.28l4.59,8.91,1.22,2.3a5.81,5.81,0,0,0,.45.77,4.56,4.56,0,0,0-.35-.82l-1.13-2.35-4.45-9c-3.95-7.8-9.62-19-16.63-32.9-14.19-27.75-33.77-66-55.41-108.32s-41.2-80.55-55.19-108.36c-7-13.9-12.61-25.18-16.42-33-1.91-3.91-3.37-7-4.34-9A18,18,0,0,1,141,37.25a18.6,18.6,0,0,1,1.8,3c1.1,2,2.69,5,4.71,8.84,4,7.72,9.8,18.92,16.86,32.79C178.46,109.64,197.72,148.08,218.92,190.57Z" style="fill:#ebebeb"></path><path d="M228.89,186.54l36.62,116c4.75,14.81,8.6,26.79,11.27,35.11,1.35,4.11,2.41,7.31,3.14,9.52l.84,2.47a5.67,5.67,0,0,0,.33.83,7.43,7.43,0,0,0-.22-.87c-.18-.59-.43-1.42-.75-2.5-.69-2.22-1.7-5.43-3-9.57-2.66-8.32-6.5-20.3-11.24-35.11-9.65-29.63-23-70.51-37.69-115.68s-28-86-37.47-115.7c-4.72-14.83-8.48-26.86-11-35.18-1.27-4.17-2.24-7.41-2.86-9.62a17.82,17.82,0,0,1-.83-3.4,18.38,18.38,0,0,1,1.31,3.25c.77,2.16,1.87,5.36,3.26,9.48,2.78,8.25,6.71,20.22,11.49,35C201.65,100.25,214.63,141.24,228.89,186.54Z" style="fill:#ebebeb"></path><path d="M239.36,184.13c7,47,13.33,89.52,17.92,120.34,2.37,15.37,4.28,27.81,5.61,36.44.69,4.28,1.23,7.6,1.6,9.9.19,1.11.34,2,.45,2.57a4.41,4.41,0,0,0,.19.87,5.43,5.43,0,0,0-.08-.89c-.09-.61-.2-1.47-.35-2.58-.33-2.3-.82-5.64-1.44-9.92-1.33-8.64-3.23-21.08-5.59-36.45-4.87-30.78-11.59-73.25-19-120.17s-14.14-89.38-18.8-120.16c-2.33-15.39-4.16-27.86-5.36-36.48-.6-4.31-1-7.67-1.31-9.94a17.6,17.6,0,0,1-.28-3.5,19,19,0,0,1,.77,3.42c.43,2.25,1,5.58,1.74,9.88,1.44,8.58,3.44,21,5.83,36.4C226,94.62,232.4,137.15,239.36,184.13Z" style="fill:#ebebeb"></path><path d="M250.09,183.38c-.37,47.51-.7,90.51-1,121.67,0,15.55-.08,28.14-.11,36.88,0,4.33,0,7.69.05,10,0,1.12,0,2,0,2.61a4.77,4.77,0,0,0,0,.89,6,6,0,0,0,.05-.89q0-.93.06-2.61c0-2.33.06-5.69.11-10,0-8.74.07-21.33.13-36.88,0-31.16-.09-74.16-.15-121.67s-.11-90.49.06-121.62c.08-15.57.21-28.16.36-36.87.07-4.35.15-7.73.24-10a17.3,17.3,0,0,1,.26-3.49,19.41,19.41,0,0,1,.23,3.5c.07,2.29.13,5.67.18,10,.09,8.71.14,21.31.12,36.87C250.79,92.9,250.49,135.9,250.09,183.38Z" style="fill:#ebebeb"></path><path d="M260.8,184.31c-7.74,46.88-14.75,89.3-19.83,120-2.46,15.36-4.45,27.78-5.83,36.41-.65,4.28-1.16,7.61-1.51,9.91q-.24,1.66-.36,2.58a5,5,0,0,0-.09.89,5.59,5.59,0,0,0,.19-.87c.11-.61.27-1.46.47-2.56.38-2.3.94-5.62,1.66-9.89l5.86-36.4c4.8-30.8,11.42-73.28,18.73-120.22S274,94.79,279,64.06c2.5-15.37,4.58-27.79,6.08-36.37.75-4.29,1.36-7.61,1.8-9.86a17.53,17.53,0,0,1,.8-3.41,17.53,17.53,0,0,1-.31,3.49c-.28,2.27-.75,5.62-1.37,9.93-1.26,8.62-3.17,21.07-5.61,36.44C275.56,95,268.58,137.46,260.8,184.31Z" style="fill:#ebebeb"></path><path d="M271.24,186.91c-15,45.07-28.62,85.85-38.48,115.42-4.85,14.77-8.77,26.73-11.49,35-1.32,4.12-2.34,7.33-3.05,9.55-.33,1.07-.58,1.9-.76,2.49a5.43,5.43,0,0,0-.23.86,4.67,4.67,0,0,0,.33-.82c.21-.59.49-1.4.86-2.46.75-2.21,1.82-5.4,3.21-9.5l11.51-35c9.58-29.65,22.81-70.56,37.42-115.77s27.82-86.1,37.6-115.66c4.88-14.78,8.9-26.72,11.73-34.95,1.42-4.12,2.54-7.31,3.33-9.46a18.23,18.23,0,0,1,1.33-3.24,17.19,17.19,0,0,1-.85,3.4c-.64,2.2-1.62,5.44-2.92,9.59-2.6,8.31-6.44,20.31-11.27,35.11C299.87,101.07,286.3,141.87,271.24,186.91Z" style="fill:#ebebeb"></path><path d="M281.13,191.11C259.21,233.25,239.37,271.39,225,299c-7.1,13.82-12.86,25-16.85,32.79l-4.52,8.94c-.49,1-.87,1.79-1.15,2.35a4.71,4.71,0,0,0-.35.81,6,6,0,0,0,.45-.76l1.24-2.3,4.65-8.88c4-7.77,9.77-18.95,16.88-32.77,14.13-27.78,33.63-66.09,55.17-108.44s41-80.64,55.33-108.29c7.15-13.82,13-25,17.08-32.67C355,46,356.57,43,357.68,41a19,19,0,0,1,1.82-3,17.24,17.24,0,0,1-1.37,3.22c-1,2.07-2.47,5.11-4.4,9-3.87,7.8-9.56,19-16.66,32.89C322.9,110.84,303.08,149,281.13,191.11Z" style="fill:#ebebeb"></path><path d="M290.25,196.81c-28.25,38.2-53.8,72.77-72.33,97.82l-21.77,29.75-5.86,8.13-1.5,2.14a5.3,5.3,0,0,0-.48.75,5.5,5.5,0,0,0,.57-.69l1.58-2.07,6-8,21.8-29.74c18.29-25.22,43.53-60,71.43-98.47s53.12-73.24,71.57-98.31c9.22-12.53,16.73-22.65,22-29.6,2.62-3.47,4.68-6.15,6.1-8a18.06,18.06,0,0,1,2.26-2.67,18.27,18.27,0,0,1-1.86,3c-1.29,1.89-3.23,4.66-5.75,8.21-5,7.1-12.42,17.31-21.59,29.88C344,124.07,318.5,158.66,290.25,196.81Z" style="fill:#ebebeb"></path><path d="M298.36,203.87l-86.65,85.37-26.13,26-7.06,7.12-1.81,1.88a6.13,6.13,0,0,0-.59.66,6.69,6.69,0,0,0,.67-.59l1.88-1.8,7.16-7,26.15-26,85.87-86.16c33.49-33.65,63.86-64.08,86-86,11.06-11,20.05-19.77,26.31-25.82,3.13-3,5.58-5.36,7.26-6.92a17.31,17.31,0,0,1,2.65-2.28,18.18,18.18,0,0,1-2.3,2.64c-1.57,1.67-3.92,4.1-7,7.21-6.08,6.23-15,15.17-26,26.16C362.8,140.38,332.2,170.58,298.36,203.87Z" style="fill:#ebebeb"></path><path d="M305.27,212.1,206.4,283l-29.85,21.62-8.08,5.93-2.08,1.57a4.16,4.16,0,0,0-.68.57,7.23,7.23,0,0,0,.75-.48l2.14-1.49,8.16-5.81,29.87-21.6,98.22-71.74c38.31-28,73-53.36,98.3-71.55,12.63-9.09,22.88-16.41,30-21.41,3.56-2.5,6.34-4.42,8.25-5.7a18.55,18.55,0,0,1,3-1.85,17.57,17.57,0,0,1-2.68,2.25c-1.81,1.41-4.51,3.45-8,6-7,5.2-17.13,12.65-29.72,21.8C378.8,159.41,343.88,184.48,305.27,212.1Z" style="fill:#ebebeb"></path><path d="M310.82,221.31,202.09,275.82,169.23,292.5l-8.9,4.6-2.3,1.22a5.06,5.06,0,0,0-.77.46,8.09,8.09,0,0,0,.82-.36l2.34-1.13,9-4.46,32.87-16.66,108.22-55.5c42.22-21.7,80.49-41.28,108.27-55.3,13.89-7,25.16-12.62,33-16.45,3.91-1.91,7-3.38,9-4.34a17.4,17.4,0,0,1,3.23-1.36,18.07,18.07,0,0,1-3,1.81c-2,1.1-5,2.69-8.84,4.72-7.7,4.05-18.9,9.82-32.76,16.88C391.68,180.77,353.27,200.07,310.82,221.31Z" style="fill:#ebebeb"></path><path d="M314.85,231.27,198.91,268l-35.08,11.3-9.51,3.14-2.47.85a7.26,7.26,0,0,0-.82.32,4.92,4.92,0,0,0,.86-.21l2.49-.75,9.57-3L199,268.37l115.6-37.78c45.11-14.78,86-28.1,115.62-37.56,14.82-4.74,26.83-8.52,35.15-11.06,4.16-1.27,7.4-2.24,9.61-2.87a18.87,18.87,0,0,1,3.4-.83,17.45,17.45,0,0,1-3.25,1.31c-2.15.78-5.35,1.88-9.47,3.27-8.25,2.79-20.21,6.73-35,11.52C401.08,204,360.11,217,314.85,231.27Z" style="fill:#ebebeb"></path><path d="M317.27,241.75,197,259.76l-36.42,5.64-9.89,1.6-2.57.45a5.59,5.59,0,0,0-.87.19,5.3,5.3,0,0,0,.89-.08l2.58-.35,9.92-1.45,36.42-5.61L317.16,241c46.87-7.49,89.32-14.21,120.08-18.89,15.38-2.34,27.84-4.18,36.46-5.38,4.31-.61,7.66-1.05,9.93-1.32a19.38,19.38,0,0,1,3.5-.29,17.37,17.37,0,0,1-3.42.78c-2.25.43-5.58,1-9.87,1.74-8.58,1.45-21,3.46-36.38,5.86C406.72,228.36,364.21,234.76,317.27,241.75Z" style="fill:#ebebeb"></path><path d="M227.72,46.47s35.79-7.62,40.45,35.27l2.86-15,2.59,9.35,3.08-10.2,1.64,18.69s3.88-37,35.74-38.91c0,0-17.49,8.28-11.29,25.77,0,0-10.75,1.42-13.6,16.38,0,0-12.12,4.75-15.78,18,0,0-4.46-21.51-21.9-21.37,0,0,7.54-17.2-8.53-22.83C243,61.64,242.28,50.85,227.72,46.47Z" style="fill:#e0e0e0"></path><path d="M38,205.75s31.41-6.68,35.5,30.95L76,223.57l2.28,8.21,2.7-8.95,1.44,16.39s3.4-32.45,31.36-34.13c0,0-15.35,7.26-9.91,22.61,0,0-9.43,1.24-11.93,14.37,0,0-10.63,4.17-13.84,15.77,0,0-3.92-18.87-19.23-18.74,0,0,6.62-15.1-7.48-20C51.36,219.06,50.75,209.59,38,205.75Z" style="fill:#e0e0e0"></path><path d="M388.92,327.64s29.73-16.4,42.11-3.8l1.05-7.23,3.48,5.2,5.5-2.05s-1.06-7.51-.6-6.32,4.57,4.78,4.57,4.78,6.76-18.87,32.73-19.33c0,0-15.72,3.35-13.1,16.44,0,0-12-.32-9.14,10.63,0,0-6.9,4.14-4.13,11.78,0,0-6.35-3-7.48-3.06-.6,0-4.23,7.62-4.23,7.62s-2.89-10.08-11.72-6.63c0,0-2-11.66-14.91-3.11C413.05,332.56,413.47,321.39,388.92,327.64Z" style="fill:#e0e0e0"></path><path d="M401,22.23s27.32.1,31.1,13.81l3.57-4.68.41,5,4.67.72s2.2-5.7,2.06-4.68,1.34,5.14,1.34,5.14,12.14-10.62,30.59-.77c0,0-12.37-3.8-15.65,6.43,0,0-8.29-4.9-10.59,3.89,0,0-6.48.22-7.52,6.67,0,0-3.29-4.58-4.06-5.08-.41-.26-6,3.71-6,3.71s1.91-8.22-5.65-9.26c0,0,3.12-9-9.27-8C416.08,35.13,420.75,27.44,401,22.23Z" style="fill:#e0e0e0"></path><path d="M38,49.19s14.7-8.11,20.82-1.87l.52-3.58L61,46.31l2.72-1s-.52-3.72-.29-3.13a14.51,14.51,0,0,0,2.25,2.36S69.06,35.21,81.9,35c0,0-7.77,1.65-6.48,8.13,0,0-5.91-.16-4.52,5.25a4.91,4.91,0,0,0-2,5.83,30.07,30.07,0,0,0-3.7-1.52c-.29,0-2.09,3.77-2.09,3.77s-1.43-5-5.8-3.28c0,0-1-5.76-7.37-1.54C49.9,51.62,50.11,46.1,38,49.19Z" style="fill:#e0e0e0"></path><path d="M25.66,391.34s16.75-1.21,19.7,7l2-3,.49,3.06,2.89.22s1.08-3.59,1-3a14.66,14.66,0,0,0,1,3.1s7-7.07,18.71-1.89c0,0-7.75-1.76-9.29,4.66,0,0-5.31-2.62-6.31,2.88a4.9,4.9,0,0,0-4.29,4.43,29.15,29.15,0,0,0-2.73-2.93c-.26-.14-3.48,2.55-3.48,2.55s.79-5.12-3.89-5.41c0,0,1.5-5.66-6.05-4.49C35.47,398.54,38,393.62,25.66,391.34Z" style="fill:#e0e0e0"></path><path d="M200,452.52s30.4-4,36.69,10.63L240,457.4l1.22,5.52,5.31.08s1.57-6.66,1.57-5.51,2.27,5.51,2.27,5.51,11.88-13.65,33.88-5.51c0,0-14.32-2.35-16.41,9.53,0,0-10-4.19-11.18,5.94,0,0-7.17,1.22-7.34,8.56,0,0-4.36-4.6-5.29-5-.49-.23-6.06,5-6.06,5s.87-9.43-7.69-9.43c0,0,2.1-10.48-11.53-7.51C218.72,464.58,222.74,455.32,200,452.52Z" style="fill:#e0e0e0"></path></g><g id="freepik--ticket-2--inject-34"><path d="M297.09,164a2.85,2.85,0,0,1,2.21-.68,2.9,2.9,0,1,1-2.68,4.57l-31.76,267,141.07,16.78,31.68-266.31a4,4,0,0,1-.49,0,2.9,2.9,0,0,1,.68-5.75,3.39,3.39,0,0,1,.48.1l9.64-81L306.85,81.9Zm7.11,2.82a2.9,2.9,0,1,1,2.53,3.21A2.9,2.9,0,0,1,304.2,166.79Zm8.11,1a2.9,2.9,0,1,1,2.54,3.22A2.89,2.89,0,0,1,312.31,167.75Zm8.12,1a2.9,2.9,0,1,1,2.53,3.22A2.89,2.89,0,0,1,320.43,168.72Zm8.11,1a2.9,2.9,0,1,1,2.53,3.22A2.89,2.89,0,0,1,328.54,169.68Zm8.11,1a2.9,2.9,0,1,1,2.54,3.22A2.9,2.9,0,0,1,336.65,170.65Zm8.12,1a2.9,2.9,0,1,1,2.53,3.22A2.89,2.89,0,0,1,344.77,171.61Zm7.6.91a2.9,2.9,0,1,1,2.54,3.22A2.9,2.9,0,0,1,352.37,172.52Zm8.12,1A2.9,2.9,0,1,1,363,176.7,2.89,2.89,0,0,1,360.49,173.48Zm8.11,1a2.9,2.9,0,1,1,2.53,3.22A2.9,2.9,0,0,1,368.6,174.45Zm8.11,1a2.9,2.9,0,1,1,2.54,3.22A2.89,2.89,0,0,1,376.71,175.41Zm8.12,1a2.9,2.9,0,1,1,2.53,3.22A2.91,2.91,0,0,1,384.83,176.38Zm8.11,1a2.9,2.9,0,1,1,2.54,3.22A2.9,2.9,0,0,1,392.94,177.34Zm8.12,1a2.9,2.9,0,1,1,2.53,3.22A2.9,2.9,0,0,1,401.06,178.31Zm8.11,1a2.9,2.9,0,1,1,2.53,3.22A2.9,2.9,0,0,1,409.17,179.27Zm8.11,1a2.9,2.9,0,1,1,2.54,3.22A2.91,2.91,0,0,1,417.28,180.24Zm14.41,1.61a2.9,2.9,0,1,1-2.54-3.21A2.9,2.9,0,0,1,431.69,181.85Z" style="fill:#263238"></path><path d="M334.72,111.91a8.2,8.2,0,0,1,1.32,5.73,9,9,0,0,1-2,4.71,10.1,10.1,0,0,1-4.76,3.11,16.79,16.79,0,0,1-7.35.52,26,26,0,0,1-6.13-1.5,18.29,18.29,0,0,1-5.07-2.8l3.81-6a13.9,13.9,0,0,0,3.71,2.3,15.39,15.39,0,0,0,4.23,1.14,6.39,6.39,0,0,0,3.53-.39,2.58,2.58,0,0,0,1.55-2.14q.34-2.89-4.2-3.43l-3.52-.42.63-5.3,6-5.1L314.73,101l.78-6.5L337,97.05l-.63,5.26-6.94,5.89A10,10,0,0,1,334.72,111.91Z" style="fill:#fff"></path><path d="M353.91,99.06l-3.53,29.71-8.4-1,2.76-23.22-5.52-.65.77-6.49Z" style="fill:#fff"></path><path d="M310.37,145.42a7.59,7.59,0,0,1-1.64-10.8,7.48,7.48,0,0,1,3.2-2.35,8.82,8.82,0,0,1,4.25-.48,8.61,8.61,0,0,1,4,1.47,7.47,7.47,0,0,1-1.56,13.14,9.36,9.36,0,0,1-8.27-1Zm6.48-2.22a3.79,3.79,0,0,0,1.58-1.29,4.51,4.51,0,0,0,.78-2.11,4.45,4.45,0,0,0-.27-2.23,3.79,3.79,0,0,0-1.23-1.63,4,4,0,0,0-1.93-.75,3.92,3.92,0,0,0-2,.28,3.75,3.75,0,0,0-1.58,1.3,4.33,4.33,0,0,0-.78,2.1,4.43,4.43,0,0,0,.26,2.23,3.79,3.79,0,0,0,1.23,1.63,4,4,0,0,0,1.93.75A3.86,3.86,0,0,0,316.85,143.2Z" style="fill:#FF725E"></path><path d="M327.86,147.51a7.35,7.35,0,0,1-2.53-3,7.52,7.52,0,0,1-.57-4,7.38,7.38,0,0,1,1.5-3.77,7.29,7.29,0,0,1,3.17-2.35,9.42,9.42,0,0,1,7.71.66,6.9,6.9,0,0,1,2.42,2.35l-2.9,2.05a4.39,4.39,0,0,0-5.38-1.84,3.62,3.62,0,0,0-1.61,1.29,4.6,4.6,0,0,0-.76,2.11,4.41,4.41,0,0,0,.25,2.22,3.56,3.56,0,0,0,1.25,1.63,4.24,4.24,0,0,0,2,.77,4.32,4.32,0,0,0,3.62-1.29l2.33,2.67a6.81,6.81,0,0,1-2.89,1.72,8.88,8.88,0,0,1-3.67.28A8.74,8.74,0,0,1,327.86,147.51Z" style="fill:#FF725E"></path><path d="M344.25,138.72l-4.46-.53.39-3.25,13,1.54-.39,3.26-4.44-.53L347,150.47l-4.1-.49Z" style="fill:#FF725E"></path><path d="M359.3,171.52c-.14,0,1.93-18.43,4.63-41.14s5-41.09,5.15-41.08-1.93,18.44-4.63,41.15S359.45,171.54,359.3,171.52Z" style="fill:#455a64"></path><path d="M378.32,100.3l-1,8.49-2.4-.28.79-6.64-1.58-.19.22-1.86Z" style="fill:#FF725E"></path><path d="M380.44,108.81a3.55,3.55,0,0,1-1.15-1.68,5.48,5.48,0,0,1-.2-2.43,5.35,5.35,0,0,1,.77-2.32,3.49,3.49,0,0,1,1.5-1.36,3.66,3.66,0,0,1,2-.29,3.51,3.51,0,0,1,1.86.75,3.45,3.45,0,0,1,1.15,1.68,6.13,6.13,0,0,1-.56,4.74,3.53,3.53,0,0,1-1.51,1.37,3.89,3.89,0,0,1-3.87-.46Zm3.15-1.69a3.87,3.87,0,0,0,.58-1.82,3.78,3.78,0,0,0-.14-1.91,1.1,1.1,0,0,0-1.94-.23,3.69,3.69,0,0,0-.58,1.82,3.8,3.8,0,0,0,.13,1.91,1.11,1.11,0,0,0,1.95.23Z" style="fill:#FF725E"></path><path d="M387.25,109.69a1.33,1.33,0,0,1-.29-1,1.31,1.31,0,0,1,.52-.94,1.52,1.52,0,0,1,2,.24,1.3,1.3,0,0,1,.27,1,1.32,1.32,0,0,1-.51.93,1.46,1.46,0,0,1-2-.23Zm.48-4.07a1.29,1.29,0,0,1-.28-1,1.32,1.32,0,0,1,.51-.93,1.51,1.51,0,0,1,2,.23,1.32,1.32,0,0,1,.27,1,1.29,1.29,0,0,1-.51.94,1.33,1.33,0,0,1-1,.27A1.36,1.36,0,0,1,387.73,105.62Z" style="fill:#FF725E"></path><path d="M392.18,110.2a3.52,3.52,0,0,1-1.15-1.68,5.46,5.46,0,0,1-.19-2.43,5.35,5.35,0,0,1,.76-2.31,3.53,3.53,0,0,1,1.51-1.37,3.88,3.88,0,0,1,3.87.46,3.62,3.62,0,0,1,1.15,1.68,6.22,6.22,0,0,1-.57,4.75,3.51,3.51,0,0,1-1.51,1.36,3.83,3.83,0,0,1-3.87-.46Zm3.15-1.68a5,5,0,0,0,.44-3.73,1.09,1.09,0,0,0-.89-.7,1.11,1.11,0,0,0-1.05.47,3.76,3.76,0,0,0-.58,1.82,3.67,3.67,0,0,0,.14,1.91,1.1,1.1,0,0,0,1.94.23Z" style="fill:#FF725E"></path><path d="M400.49,111.19a3.51,3.51,0,0,1-1.14-1.68,6.13,6.13,0,0,1,.56-4.74,3.53,3.53,0,0,1,1.51-1.37,3.63,3.63,0,0,1,2-.29,3.75,3.75,0,0,1,1.87.75,3.55,3.55,0,0,1,1.15,1.68,5.63,5.63,0,0,1,.2,2.43,5.49,5.49,0,0,1-.77,2.32,3.51,3.51,0,0,1-1.51,1.36,3.89,3.89,0,0,1-3.87-.46Zm3.15-1.68a3.74,3.74,0,0,0,.58-1.83,3.64,3.64,0,0,0-.14-1.9,1.08,1.08,0,0,0-.89-.7,1.1,1.1,0,0,0-1.05.47,5,5,0,0,0-.44,3.72,1.11,1.11,0,0,0,.91.71A1.09,1.09,0,0,0,403.64,109.51Z" style="fill:#FF725E"></path><path d="M417.77,105.38a3,3,0,0,1,1.18,1.25,3.3,3.3,0,0,1-.39,3.33,3.11,3.11,0,0,1-1.44.93,5,5,0,0,1-2.05.14l-1.48-.18-.27,2.23-2.4-.29,1-8.49,3.89.46A4.92,4.92,0,0,1,417.77,105.38Zm-1.47,3.55a1.13,1.13,0,0,0,.49-.87,1.15,1.15,0,0,0-.27-1,1.7,1.7,0,0,0-1.08-.46l-1.33-.16-.3,2.49,1.34.16A1.64,1.64,0,0,0,416.3,108.93Z" style="fill:#FF725E"></path><path d="M419.46,113.52a1.42,1.42,0,0,1,.23-2,1.51,1.51,0,0,1,2,.23,1.31,1.31,0,0,1,.27,1,1.29,1.29,0,0,1-.51.94,1.45,1.45,0,0,1-2-.24Z" style="fill:#FF725E"></path><path d="M430.65,115.14l.51-4.51L428.54,114l-1.06-.13-1.75-3.8-.53,4.38-2.22-.27,1-8.49,2,.24,2.4,5.25,3.5-4.55,2,.23-1,8.5Z" style="fill:#FF725E"></path><path d="M372.73,115.13l5.41.64-1.76,14.84,9.12,1.08L385,136l-14.53-1.72Z" style="fill:#455a64"></path><path d="M389.4,117.11l5.41.64-2.28,19.13-5.41-.64Z" style="fill:#455a64"></path><path d="M418,120.51l-10.47,18.16-5.33-.64-5.9-20.1,5.85.7,3.71,13.08,6.78-11.83Z" style="fill:#455a64"></path><path d="M432.71,137.42l-.5,4.18-15.35-1.83,2.27-19.12,15,1.78-.5,4.18L424,125.46l-.38,3.23,8.49,1-.48,4-8.5-1-.41,3.5Z" style="fill:#455a64"></path><path d="M380.45,152.79l.78-6.86-4,5.18-1.63-.19L373,145.13l-.79,6.67-3.38-.4,1.53-12.94,3,.36,3.66,8,5.32-6.94,3,.36-1.5,12.94Z" style="fill:#455a64"></path><path d="M388,152.36a6,6,0,0,1-1.07-4.64l.86-7.17,3.65.43-.84,7.06c-.24,2.07.45,3.2,2.09,3.4s2.56-.75,2.81-2.82l.84-7.05,3.6.42-.85,7.17a6,6,0,0,1-2.13,4.26,6.1,6.1,0,0,1-4.66,1A6.18,6.18,0,0,1,388,152.36Z" style="fill:#455a64"></path><path d="M402.43,155.27a7.87,7.87,0,0,1-2.28-1.32l1.52-2.56a8.24,8.24,0,0,0,4.12,1.79c1.4.16,2.15-.1,2.23-.8a.88.88,0,0,0-.5-.9,11.59,11.59,0,0,0-1.86-.79,18.54,18.54,0,0,1-2.36-1,4.11,4.11,0,0,1-1.55-1.35,3.17,3.17,0,0,1-.44-2.23,3.65,3.65,0,0,1,.9-2,4.3,4.3,0,0,1,2.11-1.28,7.9,7.9,0,0,1,3.21-.18,11.07,11.07,0,0,1,2.48.59,7.59,7.59,0,0,1,2.08,1.1l-1.45,2.58a7.64,7.64,0,0,0-3.46-1.43,3,3,0,0,0-1.63.14,1,1,0,0,0-.6.78.82.82,0,0,0,.5.84,10.67,10.67,0,0,0,1.84.77,17.51,17.51,0,0,1,2.36,1,4.28,4.28,0,0,1,1.55,1.35,3.13,3.13,0,0,1,.46,2.22,3.65,3.65,0,0,1-.9,2,4.47,4.47,0,0,1-2.12,1.27,7.91,7.91,0,0,1-3.21.19A11.79,11.79,0,0,1,402.43,155.27Z" style="fill:#455a64"></path><path d="M414.41,143.71l3.66.44-1.54,12.93-3.66-.44Z" style="fill:#455a64"></path><path d="M422,157.12a6.44,6.44,0,0,1-2.25-2.69,6.56,6.56,0,0,1-.51-3.59,6.67,6.67,0,0,1,1.33-3.36,6.43,6.43,0,0,1,2.83-2.09,7.67,7.67,0,0,1,3.75-.43,7.92,7.92,0,0,1,3.12,1,6.15,6.15,0,0,1,2.15,2.09l-2.58,1.83A3.82,3.82,0,0,0,427,148a3.78,3.78,0,0,0-1.94.23,3.21,3.21,0,0,0-1.42,1.16,4.3,4.3,0,0,0-.46,3.86,3.14,3.14,0,0,0,1.12,1.45,3.89,3.89,0,0,0,5-.47l2.08,2.39a6.25,6.25,0,0,1-2.58,1.53,8,8,0,0,1-3.27.24A7.74,7.74,0,0,1,422,157.12Z" style="fill:#455a64"></path><path d="M372.06,161.61l-3.87-.46-1,1.73-1.07-.13,4.16-6.88,1,.12,2.44,7.67-1.09-.13Zm-.27-.87L370.65,157l-2,3.38Z" style="fill:#fff"></path><path d="M375.68,156.51l3.06.36a4.55,4.55,0,0,1,2,.71A3.29,3.29,0,0,1,382,159a3.92,3.92,0,0,1-.45,3.8,3.43,3.43,0,0,1-1.54,1.12,4.52,4.52,0,0,1-2.1.21l-3.07-.36Zm2.24,6.73a3.36,3.36,0,0,0,1.6-.16,2.43,2.43,0,0,0,1.15-.84,2.73,2.73,0,0,0,.53-1.38,2.8,2.8,0,0,0-.19-1.48,2.52,2.52,0,0,0-.92-1.08,3.44,3.44,0,0,0-1.52-.53l-2-.23L376,163Z" style="fill:#fff"></path><path d="M390.14,165.61l.63-5.3-3.16,4.1-.48,0-2.11-4.7-.62,5.27-1-.12.86-7.28.85.1,2.43,5.48,3.61-4.76.85.1-.86,7.28Z" style="fill:#fff"></path><path d="M394.19,158.71l1,.13-.87,7.27-1-.12Z" style="fill:#fff"></path><path d="M398.75,160.17l-2.49-.3.1-.9,6,.72-.11.9-2.49-.3-.76,6.38-1-.13Z" style="fill:#fff"></path><path d="M406.79,167.18a3.78,3.78,0,0,1-.77-5.3,3.51,3.51,0,0,1,1.54-1.17,4.3,4.3,0,0,1,4,.47,3.62,3.62,0,0,1,1.23,1.49,3.83,3.83,0,0,1,.27,2,3.69,3.69,0,0,1-.73,1.85,3.59,3.59,0,0,1-1.54,1.17,4.05,4.05,0,0,1-2,.24A3.93,3.93,0,0,1,406.79,167.18Zm3.52-.39a2.78,2.78,0,0,0,1.67-2.27,2.83,2.83,0,0,0-.2-1.48,2.71,2.71,0,0,0-.89-1.12,3.09,3.09,0,0,0-2.89-.34,2.67,2.67,0,0,0-1.14.88,3,3,0,0,0-.54,1.38,2.94,2.94,0,0,0,.2,1.48,2.73,2.73,0,0,0,.9,1.12,3,3,0,0,0,1.41.54A2.92,2.92,0,0,0,410.31,166.79Z" style="fill:#fff"></path><path d="M421.3,161.94l-.87,7.27-.85-.1-3.72-5.94-.64,5.42-1-.12.86-7.28.85.1,3.72,6,.65-5.43Z" style="fill:#fff"></path><path d="M428,169.2l-.1.9-5.28-.63.86-7.27,5.14.61-.11.9-4.1-.49-.26,2.24,3.65.43-.11.89-3.65-.44-.28,2.35Z" style="fill:#fff"></path><path d="M311.37,157.49a2.45,2.45,0,0,1-.76-1.18,3.91,3.91,0,0,1-.12-1.7A4.07,4.07,0,0,1,311,153a2.53,2.53,0,0,1,1-1,2.26,2.26,0,0,1,1.32-.21,2.21,2.21,0,0,1,1.23.52,2.53,2.53,0,0,1,.75,1.17,4,4,0,0,1,.12,1.71,4.12,4.12,0,0,1-.51,1.63,2.5,2.5,0,0,1-1,1,2.19,2.19,0,0,1-1.32.22A2.28,2.28,0,0,1,311.37,157.49Zm2.56-.71a3.67,3.67,0,0,0,.42-3.47A1.46,1.46,0,0,0,312,153a3.7,3.7,0,0,0-.41,3.47,1.45,1.45,0,0,0,2.34.28Z" style="fill:#455a64"></path><path d="M317.15,158.18a2.51,2.51,0,0,1-.75-1.18,4.53,4.53,0,0,1,.4-3.33,2.47,2.47,0,0,1,1-1,2.43,2.43,0,0,1,2.55.31,2.53,2.53,0,0,1,.75,1.17,4.55,4.55,0,0,1-.4,3.34,2.42,2.42,0,0,1-1,1,2.28,2.28,0,0,1-1.32.22A2.35,2.35,0,0,1,317.15,158.18Zm2.57-.71a3,3,0,0,0,.65-1.69,2.87,2.87,0,0,0-.24-1.78,1.36,1.36,0,0,0-1.09-.74,1.38,1.38,0,0,0-1.25.46,3.7,3.7,0,0,0-.41,3.47,1.45,1.45,0,0,0,2.34.28Z" style="fill:#455a64"></path><path d="M324.29,153.17l-.73,6.08-.86-.11.64-5.32-1.37-.16.09-.76Z" style="fill:#455a64"></path><path d="M329.25,159.16l-.09.75-4.36-.52.07-.59,2.75-2.09a2.84,2.84,0,0,0,.7-.68,1.34,1.34,0,0,0,.23-.62.89.89,0,0,0-.24-.78,1.54,1.54,0,0,0-.93-.38,1.93,1.93,0,0,0-1.63.47l-.53-.58a2.32,2.32,0,0,1,1-.56,3.2,3.2,0,0,1,1.32-.09,2.35,2.35,0,0,1,1.46.63,1.54,1.54,0,0,1,.42,1.31,2,2,0,0,1-.32.89,3.6,3.6,0,0,1-.9.9l-2.07,1.57Z" style="fill:#455a64"></path><path d="M333.92,157.46a1.62,1.62,0,0,1,.32,1.24,1.72,1.72,0,0,1-.37.91,1.75,1.75,0,0,1-.85.58,3,3,0,0,1-1.3.1,4.18,4.18,0,0,1-1.22-.35,2.59,2.59,0,0,1-.92-.66l.48-.64a2.15,2.15,0,0,0,.74.57,2.88,2.88,0,0,0,1,.3,1.66,1.66,0,0,0,1.08-.16.94.94,0,0,0,.48-.74,1,1,0,0,0-.28-.83,2,2,0,0,0-1.1-.41l-.49-.06.08-.61,1.75-1.69-2.93-.35.09-.75,4,.48-.07.59-1.82,1.77A2.24,2.24,0,0,1,333.92,157.46Z" style="fill:#455a64"></path><path d="M338.94,157.56a1.83,1.83,0,0,1,.67.74,1.67,1.67,0,0,1,.15,1,1.8,1.8,0,0,1-.4,1,1.83,1.83,0,0,1-.85.58,2.49,2.49,0,0,1-1.13.11,2.38,2.38,0,0,1-1.79-1,3.45,3.45,0,0,1-.4-2.32,3.8,3.8,0,0,1,.57-1.69,2.57,2.57,0,0,1,1.13-1,3,3,0,0,1,1.55-.19,4.2,4.2,0,0,1,.83.19,2.59,2.59,0,0,1,.64.35l-.41.64a2.08,2.08,0,0,0-1.13-.43,1.93,1.93,0,0,0-1.55.41,2.45,2.45,0,0,0-.74,1.64c0,.1,0,.17,0,.22a1.65,1.65,0,0,1,.79-.51,2.7,2.7,0,0,1,2.09.27Zm-.5,2.49a1.11,1.11,0,0,0,.48-.82,1.06,1.06,0,0,0-.28-.9,1.57,1.57,0,0,0-1-.44,1.69,1.69,0,0,0-.75.08,1.2,1.2,0,0,0-.54.36,1.12,1.12,0,0,0-.25.58,1.16,1.16,0,0,0,.1.61,1.18,1.18,0,0,0,.44.48,1.75,1.75,0,0,0,.76.25A1.45,1.45,0,0,0,338.44,160.05Z" style="fill:#455a64"></path><path d="M344.69,156.33a3.44,3.44,0,0,1,.4,2.32,3.76,3.76,0,0,1-.57,1.68,2.52,2.52,0,0,1-1.13,1,3,3,0,0,1-1.55.19,4.2,4.2,0,0,1-.83-.19,2.3,2.3,0,0,1-.64-.35l.41-.63a2.2,2.2,0,0,0,1.14.42,1.9,1.9,0,0,0,1.55-.41,2.47,2.47,0,0,0,.73-1.64l0-.22a1.7,1.7,0,0,1-.79.51,2.48,2.48,0,0,1-1.06.08,2.38,2.38,0,0,1-1.05-.35,1.85,1.85,0,0,1-.66-.73,1.87,1.87,0,0,1-.15-1,1.81,1.81,0,0,1,.41-1,1.9,1.9,0,0,1,.85-.58,2.43,2.43,0,0,1,1.12-.11A2.36,2.36,0,0,1,344.69,156.33Zm-1.33,2a1.2,1.2,0,0,0,.55-.37,1.09,1.09,0,0,0,.25-.58,1.12,1.12,0,0,0-.1-.6,1.23,1.23,0,0,0-.45-.49,1.84,1.84,0,0,0-.76-.25,1.4,1.4,0,0,0-1,.21,1.06,1.06,0,0,0-.47.81,1.09,1.09,0,0,0,.27.9,1.52,1.52,0,0,0,1,.44A1.69,1.69,0,0,0,343.36,158.31Z" style="fill:#455a64"></path><path d="M417.51,359.06c-14,4-26.87,11.28-40.09,17.47S350,388,335.44,387.37c-23.29-.93-43.22-16.2-61.4-30.8l-9.31,78.27,141.2,16.8Z" style="fill:#455a64"></path><circle cx="356.99" cy="261.75" r="64.45" transform="translate(-80.53 329.09) rotate(-45)" style="fill:#FF725E"></circle><g style="opacity:0.2"><path d="M353,253.75c-1.28-.45-2.6.86-2.86,2.21a23.25,23.25,0,0,0,.12,4.08c0,1.37-.69,2.94-2,3.2a20,20,0,0,1-2.18-.1c-1.48.11-2.48,1.48-3.62,2.43-3.17,2.61-8.05,2.13-11.34,4.6-3.94,3-4.39,9.23-8.58,11.83-1.48.92-3.3,1.28-4.59,2.46-2.73,2.51-1.43,7.3,1.33,9.78a12.41,12.41,0,0,0,15.13.81c2.33-1.68,4.06-4.19,6.65-5.43a15.94,15.94,0,0,1,5.62-1.17c4.16-.36,9-.44,11.7,2.78,2.33,2.82,1.9,7,3.28,10.39a12.79,12.79,0,0,0,7.3,6.76A25,25,0,0,0,379,309.79c3.4-.1,6.91-.59,9.78-2.41a2,2,0,0,0,.95-1,2.18,2.18,0,0,0-.29-1.5l-2.85-6.35a4.28,4.28,0,0,1-.56-2.45,4.07,4.07,0,0,1,1.83-2.31,15,15,0,0,1,6.76-3.27c4.36-.6,9.28,2,13-.45a11.26,11.26,0,0,0,3.39-4.49l3.33-6.44c2.71-5.26,5.5-11.08,4.2-16.85-.43-1.88-1.28-3.67-1.41-5.59-.16-2.17.62-4.29.95-6.44,1-6.56-2.31-13.16-6.93-17.93-2.09-2.16-4.47-4.08-6.1-6.6-1.41-2.16-2.21-4.7-3.84-6.71a10.25,10.25,0,0,0-8.14-3.71,3.28,3.28,0,0,0-2.89,1.32,3.89,3.89,0,0,0-.14,2.57q1.08,6.29,2.18,12.58a22.16,22.16,0,0,1,.39,8.06c-.53,2.66-2.29,5.25-4.9,5.95-3.05.83-6.08-1-9-2.29s-6.91-1.69-8.63,1c-1.45,2.24-.55,5.83-2.78,7.3a4.36,4.36,0,0,1-1.83.61c-2.44.34-4.91-.19-7.38-.25s-5.17.47-6.74,2.38"></path></g><g style="opacity:0.2"><path d="M299.77,233.12a25.89,25.89,0,0,0-1.89,11.34,4.37,4.37,0,0,0,2.44,3.76c2.49,1.16,4.48-.85,6.2-2.48,1.47-1.39,3.64-2.69,5.38-1.67a5.34,5.34,0,0,1,1.56,1.68c2.23,3.16,5,6.12,8.51,7.68s8,1.45,11-1.05c1.64-1.39,2.7-3.39,4.41-4.69a7.34,7.34,0,0,1,8.57-.21,6.32,6.32,0,0,0,2.18,1.06c3.84.91,4.7-2.42,4.39-5a14.05,14.05,0,0,0-3.79-7.95c-2.08-2.17-4.87-3.66-6.05-6.67a4.47,4.47,0,0,1,.21-3.89c1.83-3.1,6.41-1.82,9.32-3.63,2.34-1.46,3-4.51,3.44-7.24a7.87,7.87,0,0,0-.09-3.89,2.73,2.73,0,0,0-3.07-1.85,82.09,82.09,0,0,0,9.24-2.56,3.87,3.87,0,0,0-.16-7.36,19.8,19.8,0,0,0-3.25-.64,57.21,57.21,0,0,0-15.73,1c-8.44,2.22-12.26,3.89-19.89,8.28-2.35,1.35-7.36,5.49-9.51,7.15a37.93,37.93,0,0,0-5.3,5.3,44,44,0,0,0-8.08,13.47"></path></g><path d="M308.75,295.63a.84.84,0,0,1-.11-.11l-.29-.33-1.14-1.28c-.47-.58-1-1.33-1.61-2.18-.31-.43-.59-.93-.91-1.43l-.49-.79c-.17-.27-.33-.55-.48-.85A53.56,53.56,0,0,1,300,280.1a64.77,64.77,0,0,1-2.51-11.16c-.11-1-.21-2-.32-3s-.1-2-.15-2.91L297,261.6c0-.47,0-.93,0-1.39,0-.92,0-1.83,0-2.71s.15-1.73.21-2.56.11-1.64.25-2.41.23-1.52.33-2.24.19-1.42.36-2.06c.28-1.3.54-2.47.77-3.51s.54-1.89.74-2.6.38-1.25.5-1.64c.05-.18.1-.32.13-.43s.05-.14.06-.14l0,.15-.12.43c-.1.39-.25.95-.44,1.65s-.47,1.59-.71,2.61-.46,2.21-.74,3.51c-.15.65-.22,1.34-.33,2.06s-.21,1.46-.32,2.23-.15,1.58-.23,2.41-.13,1.68-.2,2.55,0,1.78,0,2.7l0,1.39.07,1.42c.05,1,.07,1.92.15,2.9s.22,2,.32,3A65.27,65.27,0,0,0,300.21,280a55.46,55.46,0,0,0,3.66,8.55c.15.3.31.58.48.85l.47.79c.32.5.59,1,.89,1.43.62.86,1.12,1.61,1.58,2.2l1.09,1.31.28.35Q308.77,295.63,308.75,295.63Z" style="fill:#fff"></path><path d="M326.74,210a1.63,1.63,0,0,1-.3.19l-.9.5c-.39.21-.87.47-1.41.8s-1.16.68-1.82,1.14l-1,.68c-.36.24-.72.52-1.1.79-.77.53-1.54,1.17-2.36,1.82a49.63,49.63,0,0,0-9.25,10c-.58.88-1.15,1.7-1.62,2.5-.24.41-.49.78-.7,1.16l-.6,1.1c-.4.69-.7,1.34-1,1.9s-.51,1.06-.69,1.47l-.43.94a1.5,1.5,0,0,1-.16.32,1.37,1.37,0,0,1,.12-.34c.1-.24.22-.56.38-1s.38-.91.66-1.48.56-1.24.95-1.93c.19-.36.38-.73.59-1.11s.45-.77.69-1.17c.46-.82,1-1.64,1.61-2.53a53.63,53.63,0,0,1,4.28-5.36,51.12,51.12,0,0,1,5-4.7c.83-.65,1.61-1.28,2.38-1.81.39-.27.75-.54,1.11-.78l1.06-.68c.66-.44,1.3-.78,1.85-1.1s1-.58,1.43-.78l.92-.45A1.58,1.58,0,0,1,326.74,210Z" style="fill:#fff"></path><path d="M373.89,231.4l-11.29,1.45s-7.71-7-11.39-6.9-8.48-.86-11.82,11.05l-5.66,2.87,6.32-.81c1.91-.25,4.12-4.23,4.12-4.23l4.24-.35,2,3.25-10.55,7.19,4-.52s-4.83,3.35-3.41,5.31a33.14,33.14,0,0,0,3.41,3.84S330.27,272,332,276.47a10.25,10.25,0,0,0,5,5.78L326,285.42l-.24-1.91-2.44,2.26s-3.48-2.86-6.54-2.47-15.12,11.09-19.4,11.05l4.28,0-5,2s4.43,7.22,14.34,2.63,13-9.26,13-9.26l3.28,1.33V288l12.84-4.57.7,6.92,4.66,0-3,8.37,6.81,3-2.65-5.49L351,288l6-1.55L354.5,294l6.93,2.41-3.4-5.2s13.75-18.7,13.92-18.91,33.23-12.44,33.23-12.44l-1.58-1.75-20.33,7.48-12.19,4.48L363.29,267l.54-3.38,12.45,4.23,2.44-.58-4.79-5.34L387.41,264l-22.59-19.95,3.29-1.6L364.3,240l4.51-2.72-5.26-.11Z" style="fill:#263238"></path><path d="M417.83,230A394.06,394.06,0,0,0,378,246.75a34,34,0,0,1,12.73-12.32c-.87-2.87-1.44-6.05-.2-8.78s5-4.44,7.37-2.66c.54-4.64,1.19-9.53,4.08-13.19s8.82-5.34,12.26-2.19" style="fill:#263238"></path><path d="M330.39,326.41a321.69,321.69,0,0,1,33.72-11.2,27.94,27.94,0,0,0-14.54-.75c-1-2.24-2.38-4.52-4.62-5.54s-5.47-.07-6,2.33c-2.85-2.57-5.89-5.25-9.66-6S315.6,303.66,317,317.51" style="fill:#263238"></path><path d="M309.78,393.32l-.92,7.69-2.17-.26.35-3-3-.35-.36,3-2.18-.26.92-7.69,2.17.26-.34,2.89,3,.35.34-2.89Z" style="fill:#fff"></path><path d="M315.73,400.31l-3.25-.39-.78,1.43-2.22-.27,4.31-7.28,2.14.25,2.49,8.1-2.26-.27Zm-.45-1.68-.69-2.58-1.28,2.35Z" style="fill:#fff"></path><path d="M320,394.53l2.17.26-.71,6,3.67.44-.2,1.72-5.85-.69Z" style="fill:#fff"></path><path d="M326.65,395.33l2.17.26-.71,6,3.67.44-.2,1.72-5.85-.69Z" style="fill:#fff"></path><path d="M334,403.64a3.89,3.89,0,0,1-1.66-3.73,3.79,3.79,0,0,1,.8-2,3.85,3.85,0,0,1,1.69-1.25,4.7,4.7,0,0,1,2.26-.25,4.59,4.59,0,0,1,2.13.77,4,4,0,0,1,1.35,1.61,3.9,3.9,0,0,1,.31,2.12,3.79,3.79,0,0,1-.8,2,3.85,3.85,0,0,1-1.69,1.25,5,5,0,0,1-4.39-.52Zm3.44-1.18a2,2,0,0,0,.84-.68,2.4,2.4,0,0,0,.41-1.12,2.42,2.42,0,0,0-.14-1.18,2.08,2.08,0,0,0-3.61-.43,2.51,2.51,0,0,0-.41,1.12,2.42,2.42,0,0,0,.14,1.18,2.12,2.12,0,0,0,2.77,1.11Z" style="fill:#fff"></path><path d="M354.32,398.62,350.91,406l-2.33-.28-.91-4.85-2.1,4.5-2.32-.28-1.58-8,2.24.27,1,5.09,2.21-4.71,2,.24,1,5.13,2.21-4.76Z" style="fill:#fff"></path><path d="M360.56,405.45l-.2,1.69-6.17-.74.91-7.69,6,.72-.2,1.68-3.88-.46-.15,1.29,3.42.41-.2,1.63-3.41-.41-.17,1.41Z" style="fill:#fff"></path><path d="M367.94,406.33l-.2,1.68-6.17-.73.91-7.69,6,.72-.2,1.68-3.88-.46-.16,1.29,3.42.41-.19,1.62-3.42-.4-.17,1.4Z" style="fill:#fff"></path><path d="M377.18,401.34l-.91,7.69-1.79-.22-2.91-4.5-.49,4.1-2.13-.25.92-7.69,1.79.21,2.91,4.5.48-4.1Z" style="fill:#fff"></path><path d="M305.83,406.31a6.93,6.93,0,0,1,2.72,2.87,7,7,0,0,1,.6,4,6.62,6.62,0,0,1-4.82,5.83,11.25,11.25,0,0,1-4.71.33l-3.4-.4-.61,5.1-5.52-.65,2.32-19.53,8.92,1.06A11.21,11.21,0,0,1,305.83,406.31Zm-3.37,8.17a3,3,0,0,0,.5-4.23,3.87,3.87,0,0,0-2.48-1.06l-3.07-.36-.68,5.72,3.07.36A3.9,3.9,0,0,0,302.46,414.48Z" style="fill:#fff"></path><path d="M322.92,423.4l-8.26-1-2,3.61-5.64-.67L318,406.86l5.44.65,6.33,20.55-5.75-.68Zm-1.13-4.26L320,412.59l-3.25,6Z" style="fill:#fff"></path><path d="M340.46,424.08l-3-.36-.62,5.19-5.52-.66,2.32-19.52,8.93,1.06a11.21,11.21,0,0,1,4.49,1.42,6.93,6.93,0,0,1,2.72,2.87,7,7,0,0,1,.6,4,6.54,6.54,0,0,1-4.55,5.71l3.48,6.64-5.91-.71Zm3.72-8.92a3.82,3.82,0,0,0-2.48-1.06l-3.06-.37-.68,5.72,3.06.37a3.9,3.9,0,0,0,2.66-.44,3,3,0,0,0,.5-4.22Z" style="fill:#fff"></path><path d="M357.63,416l-6-.71.52-4.38L369.64,413l-.52,4.38-6-.71-1.8,15.14-5.53-.66Z" style="fill:#fff"></path><path d="M380.19,427l-.83,7-5.52-.66.84-7.09-6-13.32,5.83.69,3.7,8.31,5.55-7.21,5.36.64Z" style="fill:#fff"></path><polyline points="301.19 384.48 306.43 371.96 317.73 359.52 310.62 365.63 300.99 373.91 301.5 367 304.28 361.13 293.9 370.05 285.83 366.85 289.49 364.91 293.63 362.19 295.89 358.89 297.34 354.24 299.01 349.4 297.33 350.16 295.89 353.78 291.27 359.44 280.44 360.58 287.24 354.75 273.75 358.81" style="fill:#455a64"></polyline><path d="M406.27,364.39l.79-8.92L399.17,367l3.75-19.08s-7.66,15.47-10.86,22.11l-.64-3.27-.58-16.79-.83,9.34-2.47,8.94-3.11-1.59-2.1-6.15v8l-4,.11-2.74,3.4-.13-3.36-.69-3.94-2.21-4.34-2.18-4.63-.67,1.72,1.49,3.59.66,7.28-5.6,4.74-.58-5.28L359.53,376l2-15.78s-6.49,11.88-9.37,17.89l-3.08,1-2-16.68,0,9.37L347,384.53l-7-2.37-.52-8.5-6.33,13.13,2.08,5.31,15.67-6.51,1.57,5.57,40.23-17.85-.27-1.38,20.32-4.9-1.31-4.6Z" style="fill:#455a64"></path><polygon points="328.41 380.98 329.38 380.9 328.54 380.8 328.41 380.98" style="fill:#455a64"></polygon><path d="M331.68,384.71l.77-7.86.46-4.85.63-5.08L332.06,368l-.66,3.84-3.34,6.5-7.07,1.3,2.14-5.06-8.88,2.81L323.69,366s-18.89,7.5-19.51,8.32l-5.76,11.09,28.86,7.7,14.82-6.2Z" style="fill:#455a64"></path><polygon points="297.14 331.11 296 338.52 289.08 338.04 289.11 341.48 295.57 342.7 291.56 378.46 295.3 378.74 299.73 343.53 305.89 344.44 307.07 341.01 299.97 339.9 301.79 331.11 297.14 331.11" style="fill:#455a64"></polygon><polygon points="401.81 330.49 400.66 337.9 393.75 337.42 393.77 340.86 400.23 342.08 396.22 377.84 399.97 378.12 404.4 342.91 410.56 343.82 411.74 340.39 404.64 339.28 406.45 330.49 401.81 330.49" style="fill:#455a64"></polygon><polygon points="340.43 335.98 338.32 349.69 325.54 348.79 325.58 355.17 337.52 357.42 333.86 387.57 340.78 388.09 345.23 358.95 356.61 360.64 358.8 354.29 345.67 352.23 349.03 335.99 340.43 335.98" style="fill:#455a64"></polygon><path d="M312.87,190.33a1,1,0,0,1-1.13.89,1,1,0,0,1-.89-1.13,1,1,0,0,1,1.13-.89A1,1,0,0,1,312.87,190.33Z" style="fill:#FF725E"></path><path d="M410.48,319.7a1,1,0,1,1-.89-1.13A1,1,0,0,1,410.48,319.7Z" style="fill:#FF725E"></path><path d="M346.12,184.75a.51.51,0,0,1-.56.45.52.52,0,0,1-.45-.57.51.51,0,0,1,1,.12Z" style="fill:#FF725E"></path><path d="M291.72,300.77a.51.51,0,0,1-.56.45.52.52,0,0,1-.45-.57.51.51,0,0,1,.57-.44A.49.49,0,0,1,291.72,300.77Z" style="fill:#FF725E"></path></g><g id="freepik--ticket-1--inject-34"><path d="M252.89,339a3,3,0,1,1-.44-4L221.8,60.36,76.68,76.55l30.57,274a2.68,2.68,0,0,1,.49-.11,3,3,0,1,1,.66,5.92,2.8,2.8,0,0,1-.5,0l9.29,83.31,145.12-16.19Zm-7.77-1.16a3,3,0,1,1-3.29-2.63A3,3,0,0,1,245.12,337.87Zm-8.35.93a3,3,0,1,1-3.29-2.63A3,3,0,0,1,236.77,338.8Zm-8.35.93a3,3,0,1,1-3.29-2.63A3,3,0,0,1,228.42,339.73Zm-8.34.93a3,3,0,1,1-3.29-2.63A3,3,0,0,1,220.08,340.66Zm-8.35.93a3,3,0,1,1-3.29-2.63A3,3,0,0,1,211.73,341.59Zm-8.35.93a3,3,0,1,1-3.29-2.62A3,3,0,0,1,203.38,342.52Zm-7.82.88a3,3,0,1,1-3.29-2.63A3,3,0,0,1,195.56,343.4Zm-8.35.93a3,3,0,1,1-3.29-2.63A3,3,0,0,1,187.21,344.33Zm-8.35.93a3,3,0,1,1-3.29-2.63A3,3,0,0,1,178.86,345.26Zm-8.34.93a3,3,0,1,1-3.29-2.63A3,3,0,0,1,170.52,346.19Zm-8.35.93a3,3,0,1,1-3.29-2.63A3,3,0,0,1,162.17,347.12Zm-8.35.93a3,3,0,1,1-3.29-2.62A3,3,0,0,1,153.82,348.05Zm-8.34.94a3,3,0,1,1-3.29-2.63A3,3,0,0,1,145.48,349Zm-8.35.93a3,3,0,1,1-3.29-2.63A3,3,0,0,1,137.13,349.92Zm-8.35.93a3,3,0,1,1-3.29-2.63A3,3,0,0,1,128.78,350.85ZM114,352.6a3,3,0,1,1,3.29,2.63A3,3,0,0,1,114,352.6Z" style="fill:#263238"></path><rect x="89.28" y="67.73" width="146.02" height="235.39" transform="translate(-19.56 19.14) rotate(-6.37)" style="fill:#FF725E"></rect><g style="opacity:0.2"><path d="M199.14,255.63l-5.65,2.76,12.84,7.55,38.21-1.79-3-27S199.94,256.31,199.14,255.63Z" style="fill:#fff"></path></g><g style="opacity:0.2"><path d="M142.66,267.78l6.12,1.44-10.86,10.2-37.66,6.68-3-27S142,268.62,142.66,267.78Z" style="fill:#fff"></path></g><g style="opacity:0.2"><polygon points="226.15 99.31 192.11 225.84 201.97 244.11 237.27 199.01 226.15 99.31" style="fill:#fff"></polygon></g><g style="opacity:0.2"><polygon points="80.45 111.63 141.53 227.55 135.94 247.55 91.57 211.34 80.45 111.63" style="fill:#fff"></polygon></g><g style="opacity:0.2"><path d="M116.83,72.07s51.65,230.79,51.48,232.29l18-2L191.2,63.77Z" style="fill:#fff"></path></g><path d="M181.51,177.88s-5.66-31.36-28.51-28c-24.07,3.53-24.32,33.8-24.32,33.8l-25,10.31,7.08,33.86,5.3,3.73L112.67,233l3.72,7.16,1.7,22.8,11.12,53.18,83.9-12.68L202.89,181.3Z" style="fill:#263238"></path><polygon points="156.78 151.58 149.61 152.71 145.74 125.39 152.92 124.26 156.78 151.58" style="fill:#263238"></polygon><polygon points="158.8 129.66 160.06 138.53 142.87 141.24 141.61 132.37 158.8 129.66" style="fill:#263238"></polygon><polygon points="162.27 150.71 155.1 151.84 151.23 124.52 158.41 123.39 162.27 150.71" style="fill:#455a64"></polygon><polygon points="164.29 128.8 165.54 137.67 148.36 140.37 147.1 131.5 164.29 128.8" style="fill:#455a64"></polygon><path d="M152.32,130.62a36.94,36.94,0,0,1-5.36,1,36.87,36.87,0,0,1-5.41.65,36.94,36.94,0,0,1,5.36-1A36.87,36.87,0,0,1,152.32,130.62Z" style="fill:#455a64"></path><path d="M157.47,149.49a15.5,15.5,0,0,1-3.41.57,15.28,15.28,0,0,1-3.45.17,15.2,15.2,0,0,1,3.41-.57A14,14,0,0,1,157.47,149.49Z" style="fill:#455a64"></path><path d="M216.82,244.74l1-4.52-.08-1.07-3.17,1.66,2.75-6.57-.17-2.07-4.33-51.81-21.39-3.42s-5.93-31.85-28.78-28.5c-24.06,3.53-24,34.29-24,34.29l-25,10.31,25,121.7,84.62-12.58-4-45.22Z" style="fill:#455a64"></path><path d="M119.67,204.12s.14.64.4,1.87.65,3,1.15,5.43c1,4.76,2.47,11.74,4.35,20.66,3.74,17.83,9.11,43.42,15.62,74.5l-.16-.16,76.35-12.14-.13.23c-.79-10.46-1.63-21.47-2.47-32.66-1.83-24.09-3.59-47.36-5.24-69.22l.17.22a7.18,7.18,0,0,1-5.46-2.57,8.21,8.21,0,0,1-1.53-3.45,12.84,12.84,0,0,1-.2-3.85l.16.28-14.36-1.77h-.12l0-.17a70.1,70.1,0,0,0-1.6-6.94,46.61,46.61,0,0,0-2.35-6.46A26.85,26.85,0,0,0,177,158a17.45,17.45,0,0,0-9.08-3.94,16.43,16.43,0,0,0-4.49.06,10,10,0,0,0-2.11.63c-.69.22-1.35.57-2,.85a23.72,23.72,0,0,0-7.09,5.19,27.3,27.3,0,0,0-5,7.67,37.69,37.69,0,0,0-2.6,9,43.11,43.11,0,0,0-.58,9.07v.11l-.07,0-20.57,6.73,0-.12c.22.59.45,1.15.65,1.7l.21.86a4.08,4.08,0,0,1,.17.83c0,.28.07.55.1.82a6.91,6.91,0,0,1,0,.79,5.88,5.88,0,0,1-.2,1.43,5.57,5.57,0,0,1-1,2l-.3.37-.31.3a4.41,4.41,0,0,1-.6.5,7.41,7.41,0,0,1-1.86,1,3.46,3.46,0,0,1-.65.19,6.46,6.46,0,0,0,.64-.23,7.89,7.89,0,0,0,1.84-1,5.21,5.21,0,0,0,.59-.51l.31-.3.29-.37a5.72,5.72,0,0,0,1-2,6.76,6.76,0,0,0,.19-1.4,6.59,6.59,0,0,0,0-.77c0-.26-.07-.53-.1-.8a4.59,4.59,0,0,0-.17-.82c-.07-.28-.14-.55-.22-.84-.19-.55-.42-1.1-.64-1.68l0-.09.06,0L144,186.41l-.07.14a43.93,43.93,0,0,1,.56-9.17,38.43,38.43,0,0,1,2.62-9.07,27.71,27.71,0,0,1,5-7.76,23.81,23.81,0,0,1,7.15-5.26c.67-.29,1.34-.64,2-.87a10,10,0,0,1,2.14-.64,16.8,16.8,0,0,1,4.54-.07,17.67,17.67,0,0,1,9.22,4,27.24,27.24,0,0,1,7.3,10,46.22,46.22,0,0,1,2.38,6.52c.68,2.27,1.17,4.63,1.63,7l-.15-.18,14.36,1.75.19,0,0,.26a12.1,12.1,0,0,0,.19,3.64,7.63,7.63,0,0,0,1.43,3.22,6.9,6.9,0,0,0,5.24,2.44h.15l0,.22c1.66,21.85,3.42,45.13,5.25,69.22.85,11.19,1.68,22.2,2.47,32.66l0,.21-.15,0-76.37,12.06-.13,0,0-.18c-6.47-31.14-11.79-56.79-15.51-74.66-1.84-8.91-3.28-15.88-4.27-20.63-.48-2.36-.85-4.17-1.11-5.4S119.67,204.12,119.67,204.12Z" style="fill:#f5f5f5"></path><path d="M122.25,211.41a4.82,4.82,0,0,1,.67,1,7.54,7.54,0,0,1,.61,1.24,4.11,4.11,0,0,1,.27,1.82,2.81,2.81,0,0,1-.34,1.05,1.75,1.75,0,0,1-.93.8,2,2,0,0,1-2.29-1.11,11.46,11.46,0,0,1-.88-2.67c-.24-.93-.48-1.9-.74-2.88-.54-2.17-1.06-4.23-1.52-6.07l-.21-.83.53.67c1.56,2,2.78,3.74,3.6,5,.42.62.73,1.13.94,1.48a3.16,3.16,0,0,1,.29.55,2.54,2.54,0,0,1-.39-.49l-1-1.42c-.87-1.22-2.13-2.93-3.71-4.89l.32-.16L119,210.5c.25,1,.49,1.95.73,2.89a11.75,11.75,0,0,0,.82,2.59,1.69,1.69,0,0,0,1.86,1,1.87,1.87,0,0,0,1.1-1.56,5.21,5.21,0,0,0-.74-2.95A9.55,9.55,0,0,1,122.25,211.41Z" style="fill:#263238"></path><path d="M132.16,196.43a4.94,4.94,0,0,1,1.16-.11,8,8,0,0,1,1.38.09,4.26,4.26,0,0,1,1.72.68,2.64,2.64,0,0,1,.73.82,1.78,1.78,0,0,1,.23,1.21,2,2,0,0,1-2.1,1.43,11.61,11.61,0,0,1-2.76-.58l-2.86-.8-6-1.71-.82-.24.84-.12c2.5-.36,4.63-.54,6.13-.63.75,0,1.34-.06,1.75-.06a2.31,2.31,0,0,1,.62,0,2.52,2.52,0,0,1-.61.09l-1.74.17c-1.49.15-3.61.38-6.09.77v-.35l6,1.67,2.86.81a11.54,11.54,0,0,0,2.66.59,1.71,1.71,0,0,0,1.77-1.13,1.88,1.88,0,0,0-.8-1.73,5.27,5.27,0,0,0-2.93-.84A10.89,10.89,0,0,1,132.16,196.43Z" style="fill:#263238"></path><path d="M132.24,206.09a3.06,3.06,0,0,1,.45.19c.28.14.7.34,1.22.64a11.78,11.78,0,0,1,1.81,1.24,6.42,6.42,0,0,1,1.8,2.3,4.08,4.08,0,0,1,.34,1.69,2.73,2.73,0,0,1-.63,1.78,2.57,2.57,0,0,1-1.86.82,3.84,3.84,0,0,1-2.07-.56,8.74,8.74,0,0,1-1.73-1.38l-1.61-1.6c-1.08-1.09-2.19-2.24-3.31-3.42-2.48-2.59-4.82-5.07-7-7.19l-.63-.63.83.33c3.75,1.5,6.84,2.94,9,4,1.08.53,1.92,1,2.49,1.28l.65.36.21.14a5.58,5.58,0,0,1-.91-.4l-2.53-1.18c-2.17-1-5.28-2.41-9-3.87l.2-.3c2.15,2.11,4.5,4.58,7,7.18l3.3,3.42a19.48,19.48,0,0,0,3.25,2.93,2.82,2.82,0,0,0,3.49-.16,2.44,2.44,0,0,0,.57-1.57,3.88,3.88,0,0,0-.29-1.57,6.39,6.39,0,0,0-1.69-2.24,13.3,13.3,0,0,0-1.74-1.28l-1.18-.7C132.38,206.19,132.23,206.11,132.24,206.09Z" style="fill:#263238"></path><path d="M176.57,170.8a11,11,0,0,0-.72-1.14,10.87,10.87,0,0,0-9.88-4.39,13.3,13.3,0,0,0-4.63,1.31,14,14,0,0,0-6.1,5.46,8.93,8.93,0,0,0-.57,8,5.49,5.49,0,0,0,2.57,2.76,6,6,0,0,0,4.73-.62c.53,1.94-.15,4.07.79,5.73a2,2,0,0,0,1.64.75c.66.07,1.39-.54,1.19-1.17a1.78,1.78,0,0,0,3.48-.65,1.46,1.46,0,0,0,2.05.84,2.46,2.46,0,0,0,1.17-2.15,8.3,8.3,0,0,0-.71-2.39,5.83,5.83,0,0,1,0-2.66,5.19,5.19,0,0,0,5.46-3.11A7.6,7.6,0,0,0,176.57,170.8Zm-14.42,8.34a3,3,0,0,1-1.71.8,2.68,2.68,0,0,1-2.63-2.21,4.22,4.22,0,0,1,1.09-3.46,6.93,6.93,0,0,1,2.46-1.76,1.45,1.45,0,0,1,1.64.1,2.76,2.76,0,0,1,.93,1.81A5.27,5.27,0,0,1,162.15,179.14Zm6.23,2.56a.64.64,0,0,1-.64-.19,4.3,4.3,0,0,1-1.12-1.39,5.34,5.34,0,0,1-.78,2c-.12.2-.38.41-.55.26a.45.45,0,0,1-.11-.36,24.65,24.65,0,0,1,.84-5.91h.07q1.29,2.25,2.37,4.61a1.31,1.31,0,0,1,.15.5A.47.47,0,0,1,168.38,181.7Zm4.29-4.21a3,3,0,0,1-1.87-.26,5.26,5.26,0,0,1-3.07-4,2.7,2.7,0,0,1,.36-2,1.46,1.46,0,0,1,1.54-.58,7.05,7.05,0,0,1,2.87,1,4.21,4.21,0,0,1,2,3A2.66,2.66,0,0,1,172.67,177.49Z" style="fill:#fafafa"></path><path d="M187.49,204.6c0,.11-8.31,1.43-18.59,3s-18.62,2.68-18.64,2.57,8.3-1.44,18.59-3S187.47,204.49,187.49,204.6Z" style="fill:#f5f5f5"></path><path d="M209.17,213.34c0,.11-17.23,2.76-38.52,5.93s-38.58,5.64-38.59,5.53,17.23-2.76,38.53-5.93S209.15,213.23,209.17,213.34Z" style="fill:#263238"></path><path d="M201.14,221.05c0,.11-14.07,2.3-31.47,4.88s-31.51,4.6-31.53,4.49,14.07-2.3,31.48-4.88S201.13,220.94,201.14,221.05Z" style="fill:#263238"></path><path d="M204.13,246.16c0,.11-13.81,2.26-30.87,4.79s-30.9,4.51-30.92,4.4,13.8-2.26,30.86-4.79S204.11,246.05,204.13,246.16Z" style="fill:#263238"></path><path d="M113.57,192.71a23.36,23.36,0,0,1-4.78,1c-1.33.21-2.52.42-3.38.59a5.68,5.68,0,0,1-1.41.24,15.75,15.75,0,0,1,4.73-1.22c1.33-.21,2.54-.35,3.41-.46A5.29,5.29,0,0,1,113.57,192.71Z" style="fill:#455a64"></path><path d="M138.27,181.65a5.92,5.92,0,0,1-1.45.32c-.9.16-2.14.38-3.5.67s-2.59.58-3.48.79a5.63,5.63,0,0,1-1.45.29,5.22,5.22,0,0,1,1.38-.56,33.9,33.9,0,0,1,3.47-.92c1.37-.28,2.63-.46,3.54-.55A5.11,5.11,0,0,1,138.27,181.65Z" style="fill:#455a64"></path><polygon points="124.53 242.75 135.19 243.1 125.32 248.06 124.53 242.75" style="fill:#263238"></polygon><path d="M137.32,273.64c.1.07-.63,1.26-1.14,2.89s-.62,3-.74,3a8.16,8.16,0,0,1,1.88-5.9Z" style="fill:#263238"></path><path d="M127.6,256.74a6.9,6.9,0,0,1,1.19,3.28,6.07,6.07,0,0,1-.22,3.48,26.67,26.67,0,0,0-.18-3.42C128.11,258.21,127.49,256.79,127.6,256.74Z" style="fill:#263238"></path><path d="M140.09,246.64c0,.12-1.34.65-2.72,1.8a14.81,14.81,0,0,0-2.14,2.44,1.87,1.87,0,0,1,.34-.93,6.53,6.53,0,0,1,1.54-1.82A6.08,6.08,0,0,1,140.09,246.64Z" style="fill:#263238"></path><path d="M127.59,236.36a6.82,6.82,0,0,1,3,.78,7,7,0,0,1,2.57,1.7c-.07.1-1.21-.66-2.73-1.34S127.56,236.47,127.59,236.36Z" style="fill:#263238"></path><path d="M129.68,226.23a8.45,8.45,0,0,0-2.14,1.45,5.09,5.09,0,0,0-1,1.49c-.18.42-.23.72-.3.71s-.09-.31,0-.8a3.92,3.92,0,0,1,1-1.68,4.34,4.34,0,0,1,1.63-1.07C129.36,226.17,129.67,226.18,129.68,226.23Z" style="fill:#263238"></path><path d="M127.85,223.4s-.21.19-.54.59a5.2,5.2,0,0,0-1,2,7.46,7.46,0,0,0,0,3.59,10.73,10.73,0,0,0,2.26,4.2c1.13,1.39,2.59,2.72,4.07,4.25a14.42,14.42,0,0,1,3.7,5.68,8.56,8.56,0,0,1,.22,3.71,13.58,13.58,0,0,1-1.19,3.67,29.83,29.83,0,0,1-2,3.44c-.74,1.13-1.52,2.23-2.23,3.4-1.42,2.31-2.56,4.84-2.47,7.4a8.19,8.19,0,0,0,1,3.57,21,21,0,0,0,2,3,19.57,19.57,0,0,1,3.53,5.81,9.56,9.56,0,0,1-.16,5.89,9,9,0,0,1-2.78,4,9.63,9.63,0,0,1-3.25,1.74,8.32,8.32,0,0,1-2.29.39,4.94,4.94,0,0,1-.81,0,11.24,11.24,0,0,0,3-.52,9.58,9.58,0,0,0,3.16-1.76,8.83,8.83,0,0,0,2.66-3.92,9.38,9.38,0,0,0,.1-5.71,19.23,19.23,0,0,0-3.5-5.67,21,21,0,0,1-2.05-3.07,8.6,8.6,0,0,1-1-3.73c-.1-2.68,1.09-5.28,2.52-7.62.71-1.18,1.51-2.29,2.24-3.41a29.8,29.8,0,0,0,2-3.39,12.82,12.82,0,0,0,1.17-3.56,8.24,8.24,0,0,0-.19-3.54,14.12,14.12,0,0,0-3.59-5.56c-1.45-1.53-2.92-2.87-4.05-4.3a10.91,10.91,0,0,1-2.26-4.33,7.48,7.48,0,0,1,.07-3.68,5.05,5.05,0,0,1,1.11-2A3.18,3.18,0,0,1,127.85,223.4Z" style="fill:#263238"></path><path d="M169.07,258.21a10.84,10.84,0,0,0-1.78-.46,7.2,7.2,0,0,0-4.77,1.07,6.54,6.54,0,0,0-2.27,2.51,36.25,36.25,0,0,0-1.49,3.71,7.9,7.9,0,0,1-2.56,3.68,6.85,6.85,0,0,1-4.62,1.35,10.8,10.8,0,0,1-4.49-1.74,15.44,15.44,0,0,0-4-1.88,8.43,8.43,0,0,0-7,1.35,8.66,8.66,0,0,0-2.95,4c-.4,1.12-.44,1.79-.49,1.78a2.9,2.9,0,0,1,0-.48,8,8,0,0,1,.31-1.35,8.56,8.56,0,0,1,2.93-4.13,8.66,8.66,0,0,1,7.27-1.49,15.74,15.74,0,0,1,4.06,1.9,10.58,10.58,0,0,0,4.32,1.68,6.5,6.5,0,0,0,4.35-1.26,7.62,7.62,0,0,0,2.46-3.5,33.7,33.7,0,0,1,1.54-3.73,6.67,6.67,0,0,1,2.4-2.6,7.25,7.25,0,0,1,4.95-1A4.83,4.83,0,0,1,169.07,258.21Z" style="fill:#263238"></path><path d="M132.07,266.77a6.18,6.18,0,0,1,1,3.13,6.37,6.37,0,0,1-.4,3.26c-.12,0,.16-1.46,0-3.22S132,266.81,132.07,266.77Z" style="fill:#263238"></path><path d="M142.71,269.6a8.54,8.54,0,0,0-2-2.17,8.44,8.44,0,0,0-2.75-1.05c0-.05.34-.12.91-.07a4.75,4.75,0,0,1,3.56,2.41C142.7,269.23,142.76,269.58,142.71,269.6Z" style="fill:#263238"></path><path d="M151.42,266.23c.05,0,.11.25,0,.66a2.85,2.85,0,0,1-.74,1.41,2.93,2.93,0,0,1-1.36.83c-.4.1-.66.06-.66,0a6.74,6.74,0,0,0,1.73-1.11A6.19,6.19,0,0,0,151.42,266.23Z" style="fill:#263238"></path><path d="M163.62,266.71c-.05,0-.29-.2-.75-.48a4.48,4.48,0,0,0-4-.3c-.49.2-.77.41-.81.36s.19-.33.69-.62A4,4,0,0,1,163,266C163.48,266.36,163.66,266.68,163.62,266.71Z" style="fill:#263238"></path><path d="M162.57,256.22c.11,0,.12.64,0,1.41s-.28,1.36-.39,1.35-.12-.65,0-1.41S162.46,256.2,162.57,256.22Z" style="fill:#263238"></path><path d="M187.65,242.78c0,.11-6.07,1.11-13.6,2.23s-13.65,1.94-13.67,1.83,6.07-1.11,13.61-2.23S187.64,242.68,187.65,242.78Z" style="fill:#263238"></path><path d="M207.19,273.58c0,.11-13.81,2.25-30.87,4.79s-30.91,4.5-30.92,4.39,13.8-2.25,30.86-4.79S207.17,273.47,207.19,273.58Z" style="fill:#263238"></path><path d="M207.87,279.68c0,.11-13.81,2.26-30.87,4.79s-30.9,4.51-30.92,4.4,13.8-2.26,30.87-4.8S207.85,279.57,207.87,279.68Z" style="fill:#263238"></path><path d="M190.71,270.2c0,.11-6.07,1.1-13.61,2.22s-13.65,1.94-13.66,1.83,6.07-1.1,13.61-2.22S190.7,270.09,190.71,270.2Z" style="fill:#263238"></path><polyline points="141.12 317.32 138.23 303.67 140.51 286.55 138.07 295.87 134.76 308.5 131.16 302.36 130.08 295.77 126.52 309.38 117.82 311.39 119.78 307.62 121.69 302.89 121.67 298.78 120.18 294 118.76 288.93 117.79 290.56 118.69 294.46 118.1 301.95 109.6 309.24 111.94 300.34 102.91 311.65" style="fill:#263238"></polyline><path d="M242.22,294.44l2.33-8.9-10,10.29,7.08-18.69s-10.42,14.37-14.8,20.54l-.08-3.42,2.28-17.11-2.44,9.32-4,8.64L219.7,293l-1.08-6.59-1.37,8.14-4.1-.58-3.36,3,.44-3.42,0-4.11-1.49-4.78-1.42-5.07-1,1.63.9,3.89-.59,7.49-6.48,3.85.32-5.46-7.62,7.25,4.72-15.65S189,293.46,185,299.05l-3.3.52.85-17.24-1.66,9.49-2.23,12.86-4.11-5.81-1.63-6.48-2.41,13.86-8.5,5.54,20.44-5.35.64,5.9,43.83-11.18,0-1.44,21.44-1.48-.54-4.89Z" style="fill:#263238"></path><polygon points="162.03 308.98 162.98 308.68 162.12 308.77 162.03 308.98" style="fill:#263238"></polygon><path d="M165.18,300.18l-.36-4.09-1.89-4.64-1.84-4.93-.83,1.71,1.22,3.8,0,7.52-5.83,4.54-.45-5.63-6.76,6.77,3.18-14.9s-13.66,15.8-13.84,16.85V320l30-6.67-2.75-9.2Z" style="fill:#263238"></path><path d="M190.89,217.27s-1.48,9.54,5.54,12.88l.44,3.95s-8.76,7.47-9.59,14.56l-6.2,10.56-.89,20.18a57.44,57.44,0,0,0,.68,11.64L184,310.11l-18.68,1.46s-3.83-43.3-4.94-44.3a11.8,11.8,0,0,0-3.32-1.75s-.09-19.85-6-24.19-8.07-1.85-8.07-1.85L140.58,241l-2.73.18-.95-1.77.4-2a4.52,4.52,0,0,0,2.23-2.37l.66-1.3,2.39-.2a3.09,3.09,0,0,0,2.42.12,5.26,5.26,0,0,0,1.7-1.1l1.57-.5a4.25,4.25,0,0,0,4.11,1.82,3.66,3.66,0,0,0,3.19-2.37s-2.23-6-5.78-6.85l-4.55-.53-3.86.43c-.19,0-1.54-1.55-1.54-1.55l.31-1.9s4.63-1.68,5.52-3.61l3.57-.13s.45,1.77,3.66,1.87l2.25-.19,2.68,1.78a5.72,5.72,0,0,0,4.78,4.94s2.87-.52,1.72-4.42-2-3.95-2-3.95l-1.93-3.23L155.92,209a3.34,3.34,0,0,0-1-2.16c-.93-.75-4.21-3.83-4.21-3.83a7.59,7.59,0,0,1-.63-2.14,11.91,11.91,0,0,1,1.31-2.3l3.09-.34s2.91,5.08,6.69,6.28l1.35.44,1.55,1.58s0,2.8.94,3.22,4.83,3.56,4.83,3.56-.07,7.56,2.77,7.38,1.84-6.33,1.84-6.33,3.75-.81,2.9-1.95-4.66-6.77-4.66-6.77a1.13,1.13,0,0,0,.16-1.46c-.54-.78-3-2.79-3.09-4.92s-.55-5-.55-5l3.25-.68s1,5,7.93,7.51c0,0-.47,5.07,2.43,7.74l2.49,1.87.43,2.1s-5,4.2-4.92,10.19l-1.27,2.68s.27,11.16,2.43,10.08a11.7,11.7,0,0,0,3.77-3.55,8.86,8.86,0,0,1-1.21-4.42c.15-2.17,1.83-9.32,1.83-9.32Z" style="fill:#263238"></path><path d="M119.81,83.42l.89,7.91-2.24.25-.35-3.08-3,.34.35,3.08-2.24.25-.88-7.91,2.23-.25.34,3,3-.34-.33-3Z" style="fill:#fff"></path><path d="M127.41,89l-3.35.37L123.61,91l-2.28.25,2.61-8.3,2.2-.25,4.39,7.52-2.33.26Zm-.84-1.58L125.27,85l-.74,2.65Z" style="fill:#fff"></path><path d="M130.28,82.25l2.23-.25.69,6.14,3.77-.42.2,1.77-6,.67Z" style="fill:#fff"></path><path d="M137.17,81.48l2.24-.25.68,6.14,3.78-.42.2,1.77-6,.67Z" style="fill:#fff"></path><path d="M146.52,88.07A4,4,0,0,1,144,84.73a4.11,4.11,0,0,1,.34-2.18,4,4,0,0,1,1.41-1.64,4.68,4.68,0,0,1,2.19-.78,4.82,4.82,0,0,1,2.32.27A4.08,4.08,0,0,1,152,81.7a4,4,0,0,1,.81,2A4,4,0,0,1,151,87.57a4.72,4.72,0,0,1-2.2.78A4.65,4.65,0,0,1,146.52,88.07Zm3.16-2a2.09,2.09,0,0,0,.68-.89,2.6,2.6,0,0,0-.27-2.36,2,2,0,0,0-.85-.71,2.25,2.25,0,0,0-2.17.24,2,2,0,0,0-.68.89,2.4,2.4,0,0,0-.15,1.21,2.34,2.34,0,0,0,.41,1.15,2.11,2.11,0,0,0,.86.71,2.17,2.17,0,0,0,1.11.16A2.28,2.28,0,0,0,149.68,86.1Z" style="fill:#fff"></path><path d="M165.64,78.31,164,86.5l-2.4.27-2.05-4.64-1,5-2.39.27-3.45-7.63,2.31-.26,2.15,4.88,1.11-5.24,2.06-.23,2.16,4.92,1.09-5.28Z" style="fill:#fff"></path><path d="M173.48,83.69l.19,1.73-6.35.71-.88-7.91,6.21-.69.19,1.73-4,.44L169,81l3.51-.39.19,1.67-3.52.4.17,1.44Z" style="fill:#fff"></path><path d="M181.08,82.84l.19,1.73-6.35.71L174,77.37l6.2-.69.19,1.73-4,.44.15,1.34,3.52-.4.18,1.68-3.51.39.16,1.45Z" style="fill:#fff"></path><path d="M189.16,75.68l.88,7.91-1.84.21-4-3.83.47,4.22-2.19.24-.88-7.91,1.84-.2,4,3.82L187,75.93Z" style="fill:#fff"></path><path d="M118.9,97.34a7.13,7.13,0,0,1,1.46,13,11.57,11.57,0,0,1-4.64,1.43l-3.5.39.59,5.25-5.68.64L104.89,98l9.18-1A11.61,11.61,0,0,1,118.9,97.34Zm-1.47,9a2.69,2.69,0,0,0,.65-2.27A2.75,2.75,0,0,0,117,102a4,4,0,0,0-2.73-.48l-3.15.35.65,5.89,3.16-.36A4,4,0,0,0,117.43,106.31Z" style="fill:#fff"></path><path d="M140,110.46l-8.49,1-1.14,4.07-5.8.65,6.63-21.07,5.59-.63,11.14,19.09-5.91.66Zm-2.13-4-3.3-6.14L132.71,107Z" style="fill:#fff"></path><path d="M157.72,107l-3.1.34.59,5.34-5.68.63-2.24-20.08,9.18-1a11.49,11.49,0,0,1,4.84.37,7.37,7.37,0,0,1,4.32,10,6.92,6.92,0,0,1-2.63,2.86l5,5.83L162,112Zm1.63-9.8a3.93,3.93,0,0,0-2.72-.48l-3.16.35.66,5.88,3.15-.35a4,4,0,0,0,2.56-1,3.11,3.11,0,0,0-.49-4.35Z" style="fill:#fff"></path><path d="M173,95l-6.17.69-.5-4.5,18-2,.5,4.5-6.14.69,1.74,15.58-5.68.63Z" style="fill:#fff"></path><path d="M198.16,100.63l.81,7.2-5.68.63-.82-7.29-9.09-11.94,6-.67L195,96l3.88-8.51,5.51-.61Z" style="fill:#fff"></path><path d="M111.65,123.41s14-9.23,20.61-3.49l.24-3.6,1.92,2.43,2.63-1.22s-.81-3.66-.53-3.1a14.35,14.35,0,0,0,2.43,2.18s2.61-9.55,15.4-10.77c0,0-7.62,2.25-5.83,8.6,0,0-5.91.3-4.1,5.59a4.89,4.89,0,0,0-1.59,6,29.12,29.12,0,0,0-3.8-1.22c-.3,0-1.8,3.92-1.8,3.92s-1.81-4.85-6-2.82c0,0-1.46-5.67-7.47-1C123.73,124.91,123.51,119.39,111.65,123.41Z" style="fill:#263238"></path><path d="M98.54,161s9.84.1,11.17,5l1.3-1.67.13,1.81,1.68.26a12,12,0,0,1,.75-1.68,8.68,8.68,0,0,0,.47,1.86s4.4-3.8,11-.21c0,0-4.44-1.4-5.65,2.28,0,0-3-1.79-3.82,1.38a2.87,2.87,0,0,0-2.72,2.38,18,18,0,0,0-1.45-1.84,13.83,13.83,0,0,0-2.16,1.33s.71-3-2-3.35c0,0,1.14-3.23-3.32-2.91C103.93,165.68,105.63,162.92,98.54,161Z" style="fill:#263238"></path><path d="M171.05,130.7s22.32-6.59,27.38,20.37l1.08-9.63,2.1,5.8,1.45-6.61,2,11.76s.64-23.64,20.75-26.42c0,0-10.68,6.11-5.89,16.89,0,0-6.75,1.43-7.82,11a18.21,18.21,0,0,0-9.12,12.18s-3.89-13.42-14.94-12.47c0,0,3.93-11.28-6.53-14.05C181.47,139.57,180.5,132.76,171.05,130.7Z" style="fill:#263238"></path><path d="M144.31,377.89a8.4,8.4,0,0,1,2.66,5.43,9.34,9.34,0,0,1-.9,5.19,10.37,10.37,0,0,1-4,4.23,17.46,17.46,0,0,1-7.24,2.24,26.52,26.52,0,0,1-6.48-.07,19.06,19.06,0,0,1-5.73-1.62l2.42-6.85a14.19,14.19,0,0,0,4.25,1.42,15.55,15.55,0,0,0,4.5.16,6.55,6.55,0,0,0,3.44-1.22,2.66,2.66,0,0,0,1.05-2.5q-.33-3-5-2.45l-3.63.4L129,376.8l4.8-6.51-12,1.35L121,365l22.09-2.47.6,5.42-5.57,7.51A10.34,10.34,0,0,1,144.31,377.89Z" style="fill:#fff"></path><path d="M160.52,360.55l3.41,30.56-8.65,1-2.66-23.88-5.68.64-.74-6.68Z" style="fill:#fff"></path><path d="M127.78,417.13a7.68,7.68,0,0,1-1.51-13.52,9,9,0,0,1,4.14-1.48,8.92,8.92,0,0,1,4.37.53,7.68,7.68,0,0,1,1.51,13.52,9.57,9.57,0,0,1-8.51.95Zm6-3.73a3.89,3.89,0,0,0,1.29-1.67,4.67,4.67,0,0,0,.28-2.29,4.53,4.53,0,0,0-.78-2.17,4.1,4.1,0,0,0-5.71-.88,3.84,3.84,0,0,0-1.29,1.67,4.61,4.61,0,0,0-.28,2.28,4.53,4.53,0,0,0,.78,2.17,3.81,3.81,0,0,0,1.62,1.34,4,4,0,0,0,2.11.31A4.09,4.09,0,0,0,133.74,413.4Z" style="fill:#FF725E"></path><path d="M145.78,415.13a7.41,7.41,0,0,1-3.24-2.43,8.13,8.13,0,0,1-.89-8,7.39,7.39,0,0,1,2.62-3.09,8.85,8.85,0,0,1,4.1-1.46,9,9,0,0,1,3.77.31,7.15,7.15,0,0,1,3,1.78L152.69,405A4.47,4.47,0,0,0,149,403.6a4.39,4.39,0,0,0-2.1.77,3.75,3.75,0,0,0-1.3,1.67,4.67,4.67,0,0,0-.28,2.29,4.73,4.73,0,0,0,.77,2.17,3.76,3.76,0,0,0,1.64,1.34,4.53,4.53,0,0,0,5.55-1.85l3,2.13a7.19,7.19,0,0,1-2.5,2.4,9.12,9.12,0,0,1-3.61,1.13A8.85,8.85,0,0,1,145.78,415.13Z" style="fill:#FF725E"></path><path d="M160.12,402.51l-4.58.51-.37-3.35,13.37-1.49.37,3.35-4.56.51,1.29,11.58-4.22.47Z" style="fill:#FF725E"></path><path d="M182.86,431.81c-.14,0-2.37-18.9-5-42.26s-4.6-42.3-4.46-42.32,2.37,18.91,5,42.27S183,431.8,182.86,431.81Z" style="fill:#455a64"></path><path d="M185.24,356.08l1,8.74-2.47.27-.77-6.83-1.62.19-.21-1.91Z" style="fill:#FF725E"></path><path d="M189.35,364.1a3.53,3.53,0,0,1-1.54-1.41,6.31,6.31,0,0,1-.55-4.88,3.59,3.59,0,0,1,1.19-1.72,3.7,3.7,0,0,1,1.94-.76,3.77,3.77,0,0,1,2,.31,3.7,3.7,0,0,1,1.55,1.42,6.35,6.35,0,0,1,.54,4.88,3.69,3.69,0,0,1-1.19,1.72,3.84,3.84,0,0,1-1.93.76A3.79,3.79,0,0,1,189.35,364.1Zm2.75-2.42a5.2,5.2,0,0,0-.42-3.84,1.14,1.14,0,0,0-2,.23,5.12,5.12,0,0,0,.43,3.83,1.13,1.13,0,0,0,2-.22Z" style="fill:#FF725E"></path><path d="M195.9,359.21a1.47,1.47,0,0,1-.23-2,1.4,1.4,0,0,1,1-.5,1.38,1.38,0,0,1,1.06.27,1.48,1.48,0,0,1,.22,2,1.4,1.4,0,0,1-1,.52A1.43,1.43,0,0,1,195.9,359.21Zm.47,4.18a1.32,1.32,0,0,1-.52-1,1.34,1.34,0,0,1,.29-1.06,1.42,1.42,0,0,1,1-.5,1.45,1.45,0,0,1,1.07.27,1.5,1.5,0,0,1,.22,2,1.45,1.45,0,0,1-1,.51A1.41,1.41,0,0,1,196.37,363.39Z" style="fill:#FF725E"></path><path d="M201.43,362.75a3.58,3.58,0,0,1-1.54-1.41,6.31,6.31,0,0,1-.55-4.88,3.65,3.65,0,0,1,1.2-1.72,3.72,3.72,0,0,1,1.93-.76,3.82,3.82,0,0,1,2.05.31,3.73,3.73,0,0,1,1.54,1.42,5.62,5.62,0,0,1,.76,2.39,5.43,5.43,0,0,1-.22,2.49,3.64,3.64,0,0,1-1.19,1.72,3.81,3.81,0,0,1-1.92.76A3.74,3.74,0,0,1,201.43,362.75Zm2.76-2.42a5.23,5.23,0,0,0-.43-3.83,1.13,1.13,0,0,0-2,.22,3.83,3.83,0,0,0-.15,2,3.74,3.74,0,0,0,.58,1.87,1.13,1.13,0,0,0,2-.22Z" style="fill:#FF725E"></path><path d="M210,361.8a3.61,3.61,0,0,1-1.54-1.42,5.57,5.57,0,0,1-.77-2.38,5.77,5.77,0,0,1,.22-2.5,3.73,3.73,0,0,1,6.72-.75,5.66,5.66,0,0,1,.76,2.39,5.48,5.48,0,0,1-.22,2.5,3.59,3.59,0,0,1-3.11,2.47A3.73,3.73,0,0,1,210,361.8Zm2.76-2.42a5.27,5.27,0,0,0-.43-3.84,1.14,1.14,0,0,0-2,.22,3.85,3.85,0,0,0-.15,2,3.78,3.78,0,0,0,.58,1.88,1.14,1.14,0,0,0,2-.22Z" style="fill:#FF725E"></path><path d="M225.92,351.94a3,3,0,0,1,2.13,2.63,3.06,3.06,0,0,1-.28,1.77,3.1,3.1,0,0,1-1.22,1.27,5.22,5.22,0,0,1-2,.62l-1.52.17.25,2.28-2.47.28-1-8.74,4-.45A5.14,5.14,0,0,1,225.92,351.94Zm-.64,3.9a1.22,1.22,0,0,0,.28-1,1.19,1.19,0,0,0-.5-.9,1.65,1.65,0,0,0-1.18-.21l-1.37.15.28,2.56,1.37-.15A1.79,1.79,0,0,0,225.28,355.84Z" style="fill:#FF725E"></path><path d="M229.51,359.69a1.32,1.32,0,0,1-.52-1,1.34,1.34,0,0,1,.29-1.06,1.54,1.54,0,0,1,2-.22,1.35,1.35,0,0,1,.51,1,1.44,1.44,0,0,1-2.32,1.28Z" style="fill:#FF725E"></path><path d="M241.09,358.69l-.54-4.62-1.83,4-1.1.12-2.64-3.4.5,4.51-2.28.25-1-8.73,2-.23,3.63,4.7,2.44-5.38,2-.23,1,8.74Z" style="fill:#FF725E"></path><path d="M183.11,372.23l5.57-.62,1.7,15.26,9.39-1,.49,4.41-14.95,1.67Z" style="fill:#455a64"></path><path d="M200.26,370.32l5.57-.62L208,389.37l-5.56.63Z" style="fill:#455a64"></path><path d="M229.69,367l-6.24,20.62-5.48.61-10.6-18.74,6-.67,6.77,12.22,4-13.42Z" style="fill:#455a64"></path><path d="M248.36,380.52l.48,4.3L233,386.58l-2.2-19.68,15.44-1.72.48,4.3-9.93,1.11.37,3.32,8.75-1,.46,4.16-8.74,1,.4,3.6Z" style="fill:#455a64"></path><path d="M199.65,408.12l-.83-7.05L196,407.19l-1.67.19-4-5.17.76,6.86-3.48.39-1.48-13.31,3.1-.34,5.53,7.16,3.7-8.19,3.1-.35,1.53,13.3Z" style="fill:#455a64"></path><path d="M207.14,405.92a6.2,6.2,0,0,1-2.15-4.4l-.82-7.38,3.76-.42.81,7.26q.36,3.19,2.88,2.92c1.68-.19,2.39-1.35,2.16-3.48l-.81-7.26,3.7-.41.83,7.37a6.17,6.17,0,0,1-1.14,4.77,7.43,7.43,0,0,1-9.22,1Z" style="fill:#455a64"></path><path d="M222.23,405.46a7.47,7.47,0,0,1-2.59-.79l.92-2.91a8.45,8.45,0,0,0,4.54.82c1.45-.16,2.13-.6,2.05-1.32a.92.92,0,0,0-.72-.78,11,11,0,0,0-2.05-.36,18.94,18.94,0,0,1-2.58-.41,4.2,4.2,0,0,1-1.86-1,3.2,3.2,0,0,1-1-2.13,3.85,3.85,0,0,1,.42-2.27,4.48,4.48,0,0,1,1.81-1.77,8.18,8.18,0,0,1,3.18-.93,10.85,10.85,0,0,1,2.61,0,7.72,7.72,0,0,1,2.34.61l-.84,2.92a7.88,7.88,0,0,0-3.81-.61,3.18,3.18,0,0,0-1.59.51,1,1,0,0,0-.42.93.87.87,0,0,0,.7.73,11.28,11.28,0,0,0,2,.33,18.6,18.6,0,0,1,2.59.41,4.26,4.26,0,0,1,1.86,1,3.14,3.14,0,0,1,1,2.11,3.75,3.75,0,0,1-.42,2.24,4.47,4.47,0,0,1-1.83,1.77,8,8,0,0,1-3.16.94A12.07,12.07,0,0,1,222.23,405.46Z" style="fill:#455a64"></path><path d="M231.51,391.09l3.77-.42L236.76,404l-3.76.42Z" style="fill:#455a64"></path><path d="M242.25,402.74a6.72,6.72,0,0,1-2.89-2.17,7.21,7.21,0,0,1-.79-7.15,6.55,6.55,0,0,1,2.34-2.75,7.87,7.87,0,0,1,3.65-1.3,8.06,8.06,0,0,1,3.36.28,6.37,6.37,0,0,1,2.64,1.59l-2.15,2.43a4,4,0,0,0-3.31-1.21,3.91,3.91,0,0,0-1.88.69,3.35,3.35,0,0,0-1.16,1.49,4,4,0,0,0-.24,2,4.12,4.12,0,0,0,.68,1.93,3.41,3.41,0,0,0,1.46,1.2,4,4,0,0,0,2,.26,4,4,0,0,0,3-1.91l2.63,1.9a6.3,6.3,0,0,1-2.22,2.13,8,8,0,0,1-3.22,1A7.94,7.94,0,0,1,242.25,402.74Z" style="fill:#455a64"></path><path d="M193.31,418.91l-4,.45-.61,2-1.1.12,2.55-7.86,1.06-.12,4.23,7.11-1.12.12Zm-.47-.81-2-3.49-1.21,3.85Z" style="fill:#fff"></path><path d="M195.74,413l3.16-.35a4.59,4.59,0,0,1,2.15.23,3.5,3.5,0,0,1,1.58,1.16,3.85,3.85,0,0,1,.73,1.9,3.75,3.75,0,0,1-.3,2,3.5,3.5,0,0,1-1.28,1.48,4.58,4.58,0,0,1-2.05.7l-3.15.35Zm3.82,6.21a3.56,3.56,0,0,0,1.56-.53,2.63,2.63,0,0,0,1-1.11,2.9,2.9,0,0,0,.21-1.51,3,3,0,0,0-.54-1.43,2.53,2.53,0,0,0-1.18-.87,3.47,3.47,0,0,0-1.63-.18l-2,.23.63,5.62Z" style="fill:#fff"></path><path d="M212.35,418.68l-.62-5.45-2.2,4.85-.49.05-3.21-4.21.61,5.42-1,.12-.84-7.49.88-.09,3.71,4.91,2.49-5.61.88-.09.85,7.48Z" style="fill:#fff"></path><path d="M214.79,410.83l1.06-.12.84,7.49-1.07.12Z" style="fill:#fff"></path><path d="M219.69,411.23l-2.57.28-.1-.93,6.19-.69.11.93-2.57.29.73,6.56-1.06.11Z" style="fill:#fff"></path><path d="M229.38,416.37a3.74,3.74,0,0,1-1.58-1.22,4,4,0,0,1-.44-3.91,3.65,3.65,0,0,1,1.28-1.53,4.12,4.12,0,0,1,2-.73,4.28,4.28,0,0,1,2.09.27,3.63,3.63,0,0,1,1.57,1.21,4,4,0,0,1,.44,3.93,3.65,3.65,0,0,1-1.27,1.52,4.23,4.23,0,0,1-2,.73A4.3,4.3,0,0,1,229.38,416.37Zm3.43-1.23a2.7,2.7,0,0,0,.92-1.14,2.85,2.85,0,0,0,.22-1.51,2.81,2.81,0,0,0-.55-1.43,2.73,2.73,0,0,0-1.15-.92,3,3,0,0,0-1.52-.21,3,3,0,0,0-1.45.54,2.68,2.68,0,0,0-.93,1.15,2.85,2.85,0,0,0-.22,1.51,2.89,2.89,0,0,0,.54,1.43,2.78,2.78,0,0,0,1.17.92,3.11,3.11,0,0,0,3-.34Z" style="fill:#fff"></path><path d="M242.67,407.72l.84,7.49-.88.1-5.11-5.09.62,5.59-1.07.12-.83-7.49.87-.1,5.12,5.08-.63-5.58Z" style="fill:#fff"></path><path d="M251.08,413.42l.11.93-5.44.61-.83-7.49,5.28-.59.1.93-4.21.47.26,2.3,3.75-.42.1.91-3.75.42.27,2.42Z" style="fill:#fff"></path><path d="M131.6,429a2.53,2.53,0,0,1-1-1,4.65,4.65,0,0,1-.38-3.43,2.47,2.47,0,0,1,.78-1.2,2.34,2.34,0,0,1,1.27-.53,2.45,2.45,0,0,1,1.35.23,2.5,2.5,0,0,1,1,1,4.06,4.06,0,0,1,.53,1.67,4.28,4.28,0,0,1-.14,1.75,2.59,2.59,0,0,1-.79,1.21,2.42,2.42,0,0,1-1.26.53A2.39,2.39,0,0,1,131.6,429Zm2.4-1.31a3,3,0,0,0,.25-1.84,2.91,2.91,0,0,0-.65-1.73,1.4,1.4,0,0,0-1.27-.48,1.42,1.42,0,0,0-1.14.75,3,3,0,0,0-.25,1.83,3,3,0,0,0,.65,1.74,1.42,1.42,0,0,0,1.28.48A1.43,1.43,0,0,0,134,427.67Z" style="fill:#455a64"></path><path d="M137.55,428.32a2.62,2.62,0,0,1-1-1,4.21,4.21,0,0,1-.52-1.67,4.28,4.28,0,0,1,.14-1.75,2.65,2.65,0,0,1,.78-1.21,2.4,2.4,0,0,1,1.28-.52,2.29,2.29,0,0,1,1.35.23,2.59,2.59,0,0,1,1,1,4.65,4.65,0,0,1,.38,3.43,2.49,2.49,0,0,1-.78,1.2,2.3,2.3,0,0,1-1.27.53A2.33,2.33,0,0,1,137.55,428.32ZM140,427a3,3,0,0,0,.25-1.84,3.1,3.1,0,0,0-.65-1.74,1.46,1.46,0,0,0-1.27-.48,1.43,1.43,0,0,0-1.14.75,3,3,0,0,0-.25,1.84,2.91,2.91,0,0,0,.65,1.73,1.43,1.43,0,0,0,1.27.49A1.47,1.47,0,0,0,140,427Z" style="fill:#455a64"></path><path d="M143.52,421.64l.7,6.25-.89.09-.61-5.47-1.41.16-.08-.78Z" style="fill:#455a64"></path><path d="M149.89,426.47l.09.77-4.49.5-.07-.6,2.27-2.74a3.26,3.26,0,0,0,.54-.84,1.62,1.62,0,0,0,.09-.68.91.91,0,0,0-.43-.72,1.6,1.6,0,0,0-1-.17,2,2,0,0,0-1.52.86l-.67-.46a2.53,2.53,0,0,1,.88-.8,3.36,3.36,0,0,1,1.3-.4,2.53,2.53,0,0,1,1.62.29,1.58,1.58,0,0,1,.72,1.21,2.26,2.26,0,0,1-.11,1,3.6,3.6,0,0,1-.7,1.11l-1.71,2.05Z" style="fill:#455a64"></path><path d="M154.16,423.68a1.62,1.62,0,0,1,.62,1.17,1.75,1.75,0,0,1-.16,1,1.85,1.85,0,0,1-.72.78,3.07,3.07,0,0,1-1.27.4,4.1,4.1,0,0,1-1.31-.06,2.9,2.9,0,0,1-1.07-.44l.33-.76a2.3,2.3,0,0,0,.88.4,2.77,2.77,0,0,0,1.08.06,1.74,1.74,0,0,0,1.05-.41,1,1,0,0,0-.17-1.62,2,2,0,0,0-1.2-.15l-.5,0-.07-.62,1.36-2.11-3,.34-.09-.78,4.13-.46.07.61-1.41,2.2A2.23,2.23,0,0,1,154.16,423.68Z" style="fill:#455a64"></path><path d="M159.22,422.6a1.93,1.93,0,0,1,.84.58,1.86,1.86,0,0,1,.38,1,1.83,1.83,0,0,1-.17,1.07,1.92,1.92,0,0,1-.72.78,2.61,2.61,0,0,1-1.1.37,2.38,2.38,0,0,1-2-.6,3.46,3.46,0,0,1-.94-2.22,4,4,0,0,1,.17-1.83,2.58,2.58,0,0,1,.91-1.23,3.19,3.19,0,0,1,1.51-.55,3.53,3.53,0,0,1,.86,0,2.51,2.51,0,0,1,.73.19l-.26.74a2.07,2.07,0,0,0-1.23-.16,1.94,1.94,0,0,0-1.46.77,2.58,2.58,0,0,0-.36,1.82,1,1,0,0,0,0,.22,1.73,1.73,0,0,1,.67-.7,2.55,2.55,0,0,1,1-.32A2.62,2.62,0,0,1,159.22,422.6Zm.08,2.61a1.13,1.13,0,0,0,.28-.93,1.08,1.08,0,0,0-.48-.83,1.58,1.58,0,0,0-1.08-.21,1.7,1.7,0,0,0-.73.24,1.34,1.34,0,0,0-.46.49,1.08,1.08,0,0,0-.11.64,1,1,0,0,0,.24.58,1.14,1.14,0,0,0,.56.38,1.75,1.75,0,0,0,.81.08A1.52,1.52,0,0,0,159.3,425.21Z" style="fill:#455a64"></path><path d="M164.68,420a3.52,3.52,0,0,1,.94,2.23,3.92,3.92,0,0,1-.17,1.82,2.67,2.67,0,0,1-.91,1.24,3.19,3.19,0,0,1-1.51.55,4.22,4.22,0,0,1-.87,0,2.53,2.53,0,0,1-.72-.19l.26-.74a2.11,2.11,0,0,0,1.24.16,2,2,0,0,0,1.45-.77,2.53,2.53,0,0,0,.35-1.82l0-.22a1.65,1.65,0,0,1-.67.69,2.5,2.5,0,0,1-1,.33,2.47,2.47,0,0,1-1.13-.11,1.7,1.7,0,0,1-.83-.58,1.76,1.76,0,0,1-.39-1,1.9,1.9,0,0,1,.89-1.85,2.48,2.48,0,0,1,1.1-.37A2.42,2.42,0,0,1,164.68,420Zm-.87,2.3a1.22,1.22,0,0,0,.46-.5,1.05,1.05,0,0,0,.12-.63,1.23,1.23,0,0,0-.24-.59,1.27,1.27,0,0,0-.56-.38,1.83,1.83,0,0,0-.83-.07,1.44,1.44,0,0,0-1,.44,1.16,1.16,0,0,0-.28.93,1.12,1.12,0,0,0,.49.83,1.53,1.53,0,0,0,1.07.21A1.7,1.7,0,0,0,163.81,422.32Z" style="fill:#455a64"></path><path d="M139.22,331.72a4.9,4.9,0,0,1-.33-.73c-.18-.5-.45-1.23-.72-2.19a28.46,28.46,0,0,1-1-8.38l.32.16a15.68,15.68,0,0,0-5.51,7.83l-.24.77-.22-.77a37.4,37.4,0,0,1-1.49-12l.47.16-.1.15A32.32,32.32,0,0,0,125.63,329l-.08.49-.33-.36a14.92,14.92,0,0,1-3.79-8l.38,0a39.73,39.73,0,0,0-1.19,8.2c0,1-.05,1.75-.05,2.27a5,5,0,0,1,0,.8,4.34,4.34,0,0,1-.09-.8c0-.51-.07-1.28-.06-2.27a37.28,37.28,0,0,1,1-8.29l.23-1,.15,1a14.69,14.69,0,0,0,3.76,7.71l-.41.13A32.13,32.13,0,0,1,130,316.4l.1-.16.52-.81,0,1A37.56,37.56,0,0,0,132,328.27h-.46a16,16,0,0,1,5.73-8l.33-.24v.4a29.94,29.94,0,0,0,.82,8.31c.24,1,.47,1.71.62,2.21A4.25,4.25,0,0,1,139.22,331.72Z" style="fill:#455a64"></path><path d="M175,334.28a3.47,3.47,0,0,1-.59-.74l-1.52-2.16c-1.27-1.85-3.06-4.49-5.12-7.57l.44,0a13.78,13.78,0,0,0-.25,9.68l.22.64-.59-.33a15,15,0,0,1-5.35-5.13l.39-.11a30.89,30.89,0,0,0,.52,5.41c.24,1.28.43,2,.38,2a1.58,1.58,0,0,1-.2-.49c-.11-.33-.25-.82-.41-1.46a26,26,0,0,1-.71-5.46l0-.74.41.63a14.93,14.93,0,0,0,5.24,4.9l-.36.31a13.72,13.72,0,0,1-.78-3.94,14.06,14.06,0,0,1,1.05-6.1l.18-.43.26.39c2,3.1,3.75,5.77,5,7.67l1.39,2.24A4.6,4.6,0,0,1,175,334.28Z" style="fill:#455a64"></path><path d="M205.84,318.84a5.1,5.1,0,0,1-.33-.88c-.19-.58-.45-1.45-.72-2.57a40.09,40.09,0,0,1-1.07-9.46l.37.16a14,14,0,0,0-4.09,8.1l-.14,1-.36-1a24.87,24.87,0,0,1-1.32-5.69c0-.4-.07-.8-.1-1.2l.43.18a12.51,12.51,0,0,0-4.34,8.06l-.09.75-.36-.66a16.64,16.64,0,0,1-2.1-7.38l.39.05a22.34,22.34,0,0,0-1.29,7c0,.85,0,1.51,0,2a3.65,3.65,0,0,1,0,.69,2.71,2.71,0,0,1-.13-.68,19.2,19.2,0,0,1-.13-2,21.43,21.43,0,0,1,1.13-7.17l.33-1,.06,1a16.46,16.46,0,0,0,2.12,7.17l-.45.09a12.91,12.91,0,0,1,4.48-8.41l.4-.33,0,.52c0,.39.06.78.1,1.18a24.37,24.37,0,0,0,1.28,5.56l-.49.05a14.31,14.31,0,0,1,4.3-8.35l.38-.36v.52a42.8,42.8,0,0,0,.88,9.41c.23,1.12.45,2,.59,2.58A4.93,4.93,0,0,1,205.84,318.84Z" style="fill:#455a64"></path><path d="M232.41,320.24c-.06,0-.39-.88-1.29-2.27a14.76,14.76,0,0,0-4.89-4.65l.33-.27a23.56,23.56,0,0,1,1.11,9.35c0,.57-.11,1.14-.2,1.69l-.11.77-.37-.68a19.82,19.82,0,0,0-4.47-5.5l.38-.19c.18,2.91.34,5.37.46,7.22q.06,1.21.09,2a3,3,0,0,1,0,.73,2.56,2.56,0,0,1-.13-.72c-.06-.55-.13-1.22-.22-2-.17-1.84-.39-4.3-.65-7.21l-.05-.54.43.35a19.66,19.66,0,0,1,4.63,5.6L227,324c.08-.54.15-1.09.2-1.65a24.11,24.11,0,0,0-1-9.17l-.19-.57.52.31a14.38,14.38,0,0,1,4.88,4.9,11.74,11.74,0,0,1,.86,1.75A2.61,2.61,0,0,1,232.41,320.24Z" style="fill:#455a64"></path><path d="M173.39,310.87a3.65,3.65,0,0,1-.41-.46,17.45,17.45,0,0,1-1-1.47,17.85,17.85,0,0,1-2.28-6.11l.34.08a12.93,12.93,0,0,0-2.16,8L168,312l-.52-.95a26.78,26.78,0,0,1-3.16-10.36c-.06-.61-.09-1.23-.1-1.84l.49.12a26.81,26.81,0,0,0-3,11.52l0,.63-.38-.49a10.14,10.14,0,0,1-2.08-5.12l.36.06a29.92,29.92,0,0,0-2.15,6c-.18.74-.3,1.31-.38,1.71a2.72,2.72,0,0,1-.14.59,2.35,2.35,0,0,1,0-.61c0-.4.13-1,.28-1.74a27.73,27.73,0,0,1,2-6.15l.27-.6.08.66a9.84,9.84,0,0,0,2.06,4.87l-.4.14a26.67,26.67,0,0,1,3-11.75l.46-.89,0,1c0,.6,0,1.2.1,1.8a26.56,26.56,0,0,0,3.07,10.18l-.46.13a13.13,13.13,0,0,1,2.33-8.21l.27-.38.07.45a19.18,19.18,0,0,0,2.09,6.07C172.91,310.17,173.43,310.84,173.39,310.87Z" style="fill:#455a64"></path></g></svg>
